<?xml version="1.0" encoding="utf-8"?>
<svg version="1.1" xmlns:xlink="http://www.w3.org/1999/xlink" width="16px" height="16px" xmlns="http://www.w3.org/2000/svg">
  <g transform="matrix(1 0 0 1 -53 -57 )">
    <path d="M 15.8901057635336 7.97752508189928  C 15.8854539176811 12.3618885323811  12.3323854337102 15.9149570163521  7.94802198345384 15.9196088622046  C 3.56173022983728 15.9196088622046  0.00593820337406438 12.3638168357413  0.00593820337406438 7.97752508212478  C 0.00593820337406438 3.59123332850823  3.56173022983728 0.0354413020450121  7.94802198345384 0.0354413020450121  C 12.3343137370704 0.0354413020450121  15.8901057635336 3.59123332850823  15.8901057635336 7.97752508212478  Z M 14.4834313423252 7.97893175550012  C 14.4795549041039 4.37113172586559  11.5558220130882 1.447398834749  7.94802198345384 1.44352239640325  C 4.33861506064774 1.44352239640325  1.41261262458247 4.36952483246852  1.41261262458247 7.97893175527462  C 1.41261262458247 11.5883386780807  4.33861506064774 14.514341114146  7.94802198345384 14.514341114146  C 11.5574289062599 14.514341114146  14.4834313423252 11.5883386780807  14.4834313423252 7.97893175527462  Z " fill-rule="nonzero" fill="#7f7f7f" stroke="none" transform="matrix(1 0 0 1 53 57 )" />
  </g>
</svg>