<?xml version="1.0" encoding="utf-8"?>
<svg version="1.1" xmlns:xlink="http://www.w3.org/1999/xlink" width="7px" height="7px" xmlns="http://www.w3.org/2000/svg">
  <g transform="matrix(1 0 0 1 -65 -69 )">
    <path d="M 6.29147478460813 6.95791113548119  L 6.29010034749764 6.95651340260239  C 6.11087465957674 6.95649512598009  5.93874702498703 6.88527335768706  5.81042143282971 6.75803521752213  L 0.274184638401012 1.25375993777308  C 0.14206158467901 1.12221630336287  0.0675981247848322 0.94210468627836  0.0675981247848322 0.754070142427298  C 0.0675981247848322 0.367860305772418  0.375464975101771 0.0547753732467155  0.755237981145738 0.0547753732467155  C 0.935086867265887 0.0547753732467155  1.10777806015785 0.126430672099905  1.23629132389046 0.254380347081514  L 6.77252811853951 5.75865562683056  C 6.90518788241293 5.89019052693308  6.98000063621846 6.07062670565802  6.98000063621846 6.25904555202625  C 6.98000063621846 6.64501905377424  6.67232218007613 6.95791239900373  6.29278157002394 6.95791239900373  C 6.29234597458974 6.95791239900373  6.29191037925479 6.95791197782936  6.29147478460813 6.95791113548119  Z " fill-rule="nonzero" fill="#7f7f7f" stroke="none" transform="matrix(1 0 0 1 65 69 )" />
  </g>
</svg>