<?xml version="1.0" encoding="utf-8"?>
<svg version="1.1" xmlns:xlink="http://www.w3.org/1999/xlink" width="14px" height="21px" xmlns="http://www.w3.org/2000/svg">
  <g transform="matrix(1 0 0 1 -215 -56 )">
    <path d="M 3.23076923382252 19.95  L 6.46153846197465 19.95  L 6.46153846197464 17.30505  C 2.8151249244146 17.0307562633381  -0.000145891137521156 14.0658186106525  0 10.5  C 0 10.2100505063388  0.241077447873907 9.975  0.538461543695744 9.975  C 0.835845639517581 9.975  1.0769230817211 10.2100505063388  1.0769230817211 10.5  C 1.0769230817211 13.6894444302728  3.72877494595979 16.275  7 16.275  C 10.2712250540402 16.275  12.9230769182789 13.6894444302728  12.9230769182789 10.5  C 12.9230769182789 10.2100505063388  13.1641543604824 9.975  13.4615384563043 9.975  C 13.7589225521261 9.975  13.9999999943296 10.2100505063388  13.9999999943296 10.5  C 14.0001458911375 14.0658186106525  11.1848750755854 17.0307562633381  7.53846153802536 17.30505  L 7.53846153802536 19.95  L 10.7692307661775 19.95  C 11.0666148619993 19.95  11.3076923042028 20.1850505063388  11.3076923042028 20.475  C 11.3076923042028 20.7649494936612  11.0666148619993 21  10.7692307661775 21  L 3.23076923382252 21  C 2.93338513800069 21  2.69230769579717 20.7649494936612  2.69230769579717 20.475  C 2.69230769579717 20.1850505063388  2.93338513800069 19.95  3.23076923382252 19.95  Z M 7 1.05  C 5.21569542506898 1.05  3.76923077184787 2.460303038033  3.76923077184787 4.2  L 3.76923077184787 10.5  C 3.76923080944928 12.2396969360435  5.21569545165719 13.6499999336187  7 13.6499999336187  C 8.78430457493102 13.6499999336187  10.2307692281521 12.2396968955857  10.2307692281521 10.4999999336187  L 10.2307692281521 4.2  C 10.2307692281521 2.460303038033  8.78430457493102 1.05  7 1.05  Z M 2.69230769579716 4.2  C 2.69230769579716 1.88040405071067  4.6209272334253 0  7 0  C 9.3790727665747 0  11.3076923042028 1.88040405071067  11.3076923042028 4.2  L 11.3076923042028 10.5  C 11.3076923042028 12.8195959492893  9.3790727665747 14.7  7 14.7  C 4.6209272334253 14.7  2.69230769579716 12.8195959492893  2.69230769579716 10.5  L 2.69230769579716 4.2  Z " fill-rule="nonzero" fill="#7f7f7f" stroke="none" transform="matrix(1 0 0 1 215 56 )" />
  </g>
</svg>