<?xml version="1.0" encoding="utf-8"?>
<svg version="1.1" xmlns:xlink="http://www.w3.org/1999/xlink" width="23px" height="21px" xmlns="http://www.w3.org/2000/svg">
  <g transform="matrix(1 0 0 1 -346 -51 )">
    <path d="M 22 14.8235294202091  C 22.092105271433 16.4651194937385  20.7879523191817 17.7959558823529  19.1792763075144 17.7959558823529  L 12.3833815789474 17.7959558823529  L 10.2368914473684 20.2298327290326  C 10.0862300267659 20.4006594025171  9.87159737234466 20.498204508775  9.64638158308491 20.498204508775  C 9.20761908867048 20.498204508775  8.85193180957794 20.1352397405962  8.85193180957794 19.6875000084444  C 8.85193180957794 19.4872221269344  8.9245791715553 19.2940326643385  9.0558717188014 19.1451672878562  L 11.4390954030119 16.4429613970588  C 11.589761167703 16.2721460967371  11.8043948440032 16.174616057205  12.0296052548828 16.1746323529412  L 19.1792763075144 16.1746323529412  C 19.91050860345 16.1746323529412  20.5032894819593 15.5697229654087  20.5032894819593 14.8235294202091  L 20.5032894819593 3.47426471432675  C 20.5032894819593 2.72807114379398  19.91050860345 2.12316175626149  19.1792763323396 2.12316175626149  L 3.82072369248561 2.12316175626149  C 3.08949139654999 2.12316175626149  2.49671051804071 2.72807114379398  2.49671051804071 3.47426468899357  L 2.49671051804071 14.8235294202091  C 2.49671051804071 15.5697229654087  3.08949139654999 16.1746323529412  3.82072366766036 16.1746323529412  L 7.26315788646176 16.1746323529412  C 7.7018972518701 16.1746323529412  8.0575657811986 16.5375779877291  8.0575657811986 16.9852941176471  C 8.0575657811986 17.433010247565  7.7018972518701 17.7959558823529  7.26315788646176 17.7959558823529  L 3.82072369248561 17.7959558823529  C 2.2120477056435 17.7959558823529  0.90789475339227 16.4651194937385  1 14.8235294202091  L 1 3.47426471432675  C 0.907894728567023 1.83267464079733  2.21204768081826 0.501838252182904  3.82072369248561 0.501838226849724  L 19.1792763075144 0.501838226849724  C 20.7879522943565 0.501838226849724  22.0921052466077 1.83267461546415  22 3.47426471432675  L 22 14.8235294202091  Z M 6.73355263157895 6.1764705797909  L 16.2664473684211 6.1764705797909  C 16.7051867338294 6.1764705797909  17.0608552631579 6.53941621457881  17.0608552631579 6.98713234449678  C 17.0608552631579 7.43484847441476  16.7051867338294 7.79779410920267  16.2664473684211 7.79779410920267  L 6.73355263157895 7.79779410920267  C 6.2948132661706 7.79779410920267  5.93914473684211 7.43484847441476  5.93914473684211 6.98713234449678  C 5.93914473684211 6.53941621457881  6.2948132661706 6.1764705797909  6.73355263157895 6.1764705797909  Z M 6.73355263157895 10.5  L 11.5 10.5  C 11.9387393654083 10.5  12.2944078947368 10.8629456347879  12.2944078947368 11.3106617647059  C 12.2944078947368 11.7583778946239  11.9387393654083 12.1213235294118  11.5 12.1213235294118  L 6.73355263157895 12.1213235294118  C 6.2948132661706 12.1213235294118  5.93914473684211 11.7583778946239  5.93914473684211 11.3106617647059  C 5.93914473684211 10.8629456347879  6.2948132661706 10.5  6.73355263157895 10.5  Z " fill-rule="nonzero" fill="#ffffff" stroke="none" transform="matrix(1 0 0 1 346 51 )" />
  </g>
</svg>