<?xml version="1.0" encoding="utf-8"?>
<svg version="1.1" xmlns:xlink="http://www.w3.org/1999/xlink" width="13px" height="18px" xmlns="http://www.w3.org/2000/svg">
  <g transform="matrix(1 0 0 1 -134 -23 )">
    <path d="M 7.91772151898734 17.8785511363636  C 7.83755274261604 17.9595170454545  7.74261603375528 18  7.63291139240506 18  L 5.45569620253165 18  C 5.34599156118144 18  5.25105485232068 17.9616477272727  5.17088607594937 17.8849431818182  C 5.09071729957806 17.8082386363636  5.05063291139241 17.7102272727273  5.0506329113924 17.5909090909091  L 5.0506329113924 13.3721590909091  L 1.40506329113924 13.3721590909091  C 1.29535864978903 13.3721590909091  1.20042194092827 13.3338068181818  1.12025316455696 13.2571022727273  C 1.04008438818565 13.1803977272727  1 13.0823863636364  1 12.9630681818182  L 1 11.6463068181818  C 1 11.5355113636364  1.04008438818565 11.4396306818182  1.12025316455696 11.3586647727273  C 1.20042194092827 11.2776988636364  1.29535864978903 11.2372159090909  1.40506329113924 11.2372159090909  L 5.0506329113924 11.2372159090909  L 5.0506329113924 10.1505681818182  L 1.40506329113924 10.1505681818182  C 1.29535864978903 10.1505681818182  1.20042194092827 10.1122159090909  1.12025316455696 10.0355113636364  C 1.04008438818565 9.95880681818182  1 9.86079545454546  1 9.74147727272727  L 1 8.41193181818182  C 1 8.30113636363636  1.04008438818565 8.20525568181818  1.12025316455696 8.12428977272727  C 1.20042194092827 8.04332386363636  1.29535864978903 8.00284090909091  1.40506329113924 8.00284090909091  L 4.11392405063291 8.00284090909091  L 0.0506329113924051 0.613636363636363  C -0.0168776371308017 0.477272727272727  -0.0168776371308017 0.340909090909089  0.0506329113924051 0.204545454545454  C 0.135021097046414 0.0681818181818181  0.253164556962025 0  0.405063291139241 0  L 2.86075949367089 0  C 3.0210970464135 0  3.14345991561181 0.0767045454545456  3.22784810126582 0.230113636363637  L 5.9493670886076 5.66335227272727  C 6.10970464135021 5.98721590909091  6.34599156118144 6.51988636363636  6.65822784810127 7.26136363636364  C 6.74261603375528 7.05681818181818  6.87130801687764 6.76704545454545  7.04430379746835 6.39204545454545  C 7.21729957805907 6.01704545454545  7.33333333333333 5.75710227272727  7.39240506329114 5.61221590909091  L 9.81012658227848 0.242897727272728  C 9.87763713080169 0.0809659090909074  10 0  10.1772151898734 0  L 12.5949367088608 0  C 12.7383966244726 0  12.8523206751055 0.0681818181818181  12.9367088607595 0.204545454545454  C 13.0126582278481 0.323863636363636  13.0168776371308 0.455965909090908  12.9493670886076 0.600852272727272  L 8.9873417721519 8.00284090909091  L 11.7088607594937 8.00284090909091  C 11.8185654008439 8.00284090909091  11.9135021097046 8.04332386363636  11.9936708860759 8.12428977272727  C 12.0738396624473 8.20525568181818  12.1139240506329 8.30113636363636  12.1139240506329 8.41193181818182  L 12.1139240506329 9.74147727272727  C 12.1139240506329 9.86079545454546  12.0738396624473 9.95880681818182  11.9936708860759 10.0355113636364  C 11.9135021097046 10.1122159090909  11.8185654008439 10.1505681818182  11.7088607594937 10.1505681818182  L 8.0379746835443 10.1505681818182  L 8.0379746835443 11.2372159090909  L 11.7088607594937 11.2372159090909  C 11.8185654008439 11.2372159090909  11.9135021097046 11.2776988636364  11.9936708860759 11.3586647727273  C 12.0738396624473 11.4396306818182  12.1139240506329 11.5355113636364  12.1139240506329 11.6463068181818  L 12.1139240506329 12.9630681818182  C 12.1139240506329 13.0823863636364  12.0738396624473 13.1803977272727  11.9936708860759 13.2571022727273  C 11.9135021097046 13.3338068181818  11.8185654008439 13.3721590909091  11.7088607594937 13.3721590909091  L 8.0379746835443 13.3721590909091  L 8.0379746835443 17.5909090909091  C 8.0379746835443 17.7017045454545  7.99789029535865 17.7975852272727  7.91772151898734 17.8785511363636  Z " fill-rule="nonzero" fill="#d9001b" stroke="none" transform="matrix(1 0 0 1 134 23 )" />
  </g>
</svg>