<?xml version="1.0" encoding="utf-8"?>
<svg version="1.1" xmlns:xlink="http://www.w3.org/1999/xlink" width="19px" height="18px" xmlns="http://www.w3.org/2000/svg">
  <g transform="matrix(1 0 0 1 -311 -23 )">
    <path d="M 18.9230356757813 17.23078828125  C 18.9230356757813 17.2315565185547  18.9234343974609 17.2323247375488  18.9234343974609 17.2330742248535  C 18.9234343974609 17.7143978942871  18.6262099199219 17.9111582336426  18.1384306386719 18  L 0.861531379882812 18  C 0.373771080078125 17.9111582336426  0.0765655839843749 17.7143791442871  0.0765655839843749 17.2330742248535  C 0.0765655839843749 17.2323247375488  0.0769643056640624 17.2315565002441  0.0769643056640624 17.23078828125  C 0.0762048251953124 17.23078828125  0.0762048251953124 14.0536923522949  2.42867184570312 12.8987816345215  C 3.91686386035156 12.1676898193359  3.343984265625 12.7610250366211  5.17113446191406 12.0132757507324  C 6.99862641699219 11.2663321838379  7.43158988183594 11.0052092285156  7.43158988183594 11.0052092285156  L 7.44848843359375 9.28416983642578  C 7.44848843359375 9.28416983642578  6.76438226367188 8.76728278198242  6.55159352636719 7.14766838378906  C 6.12326292578125 7.26949828491211  5.98175187207031 6.65118625488281  5.95684077539063 6.25764682617188  C 5.93386634277344 5.87772941894531  5.70877397363281 4.68952250976562  6.23141361621094 4.79698090209961  C 6.12438318359375 4.00383116455078  6.04771317382813 3.28862856445312  6.08532666113281 2.90946064453125  C 6.21647074707031 1.57971221923828  7.51444971679688 0.190210546874999  9.51375618554688 0.0888043029785153  C 11.8659004287109 0.189479791259766  12.7977126416016 1.5790001953125  12.9280592841797 2.90872988891602  C 12.9664322705078 3.28789780883789  12.8824522148438 4.00310040893555  12.7754597451172 4.794732421875  C 13.29808040625 4.68952250976562  13.0710513359375 5.87548092041016  13.0453997216797 6.25539834594727  C 13.0224063076172 6.64895650634766  12.8778573134766 7.26500134277344  12.4506849335938 7.14313395996094  C 12.237117734375 8.76349784545899  11.5526128242188 9.27585047607422  11.5526128242188 9.27585047607422  L 11.5687139140625 10.9885142944336  C 11.5687139140625 10.9885142944336  12.0016773603516 11.2321740966797  13.8288465380859 11.9792113586426  C 15.6563574931641 12.7269231628418  15.0831171396484 12.1676898193359  16.5716699130859 12.8987441711426  C 18.9237761933594 14.0536923706055  18.9237761933594 17.2307508178711  18.9237761933594 17.2307508178711  Z " fill-rule="nonzero" fill="#d9001b" stroke="none" transform="matrix(1 0 0 1 311 23 )" />
  </g>
</svg>