<svg t="1698390337237" class="icon" viewBox="0 0 1024 1024" version="1.1" xmlns="http://www.w3.org/2000/svg" p-id="14459" width="200" height="200"><path d="M512 122.88c85.83168 0 307.2 311.61344 307.2 481.28S681.66656 911.36 512 911.36c-169.66656 0-307.2-137.53344-307.2-307.2 0-169.66656 221.36832-481.28 307.2-481.28z m0 51.61984l-1.20832 0.48128a69.79584 69.79584 0 0 0-9.64608 5.12c-10.5984 6.58432-23.48032 17.05984-37.69344 30.85312-28.63104 27.8016-60.50816 66.9184-90.55232 111.26784l-4.08576 6.07232C300.8512 430.24384 256 537.98912 256 604.16c0 141.38368 114.61632 256 256 256s256-114.61632 256-256c0-65.024-43.3152-170.21952-109.32224-270.58176l-3.49184-5.28384c-31.232-46.848-64.70656-88.2688-94.63808-117.34016-14.21312-13.79328-27.09504-24.2688-37.69344-30.84288a69.79584 69.79584 0 0 0-9.64608-5.13024L512 174.4896z" fill="#100D0E" p-id="14460"></path><path d="M540.20096 404.66432a10.24 10.24 0 0 1 17.42848 6.1952l7.33184 71.85408a5.12 5.12 0 0 0 3.71712 4.4032l100.20864 27.93472a10.24 10.24 0 0 1 4.49536 17.1008L483.79904 721.73568a10.24 10.24 0 0 1-17.42848-6.1952l-7.33184-71.85408a5.12 5.12 0 0 0-3.71712-4.4032l-100.20864-27.93472a10.24 10.24 0 0 1-4.49536-17.1008l189.58336-189.58336z m-23.41888 95.82592l-80.36352 80.37376 32.64512 9.09312a56.32 56.32 0 0 1 37.376 33.83296l0.75776 2.14016 80.384-80.384-32.64512-9.10336a56.32 56.32 0 0 1-37.376-33.83296l-0.77824-2.11968z" fill="#CF0D4E" p-id="14461"></path></svg>