<?xml version="1.0" encoding="utf-8"?>
<svg version="1.1" xmlns:xlink="http://www.w3.org/1999/xlink" width="24px" height="29px" xmlns="http://www.w3.org/2000/svg">
  <g transform="matrix(1 0 0 1 -105 -279 )">
    <path d="M 3 3.48385565805289  L 3 20  L 21 20  L 21 3.48385565805289  C 21.4444444335938 2.87545080424948  20.9469830435452 2.38224122095353  20.3333333203125 2.38224122095353  L 3.6666666796875 2.38224122095353  C 3.05301695645475 2.38224122095353  2.55555556640625 2.87545080424948  2.55555556640625 3.48385565805289  C 2.55555556640625 3.48385565805289  2.55555556640625 3.48385565805289  3 3.48385565805289  Z M 21.4444444335938 22  L 2.55555556640625 22  L 2.55555556640625 25.5161443419471  C 2.55555556640625 26.1245491957505  3.05301695645475 26.6177587790465  3.6666666796875 26.6177587790465  L 20.3333333203125 26.6177587790465  C 20.9469830435452 26.6177587790465  21.4444444335938 26.1245491957505  21.4444444335938 25.5161443419471  L 21.4444444335938 22  Z M 0.33333333984375 3.48385565805289  C 0.33333333984375 1.65864109664266  1.82571750998925 0.179012346754808  3.6666666796875 0.179012346754809  L 20.3333333203125 0.179012346754809  C 22.1742824900107 0.179012346754809  23.6666666601562 1.65864109664266  23.6666666601562 3.48385565805289  L 23.6666666601562 25.5161443419471  C 23.6666666601562 27.3413589033573  22.1742824900107 28.8209876532452  20.3333333203125 28.8209876532452  L 3.6666666796875 28.8209876532452  C 1.82571750998925 28.8209876532452  0.33333333984375 27.3413589033573  0.33333333984375 25.5161443419471  L 0.33333333984375 3.48385565805289  Z M 9.7777777734375 23.3129154677484  L 14.2222222265625 23.3129154677484  C 14.8358719497953 23.3129154677484  15.3333333398438 23.8061250510444  15.3333333398438 24.4145299048478  C 15.3333333398438 25.0229347586512  14.8358719497953 25.5161443419471  14.2222222265625 25.5161443419471  L 9.7777777734375 25.5161443419471  C 9.16412805020475 25.5161443419471  8.66666666015625 25.0229347586512  8.66666666015625 24.4145299048478  C 8.66666666015625 23.8061250510444  9.16412805020475 23.3129154677484  9.7777777734375 23.3129154677484  Z " fill-rule="nonzero" fill="#000000" stroke="none" transform="matrix(1 0 0 1 105 279 )" />
  </g>
</svg>