<?xml version="1.0" encoding="utf-8"?>
<svg version="1.1" xmlns:xlink="http://www.w3.org/1999/xlink" width="9px" height="11px" xmlns="http://www.w3.org/2000/svg">
  <g transform="matrix(1 0 0 1 -113 -284 )">
    <path d="M 5.61111111328125 6.31509579202586  L 8.11111110351562 6.31509579202586  C 8.57134839594019 6.31509579202586  8.94444443847656 6.69248029482128  8.94444443847656 7.15800767106681  C 8.94444443847656 7.62353504731234  8.57134839594019 8.00091955010776  8.11111110351562 8.00091955010776  L 5.61111111328125 8.00091955010776  L 5.61111111328125 9.68674330818966  C 5.61111111328125 10.307446476517  5.11364972323275 10.8106258135776  4.5 10.8106258135776  C 3.88635027676725 10.8106258135776  3.38888888671875 10.307446476517  3.38888888671875 9.68674330818966  L 3.38888888671875 8.00091955010776  L 0.888888896484374 8.00091955010776  C 0.428651604059813 8.00091955010776  0.0555555615234367 7.62353504731234  0.0555555615234367 7.15800767106681  C 0.0555555615234367 6.69248029482128  0.428651604059813 6.31509579202586  0.888888896484374 6.31509579202586  L 3.38888888671875 6.31509579202586  L 3.38888888671875 5.19121328663793  L 0.888888896484374 5.19121328663793  C 0.428651604059811 5.19121328663793  0.0555555615234367 4.81382878384252  0.0555555615234367 4.34830140759698  C 0.0555555615234367 3.88277403135145  0.428651604059811 3.50538952855604  0.888888896484374 3.50538952855604  L 2.374444453125 3.50538952855604  L 1.04888888671875 1.62794381465517  C 0.940607012590405 1.48200180949749  0.88206876398786 1.30445930758564  0.88206876398786 1.12198979884614  C 0.88206876398786 0.656462430783705  1.25516479996591 0.279077934622001  1.71540208430036 0.279077934622001  C 1.99128302325928 0.279077934622001  2.24928315051286 0.417183882414688  2.404444453125 0.647918254310345  L 4.42222221679688 3.50538952855604  L 4.58666666015625 3.50538952855604  L 6.60444445312499 0.647918254310345  C 6.75960571807706 0.417183638263707  7.01760598812004 0.279077512993816  7.29348710548059 0.279077512993816  C 7.75372438981504 0.279077512993816  8.12682042579309 0.656462009155518  8.12682042579309 1.12198937721795  C 8.12682042579309 1.30445906630824  8.06828206162224 1.482001733748  7.95999999023437 1.62794381465517  L 6.63500000976562 3.5048275862069  L 8.11111110351562 3.5048275862069  C 8.57134839594019 3.5048275862069  8.94444443847656 3.88221208900231  8.94444443847656 4.34773946524784  C 8.94444443847656 4.81326684149338  8.57134839594019 5.19065134428879  8.11111110351562 5.19065134428879  L 5.61111111328125 5.19065134428879  L 5.61111111328125 6.31453384967672  Z " fill-rule="nonzero" fill="#d9001b" stroke="none" transform="matrix(1 0 0 1 113 284 )" />
  </g>
</svg>