<?xml version="1.0" encoding="utf-8"?>
<svg version="1.1" xmlns:xlink="http://www.w3.org/1999/xlink" width="24px" height="28px" xmlns="http://www.w3.org/2000/svg">
  <g transform="matrix(1 0 0 1 -180 -279 )">
    <path d="M 12.4203161569149 0.291802556818182  C 11.0665427194149 -0.166457315340909  9.59364145611702 0.563567116477272  9.07479255319149 1.94298125  C 8.97840757978723 2.20556477272727  8.8757852393617 2.45591669034091  8.76418932845745 2.69834886363636  L 8.70764112367021 2.81893430397727  L 8.64950415558511 2.93831711647727  C 8.59061326422952 3.05709521364431  8.52907757618005 3.17455162801905  8.46494281914894 3.29059907670454  L 8.39977410239362 3.40640333806818  C 8.33316058886291 3.52274514860526  8.26398355651156 3.63760932493778  8.19229338430851 3.75091221590909  L 8.1188866356383 3.86516186079545  L 8.04321442819149 3.97929417613636  C 8.01748806011527 4.01753543264749  7.99149841726824 4.0555999913548  7.96524734042553 4.09348515625  L 7.88483826462766 4.20779346590909  C 7.87124551196808 4.22685951704545  7.8575350731383 4.24592556818182  7.84373636968085 4.26505028409091  L 7.75959075797872 4.37982791193182  C 7.73092817011308 4.41841210374822  7.70202585239221 4.45681871346791  7.67288547207447 4.49504552556818  L 7.58350282579787 4.61082045454546  C 7.55302080059975 4.6498322532725  7.52231400966051 4.68866897492973  7.49138397606383 4.72732869318182  L 7.39644065824468 4.84465823863636  C 7.36404024696162 4.8842324267647  7.33143091801512 4.92363614603588  7.29861402925532 4.96286775568182  L 7.19781582446809 5.08219190340909  L 7.09395777925532 5.20268934659091  L 6.98701047207447 5.32450674715909  L 6.87685621675532 5.44773210227273  L 6.76343617021277 5.57251207386364  L 6.6466914893617 5.69896399147727  C 6.62694963430851 5.72020063920455  6.60706067154255 5.74149595170455  6.58702460106383 5.76287926136364  L 6.4651017287234 5.89205909090909  L 6.33964827127659 6.02323352272727  L 6.21057596409574 6.15649055397727  L 6.07782596409574 6.29200617897727  L 5.94131000664893 6.42980973011364  L 5.80096924867021 6.57010653409091  L 5.65671542553191 6.71298458806818  L 5.50848969414893 6.85856122159091  L 5.35617436835106 7.00698309659091  L 5.11994880319149 7.2351890625  L 4.81755418882979 7.52188380681818  L 4.63937732712766 7.69201164772727  L 4.46937965425532 7.85568636363636  L 4.30456017287234 8.0160171875  L 4.14480119680851 8.17318011363636  L 3.98995561835106 8.32738046875  L 3.83987632978723 8.47888224431818  C 3.81525049867021 8.50393210227273  3.79080119680851 8.52886463068182  3.76655784574468 8.55367982954546  L 3.62333377659574 8.70154438920455  C 3.10622074468085 9.23958835227273  2.67728407579787 9.73424971590909  2.30274783909574 10.2353348721591  L 2.20192021276596 10.3722291193182  C 1.98775783536387 10.6670698257353  1.78748421177068 10.9716939783944  1.6017501662234 11.2851116477273  L 1.55082147606383 11.3719355113636  C 0.676119015957445 12.8792681818182  0.223468583776594 14.5171593039773  0.23273636968085 16.3973359375  L 0.233677859042552 16.4881196732955  L 0.233972074468084 16.4716348721591  C 0.17115708111702 19.2891279119318  1.26549135638298 21.9828676136364  3.26300814494681 24.0723014914773  L 3.33973952792553 24.1516455965909  C 5.70805601728723 26.5127853693182  8.89961668882978 27.8357933238636  12.2596156914894 27.8357933238636  C 15.6110236037234 27.8357933238636  18.4780940824468 26.7546015625  20.536366356383 24.6766073153409  L 20.6101850066489 24.6011644176136  L 20.6765600066489 24.5302680397727  C 22.679990525266 22.3728123579545  23.7938607047872 19.5544980113636  23.7565836103723 16.6842360085227  L 23.755553856383 16.6268911931818  L 23.7537002992021 16.6624713778409  C 23.7805327460106 16.1809509232955  23.7717062832447 15.6593037642045  23.7228665226064 15.1032203835227  L 23.7069788896277 14.93538046875  C 23.6924960434245 14.7923228471344  23.6757236276349 14.6495048201497  23.6566680518617 14.5069809659091  L 23.6322481715426 14.3321892755682  C 23.3922566489362 12.6918928977273  22.8234793882979 10.8023885653409  21.8310907579787 8.79065617897727  L 21.8061118683511 8.74216974431818  C 21.4326642287234 8.03528856534091  20.7453769946808 7.53250213068182  19.9266931515957 7.35328125  L 19.8390463763298 7.33494850852272  C 19.153818650266 7.19852357954545  18.4326966422872 7.36052634943181  17.8519448138298 7.76258536931818  L 17.8324677526596 7.77628359375  L 17.8210816156915 7.71888011363636  C 17.1021662234043 4.17784509943182  15.3615289228723 1.83574204545455  12.972646775266 0.578057315340909  L 12.9262784242021 0.554092755681818  L 12.9003874667553 0.532093465909091  C 12.8864416555851 0.520800497159091  12.8721133643617 0.509595525568182  12.8571672207447 0.498419886363636  L 12.8249212101064 0.475012642045454  C 12.7165322473404 0.398543110795454  12.5986695478723 0.338705042613636  12.4636835106383 0.304591477272727  L 12.4443535571808 0.300191619318182  L 12.4203161569149 0.291802556818182  Z M 11.7872528257979 2.07204375  L 11.8063768284574 2.08723792613636  C 11.8526933398279 2.12215553386949  11.9021337263207 2.15275103331324  11.9540729720745 2.17863764204545  C 14.2396560837766 3.31796619318182  15.8297727726064 5.70917166193182  16.2081926529255 9.76469673295455  C 16.2780099734043 10.5128192471591  17.1539187167553 10.8837272727273  17.7424084109043 10.4143504261364  L 17.7974266954787 10.3696185369318  L 17.8514740691489 10.3240066761364  L 17.9057862367021 10.2763122159091  L 17.9617165890957 10.2254791903409  L 18.0206185172872 10.1703049715909  L 18.0838159906915 10.1096455965909  L 18.1526035571808 10.0423864346591  L 18.4384044215425 9.75906491477273  L 18.5052501662234 9.69421100852273  L 18.5970748005319 9.60726981534091  L 18.6548587101064 9.55423686079546  L 18.7401517619681 9.47870596590909  C 18.7496843417553 9.47043423295455  18.7592757646277 9.4621625  18.7689554521277 9.45392009943182  L 18.7960821143617 9.42980887784091  L 18.822267287234 9.40467102272727  C 19.0067697805851 9.22075696022727  19.2668267952128 9.14153018465909  19.4796033909574 9.18866732954546  L 19.4993158244681 9.19280319602273  C 19.8011808510638 9.25299325284091  20.0296391289894 9.42004119318182  20.1346446143617 9.62938643465909  C 21.1518356050532 11.6914531960227  21.6696841755319 13.5843894176136  21.8243238031915 15.1319074573864  L 21.8386226728723 15.2854918323864  C 21.8777827460106 15.7427837357955  21.8846968085106 16.1684553267045  21.8630131316489 16.5577547585227  C 21.8616606746649 16.5820170630026  21.8612484659673 16.606322386755  21.8617774268617 16.63061640625  L 21.8632485039894 16.7185549005682  C 21.8914343417553 19.0927182528409  20.9644792220745 21.4378132102273  19.293482712766 23.2407576704546  L 19.2409946808511 23.2970758522727  C 17.5527865691489 25.0327611505682  15.1552250664894 25.9479316051136  12.2596156914894 25.9479316051136  L 12.1654961768617 25.9475209517046  C 9.37462749335106 25.9234097301136  6.72986619015957 24.8271704545455  4.74538314494681 22.8825799005682  L 4.6844805518617 22.8223311789773  L 4.68924684175532 22.8274056818182  C 3.01624966755319 21.1056532670455  2.09820927526595 18.9023217329546  2.12560073138298 16.6010200284091  L 2.12730718085106 16.4963327414773  L 2.1272189162234 16.4791146306818  C 2.10418184840425 14.8706438920455  2.48065990691489 13.5125250710227  3.23179188829787 12.2459232954546  C 3.5127970412234 11.77205859375  3.8304025930851 11.3272329545455  4.2203557180851 10.86152265625  L 4.32371359707447 10.7394999289773  L 4.43051379654255 10.6163625710227  L 4.54090342420212 10.4918759232955  C 4.55961552526596 10.4710205965909  4.57847473404255 10.4500772727273  4.59748105053191 10.4290752840909  L 4.71346077127659 10.3022127130682  C 4.75322920790928 10.2591283161974  4.79319388277388 10.2162243691459  4.83335355718085 10.1735022017046  L 4.9573359375 10.0427384232955  L 5.0854961768617 9.9097747159091  C 5.10720927526596 9.88742343750001  5.12912832446808 9.86495482954546  5.15119448138298 9.84239822443183  L 5.28594514627659 9.70570930397728  C 5.30877626329787 9.68271271306819  5.33178390957447 9.65956946022728  5.35499750664893 9.63633821022728  L 5.49660339095744 9.49551342329547  L 5.64297556515957 9.35163806818183  L 5.79426113696808 9.20453615056819  L 5.95060721409574 9.05406100852274  L 6.29151462765957 8.72943948863638  L 6.42908976063829 8.59920369318183  L 6.7360741356383 8.30282926136365  L 7.01925648271276 8.02657684659092  L 7.21746941489361 7.8309004971591  L 7.33309607712766 7.71562421875001  L 7.49706233377659 7.55054154829547  C 7.55037416888298 7.49651129261365  7.60239145611702 7.4433903409091  7.65329072473404 7.39109069602274  L 7.80251678856383 7.23633302556819  L 7.94553490691489 7.08547656250001  L 8.08313946143617 6.93767066761365  C 8.37585438829787 6.62008892045456  8.63544065824468 6.31784801136365  8.89643916223404 5.99193586647729  C 9.75590126329787 4.91869318181818  10.4016747007979 3.82166193181818  10.8504709109043 2.59873607954545  C 11.0065521941489 2.18385880681818  11.4060673204787 1.97175632102273  11.7683053523936 2.06667592329545  L 11.7872528257979 2.07207308238636  Z " fill-rule="nonzero" fill="#000000" stroke="none" transform="matrix(1 0 0 1 180 279 )" />
  </g>
</svg>