<?xml version="1.0" encoding="utf-8"?>
<svg version="1.1" xmlns:xlink="http://www.w3.org/1999/xlink" width="10px" height="11px" xmlns="http://www.w3.org/2000/svg">
  <g transform="matrix(1 0 0 1 -272 -297 )">
    <path d="M 7.26781820929276 3.82362331078559  L 7.26616633352179 3.82362331078559  L 9.44992955001028 1.7936155139757  C 9.63962217364599 1.62384291974153  9.7467920938287 1.38968883651926  9.7467920938287 1.14500462882881  C 9.7467920938287 0.647566566485035  9.31266780846688 0.244313341415611  8.77714836335995 0.244313341415611  C 8.51373235029606 0.244313341415611  8.26165259563095 0.343862289496444  8.07888305638363 0.520065659895835  L 4.90069817614104 3.47224628198785  L 1.71920957339638 0.516996868771705  C 1.53856070625177 0.33960972353113  1.28727560200132 0.23910800797625  1.02440221643245 0.23910800797625  C 0.496181169586041 0.23910800797625  0.0679734050118098 0.636865442625202  0.0679734050118098 1.12752410391809  C 0.0679734050118098 1.37208147149433  0.17650249043243 1.60582359741352  0.36798541478207 1.77366835818142  L 2.57487471782484 3.82362331078559  L 1.21539126747533 3.82362331078559  C 1.20203794334977 3.82311189538746  1.18867469253278 3.82285610626085  1.17531002310098 3.82285610626085  C 0.637965982438492 3.82285610626085  0.202362570130173 4.22748327591613  0.202362570130173 4.72661618479818  C 0.202362570130173 5.22574909368022  0.637965982438492 5.6303762633355  1.17531002310098 5.6303762633355  C 1.18867469253279 5.6303762633355  1.20203794334976 5.6301204742089  1.21539126747533 5.62960905881076  L 3.9376618906764 5.62960905881076  L 3.9376618906764 7.07501143164063  L 1.21539126747533 7.07501143164063  C 0.677879136711116 7.07501141815322  0.242275724402801 7.4796385878085  0.242275724402801 7.97877149669054  C 0.242275724402801 8.47790440557259  0.677879136711116 8.88253157522787  1.21522317737361 8.88253157522787  L 3.9376618906764 8.88253156174045  L 3.9376618906764 10.094705539388  C 3.9376618906764 10.5938384482701  4.37326530298472 10.9984656179253  4.91060934364721 10.9984656179253  C 5.4479533843097 10.9984656179253  5.88355679661801 10.5938384482701  5.88355679661801 10.094705539388  L 5.88355679661801 8.88253156174045  L 8.60582741981908 8.88253156174045  C 9.14333955058329 8.88253157522787  9.57894296289161 8.47790440557259  9.57894296289161 7.97877149669054  C 9.57894296289161 7.4796385878085  9.14333955058329 7.07501141815322  8.6059955099208 7.07501141815322  L 5.88520867238898 7.07501143164063  L 5.88520867238898 5.62960905881076  L 8.60747929559005 5.62960905881077  C 8.62083261971561 5.6301204742089  8.6341958705326 5.6303762633355  8.6475605399644 5.6303762633355  C 9.18490458062689 5.6303762633355  9.62050799293521 5.22574909368022  9.62050799293521 4.72661618479818  C 9.62050799293521 4.22748327591613  9.18490458062689 3.82285610626085  8.6475605399644 3.82285610626085  C 8.63419587053259 3.82285610626085  8.62083261971562 3.82311189538746  8.60747929559005 3.82362331078559  L 7.26781820929276 3.82362331078559  Z " fill-rule="nonzero" fill="#d9001b" stroke="none" transform="matrix(1 0 0 1 272 297 )" />
  </g>
</svg>