<?xml version="1.0" encoding="utf-8"?>
<svg version="1.1" xmlns:xlink="http://www.w3.org/1999/xlink" width="24px" height="26px" xmlns="http://www.w3.org/2000/svg">
  <g transform="matrix(1 0 0 1 -330 -280 )">
    <path d="M 23.8285714285714 17.875  C 24 23.8875  17.8285714285714 26  12 26  C 6.17142857142857 26  0 23.8875  0 17.7125  C 0 13.975  2.22857142857143 11.2125  3.94285714285714 8.9375  C 4.97142857142857 7.475  6 6.3375  6 5.3625  C 6 3.7375  5.31428571428571 2.925  4.8 2.4375  C 4.45714285714286 2.1125  4.11428571428571 1.7875  4.11428571428571 1.3  C 4.11428571428571 0.8125  4.45714285714286 0.4875  4.8 0.4875  C 5.14285714285714 0.325  8.4 0  12 0  C 15.6 0  18.8571428571429 0.325  19.0285714285714 0.4875  C 19.3714285714286 0.4875  19.7142857142857 0.8125  19.7142857142857 1.3  C 19.7142857142857 1.7875  19.3714285714286 2.1125  19.0285714285714 2.6  C 18.5142857142857 3.25  17.8285714285714 4.0625  17.8285714285714 5.525  C 17.8285714285714 6.5  18.8571428571429 7.6375  19.8857142857143 9.1  C 21.6 11.375  23.8285714285714 14.1375  23.8285714285714 17.875  Z M 12 1.625  C 9.94285714285714 1.625  7.88571428571428 1.7875  6.51428571428571 1.95  C 7.02857142857143 2.6  7.71428571428572 3.7375  7.71428571428572 5.525  C 7.71428571428572 6.9875  6.68571428571429 8.45  5.31428571428571 10.075  C 3.6 12.1875  1.71428571428571 14.625  1.71428571428571 17.7125  C 1.71428571428571 22.5875  7.02857142857143 24.375  12 24.375  C 16.9714285714286 24.375  22.2857142857143 22.5875  22.2857142857143 17.7125  C 22.2857142857143 14.625  20.4 12.025  18.6857142857143 9.9125  C 17.4857142857143 8.2875  16.2857142857143 6.825  16.2857142857143 5.3625  C 16.2857142857143 3.575  16.9714285714286 2.4375  17.4857142857143 1.7875  C 16.1142857142857 1.7875  14.0571428571429 1.625  12 1.625  Z " fill-rule="nonzero" fill="#000000" stroke="none" transform="matrix(1 0 0 1 330 280 )" />
  </g>
</svg>