<?xml version="1.0" encoding="utf-8"?>
<svg version="1.1" xmlns:xlink="http://www.w3.org/1999/xlink" width="14px" height="14px" xmlns="http://www.w3.org/2000/svg">
  <g transform="matrix(1 0 0 1 -115 -377 )">
    <path d="M 7 0.155555555555556  C 10.7800822877308 0.155555555555556  13.8444444444444 3.21991771226924  13.8444444444444 7  C 13.8444444444444 10.7800822877308  10.7800822877308 13.8444444444444  7 13.8444444444444  C 3.21991771226924 13.8444444444444  0.155555555555556 10.7800822877308  0.155555555555556 7  C 0.155555555555556 3.21991771226924  3.21991771226924 0.155555555555556  7 0.155555555555556  Z M 12.2479777777778 7  C 12.2479791620308 4.10079035375821  9.89920826198908 1.74972199277739  7 1.74688888888889  C 4.10023736261119 1.7497200760485  1.75048648508383 4.10023659413551  1.7486 7  C 1.75425701423519 9.89709030543515  4.10290554752999 12.2434429946114  7 12.2462666666667  C 9.8965379812409 12.243438629006  12.2442051657023 9.89653690498951  12.2479777777778 7  Z M 7.0941111111111 5.5216  L 8.72993333333333 3.90631111111111  L 9.49993333333333 4.66775555555556  L 8.13788888888889 6.0144  L 9.27577777777778 6.0144  L 9.27577777777778 7.0924  L 7.64166666666666 7.0924  L 7.64166666666666 7.6314  L 9.27577777777778 7.6314  L 9.27577777777778 8.7094  L 7.64166666666666 8.7094  L 7.64166666666666 10.3246888888889  L 6.55168888888889 10.3246888888889  L 6.55168888888889 8.70768888888889  L 4.91415555555555 8.70768888888889  L 4.91415555555555 7.6314  L 6.55168888888889 7.6314  L 6.55168888888889 7.0924  L 4.91415555555555 7.0924  L 4.91415555555555 6.0144  L 6.05033333333333 6.0144  L 4.68828888888888 4.66775555555556  L 5.45828888888888 3.90631111111111  L 7.0941111111111 5.5216  Z " fill-rule="nonzero" fill="#d9001b" stroke="none" transform="matrix(1 0 0 1 115 377 )" />
  </g>
</svg>