<?xml version="1.0" encoding="utf-8"?>
<svg version="1.1" xmlns:xlink="http://www.w3.org/1999/xlink" width="21px" height="24px" xmlns="http://www.w3.org/2000/svg">
  <g transform="matrix(1 0 0 1 -104 -366 )">
    <path d="M 3.05973134328358 0.162162162162162  L 17.8851044776119 0.162162162162162  C 18.6918805970149 0.162162162162162  19.4228059701493 0.501081081081081  19.9537611940299 1.05048648648649  C 20.4778208955224 1.59275675675676  20.8053582089552 2.34016216216216  20.8105298507463 3.16605405405405  L 20.8105298507463 6.26091891891892  C 20.8105360509856 6.2623313895432  20.8105391511172 6.26374387291572  20.8105391511172 6.26515635811053  C 20.8105391511172 6.78039324985808  20.4068837591867 7.19807527702944  19.9089495988784 7.19807527702944  C 19.668827317119 7.19807527702944  19.4386252392064 7.09895956218796  19.2693805970149 6.9227027027027  C 19.1030456249791 6.75141253134432  19.0078084687092 6.51976413459666  19.0039029850746 6.27697297297297  L 19.0039029850746 3.19102702702703  C 19.0048943768073 2.55551227213607  18.5112987742112 2.03760468608297  17.897171641791 2  L 3.08386567164179 2  C 2.46969283016135 2.02875794214532  1.96917766304287 2.53950551548801  2 3.17497297297297  L 2 20.8397837837838  C 1.96062801125238 21.4752985386747  2.45422361384849 21.9932061247278  3.06835074626866 22.001027027027  L 7.22117910447761 22.001027027027  C 7.70732711883777 22.0188295517689  8.09254445997102 22.4317888466722  8.09254445997102 22.9351449505586  C 8.09254445997102 23.4329716699889  7.71546165750256 23.8434412773352  7.23497014925373 23.8686486486486  L 3.08386567164179 23.8686486486486  C 2.27708955223881 23.8686486486486  1.54444029850746 23.5297297297297  1.01520895522388 22.9803243243243  C 0.471207723205145 22.4194679660078  0.162754630772447 21.6593526125201  0.156716417910448 20.8647567567568  L 0.156716417910448 3.19102702702703  C 0.156716417910448 2.35621621621622  0.484253731343284 1.59810810810811  1.01520895522388 1.05048648648649  C 1.55723058508948 0.487581736752814  2.2918196767063 0.168410197092726  3.05973134328358 0.162162162162162  Z " fill-rule="nonzero" fill="#000000" stroke="none" transform="matrix(1 0 0 1 104 366 )" />
  </g>
</svg>