<?xml version="1.0" encoding="utf-8"?>
<svg version="1.1" xmlns:xlink="http://www.w3.org/1999/xlink" width="14px" height="12px" xmlns="http://www.w3.org/2000/svg">
  <g transform="matrix(1 0 0 1 -108 -371 )">
    <path d="M 4.39409090909091 10.1182105263158  L 4.39059090909091 10.1182105263158  C 4.3923459584528 10.1182004672369  4.39410103342167 10.1181954376661  4.39585611204858 10.1181954376661  C 4.89940173270681 10.1181954376661  5.30760611204858 10.5233306111481  5.30760611204858 11.0230901745082  C 5.30760611204858 11.0248320570552  5.3076010443749 11.0265739359716  5.30759090909091 11.0283157894737  C 5.30759539629945 11.0294759056051  5.30759763990993 11.0306360292161  5.30759763990993 11.0317961538956  C 5.30759763990993 11.5325149486632  4.89860975888035 11.9384277328429  4.39409763990992 11.9384277328429  C 4.39292872640681 11.9384277328429  4.39175981398127 11.9384255061017  4.39059090909091 11.9384210526316  L 0.946590909090909 11.9384210526316  C 0.945422004201179 11.9384255061017  0.944253091774372 11.9384277328429  0.943084178271894 11.9384277328429  C 0.438572059301464 11.9384277328429  0.0295841782718934 11.5325149486632  0.0295841782718934 11.0317961538956  C 0.0295841782718934 11.0306360292161  0.0295864218823651 11.0294759056052  0.0295909090909091 11.0283157894737  C 0.0295864218823651 11.0271556733422  0.0295841782718934 11.0259955497312  0.0295841782718934 11.0248354250518  C 0.0295841782718934 10.5241166302842  0.438572059301464 10.1182038461044  0.943084178271894 10.1182038461044  C 0.944253091774443 10.1182038461044  0.945422004201109 10.1182060728457  0.946590909090909 10.1182105263158  L 4.39409090909091 10.1182105263158  Z M 4.39409090909091 5.27415789473684  L 4.39059090909091 5.27415789473684  C 4.89498464777387 5.28098414092503  5.30026619090975 5.6887407537137  5.30026619090975 6.18938859777349  C 5.30026619090975 6.42825940389476  5.20617855660228 6.65766646099431  5.03809090909091 6.82863157894737  C 4.86631722867375 6.99894502380935  4.63339535224799 7.09453718427053  4.39059090909091 7.09436842105263  L 0.946590909090909 7.09436842105263  C 0.945422004200897 7.09437287452276  0.944253091774653 7.09437510126399  0.943084178271894 7.09437510126399  C 0.438572059301464 7.09437510126399  0.0295841782718934 6.68846231708426  0.0295841782718934 6.18774352231662  C 0.0295841782718934 6.18658339763712  0.0295864218823651 6.18542327402625  0.0295909090909091 6.18426315789474  C 0.0295864218823651 6.18310304176329  0.0295841782718934 6.18194291815229  0.0295841782718934 6.18078279347286  C 0.0295841782718934 5.68006399870521  0.438572059301464 5.27415121452549  0.943084178271894 5.27415121452549  C 0.944253091774725 5.27415121452549  0.945422004200827 5.27415344126671  0.946590909090909 5.27415789473684  L 4.39409090909091 5.27415789473684  Z M 0.941340909090909 0.30678947368421  L 13.0565909090909 0.306789473684211  C 13.0577598139809 0.306785020214077  13.0589287264072 0.306782793472857  13.0600976399099 0.306782793472857  C 13.5646097588804 0.306782793472857  13.9735976399099 0.712695577652581  13.9735976399099 1.21341437242023  C 13.9735976399099 1.21457449709945  13.9735953962994 1.21573462071087  13.9735909090909 1.2168947368421  C 13.9735953962995 1.21805485297382  13.9735976399099 1.21921497658427  13.9735976399099 1.22037510126399  C 13.9735976399099 1.72109389603163  13.5646097588804 2.12700668021135  13.0600976399099 2.12700668021135  C 13.0589287264071 2.12700668021135  13.057759813981 2.12700445347013  13.0565909090909 2.127  L 0.941340909090909 2.127  C 0.940172004200896 2.12700445347013  0.939003091774656 2.12700668021135  0.937834178271894 2.12700668021135  C 0.433322059301465 2.12700668021135  0.0243341782718943 1.72109389603163  0.0243341782718943 1.22037510126399  C 0.0243341782718943 1.21921497658462  0.0243364218823649 1.21805485297348  0.0243409090909089 1.2168947368421  C 0.0243364218823638 1.21573462071053  0.0243341782718943 1.2145744970998  0.0243341782718943 1.21341437242022  C 0.0243341782718943 0.71269557765258  0.433322059301465 0.306782793472856  0.937834178271894 0.306782793472856  C 0.939003091774867 0.306782793472856  0.940172004200686 0.306785020214076  0.941340909090909 0.30678947368421  Z " fill-rule="nonzero" fill="#000000" stroke="none" transform="matrix(1 0 0 1 108 371 )" />
  </g>
</svg>