<?xml version="1.0" encoding="utf-8"?>
<svg version="1.1" xmlns:xlink="http://www.w3.org/1999/xlink" width="7px" height="10px" xmlns="http://www.w3.org/2000/svg">
  <g transform="matrix(1 0 0 1 -188 -374 )">
    <path d="M 4.05402348728554 4.56417765066964  L 6.92103655790441 4.56417765066964  L 6.92103655790441 3.36498641183036  L 4.61084029947917 3.36498641183036  L 6.33265580958946 0.7092240234375  L 5.34238412990196 0.114285714285714  L 3.47459210707721 2.99518928571429  L 1.60677327665441 0.114285714285714  L 0.616501596966913 0.7092240234375  L 2.3383171070772 3.36498641183036  L 0.0616407743566163 3.36498641183036  L 0.0616407743566163 4.56417765066964  L 2.92865387178309 4.56417765066964  L 2.92865387178309 6.34902042410714  L 0.0616407743566163 6.34902042410714  L 0.0616407743566163 7.52032349330357  L 2.92865387178309 7.52032349330357  L 2.92865387178309 9.91870599888393  L 4.05402348728554 9.91870599888393  L 4.05402348728554 7.52032349330357  L 6.92103655790441 7.52032349330357  L 6.92103655790441 6.34902042410714  L 4.05402348728554 6.34902042410714  L 4.05402348728554 4.56417765066964  Z " fill-rule="nonzero" fill="#d9001b" stroke="none" transform="matrix(1 0 0 1 188 374 )" />
  </g>
</svg>