<?xml version="1.0" encoding="utf-8"?>
<svg version="1.1" xmlns:xlink="http://www.w3.org/1999/xlink" width="29px" height="29px" xmlns="http://www.w3.org/2000/svg">
  <g transform="matrix(1 0 0 1 -253 -365 )">
    <path d="M 28.8380661195119 14.5066248209312  C 28.8380661195119 6.57394879957554  22.4098631560331 0.145745836096742  14.4771871346775 0.145745836096742  C 6.54451114537737 0.145745836096742  0.116308149843039 6.57394879957554  0.116308149843039 14.5066248209312  C 0.116308149843039 22.4393008422868  6.54451111332184 28.8675038057656  14.4771871346775 28.8675038057656  C 22.4098631560331 28.8675038057656  28.8380661195119 22.4393008422868  28.8380661195119 14.5066248209312  Z M 19.9479981872043 11.4292936098952  L 19.9479981872043 13.4808477505858  L 15.5029642050228 13.4808477505858  L 15.5029642050228 15.5324018912765  L 19.9479981872043 15.5324018912765  L 19.9479981872043 17.5839560319671  L 15.5029642050228 17.5839560319671  L 15.5029642050228 21.0032129117478  L 13.4514100643321 21.0032129117478  L 13.4514100643321 17.5839560319671  L 9.00637611420613 17.5839560319671  L 9.00637611420613 15.5324018912765  L 13.4514100643321 15.5324018912765  L 13.4514100643321 13.4808477505858  L 9.00637611420613 13.4808477505858  L 9.00637611420613 11.4292936098952  L 11.0579302548968 11.4292936098952  L 11.0579302548968 8.35196239885927  L 13.1094843955874 8.35196239885927  L 13.1094843955874 11.4292936098952  L 15.8448899058231 11.4292936098952  L 15.8448899058231 8.35196239885927  L 17.8964440465137 8.35196239885927  L 17.8964440465137 11.4292936098952  L 19.9479981872043 11.4292936098952  Z " fill-rule="nonzero" fill="#000000" stroke="none" transform="matrix(1 0 0 1 253 365 )" />
  </g>
</svg>