<?xml version="1.0" encoding="utf-8"?>
<svg version="1.1" xmlns:xlink="http://www.w3.org/1999/xlink" width="24px" height="23px" xmlns="http://www.w3.org/2000/svg">
  <g transform="matrix(1 0 0 1 -181 -751 )">
    <path d="M 21.8300390625 0.00120405353484158  L 21.8300859375 0  L 2.2031015625 0  C 1.13409375 0.00113114754098365  0.267914062500001 0.899430199795082  0.267914062500001 2.00760130635246  L 0.267914062500001 20.8156465804303  C 0.267914062500001 21.9240850089652  1.1343515625 22.8222139472336  2.2031015625 22.8222139472336  L 3.6316640625 22.8222139472336  C 3.887015625 22.8222139472336  4.1249296875 22.7027453253074  4.285828125 22.4995320184426  L 8.983359375 16.4607528496414  L 11.1277265625 18.2957967149078  C 11.470546875 18.5896321721311  11.9741953125 18.5533249871926  12.278578125 18.2161833696209  L 18.5611640625 10.5841895171619  L 18.3853125 12.1936865394467  C 18.3853125 12.6743800589139  18.76115625 13.0641112000512  19.2247734375 13.0641112000512  C 19.6883671875 13.0641112000512  20.064234375 12.6744043609119  20.064234375 12.1936865394467  L 20.4823828125 8.36634058017418  C 20.493609375 8.31234154072746  20.49965625 8.25634973744877  20.5006640625 8.19909423027664  L 20.5014609375 8.19185223488729  C 20.5014609375 8.19034551101434  20.5012265625 8.18888739113729  20.501203125 8.18733206326844  C 20.501203125 8.18582533939549  20.5014609375 8.18436721951844  20.5014609375 8.18281189164959  C 20.5014609375 7.70211837218238  20.1256171875 7.31238723104508  19.662 7.31238723104508  L 15.802546875 7.76574100281763  C 15.338953125 7.76574100281763  14.9630859375 8.15544784195697  14.9630859375 8.63616566342214  C 14.9630859375 9.11685918288934  15.3389296875 9.50659032402664  15.802546875 9.50659032402664  L 17.3806171875 9.32121468365779  L 11.5859296875 16.4280180584016  L 9.39975 14.5566913101947  C 9.2282578125 14.4079387807377  9.004359375 14.3390426165471  8.7806015625 14.360865810707  C 8.55665625 14.3824216828893  8.35378125 14.4986338370902  8.210296875 14.6799753457992  L 3.244265625 21.0666862192623  L 2.9285625 21.0666862192623  C 2.3941875 21.0666862192623  1.9608515625 20.6179255251025  2 20.0633053278689  L 2 2.76006406890369  C 1.9608515625 2.2058813076332  2.3938125 1.7566588755123  2.9285625 2  L 21.10425 2  C 21.63871875 1.7566588755123  22.072125 2.20558968365779  22 2.76006406890369  L 22 20.0632810258709  C 22.072125 20.6174637871414  21.6391640625 21.0666619172643  21.10425 21.0666619172643  L 12.3836015625 21.0666619172643  C 11.916046875 21.0666619172643  11.537015625 21.4596252241291  11.537015625 21.9444743852459  C 11.537015625 22.4293235463627  11.916 22.8222868532275  12.3836015625 22.8222868532275  L 21.8300390625 22.8222868532275  C 22.8988828125 22.8222868532275  23.7651328125 21.9238662909836  23.7651328125 20.8157194864242  L 23.7651328125 2.00767421234632  C 23.7651328125 0.899381595799186  22.8986953125 0.00120405353484158  21.8300390625 0.00120405353484158  Z " fill-rule="nonzero" fill="#000000" stroke="none" transform="matrix(1 0 0 1 181 751 )" />
  </g>
</svg>