<?xml version="1.0" encoding="utf-8"?>
<svg version="1.1" xmlns:xlink="http://www.w3.org/1999/xlink" width="2px" height="7px" xmlns="http://www.w3.org/2000/svg">
  <g transform="matrix(1 0 0 1 -268 -750 )">
    <path d="M 0.556849218749997 3.60285604637633  C 0.986283056640625 4.30666820146277  0.663202099609375 5.5038395071476  0.503085668945312 5.90370031166888  C 0.361381738281249 6.25218319896941  0.48354892578125 6.67174980053192  0.775875708007812 6.84094571143617  C 0.858669580078123 6.88872181682181  0.946335131835935 6.91131502659575  1.03257666015625 6.91131502659575  C 1.25102854003906 6.91131502659575  1.46088625488281 6.76575415142952  1.56264228515625 6.51574067486702  C 1.59886772460937 6.42635020362367  2.44309533691406 4.30803748337766  1.50887873535156 2.77777287649601  C 1.04264484863281 2.01400986951463  1.46633259277344 1.20931713763298  1.51864711914062 1.11617603474069  C 1.70117336425781 0.798680655751332  1.63476838378906 0.364409138131651  1.36917346191406 0.1441924950133  C 1.10155490722656 -0.0773934300199454  0.735353198242187 0.00119157662899073  0.549654101562497 0.319371596575799  C 0.509706176757811 0.387538139960107  -0.415591455078127 2.00990202376995  0.556849218749997 3.60285604637633  Z " fill-rule="nonzero" fill="#000000" stroke="none" transform="matrix(1 0 0 1 268 750 )" />
  </g>
</svg>