<?xml version="1.0" encoding="utf-8"?>
<svg version="1.1" xmlns:xlink="http://www.w3.org/1999/xlink" width="11px" height="13px" xmlns="http://www.w3.org/2000/svg">
  <g transform="matrix(1 0 0 1 -337 -755 )">
    <path d="M 0.16328125 6.57738095238095  C 0.16328125 9.86800595238095  2.57640625 12.5840773809524  5.5 12.5840773809524  C 8.42359375 12.5840773809524  10.83671875 9.86800595238095  10.83671875 6.57738095238095  C 10.83671875 3.28675595238095  8.42359375 0.570684523809524  5.5 0.570684523809524  C 2.57640625 0.570684523809524  0.16328125 3.28675595238095  0.16328125 6.57738095238095  Z M 1.55546875 6.57738095238095  C 1.55546875 4.12247023809524  3.31890625 2.13764880952381  5.5 2.13764880952381  C 7.68109375 2.13764880952381  9.44453125 4.12247023809524  9.44453125 6.57738095238095  C 9.44453125 9.03229166666667  7.68109375 11.0171130952381  5.5 11.0171130952381  C 3.31890625 11.0171130952381  1.55546875 9.03229166666667  1.55546875 6.57738095238095  Z " fill-rule="nonzero" fill="#000000" stroke="none" transform="matrix(1 0 0 1 337 755 )" />
  </g>
</svg>