<?xml version="1.0" encoding="utf-8"?>
<svg version="1.1" xmlns:xlink="http://www.w3.org/1999/xlink" width="6px" height="12px" xmlns="http://www.w3.org/2000/svg">
  <g transform="matrix(1 0 0 1 -1096 -349 )">
    <path d="M 0.258620689655172 0.863636356534091  L 5.1293103515625 6.04545453835227  C 5.1293103515625 6  5.1293103515625 6  5.1293103515625 6.04545453835227  L 0.215517248114224 11.1818181818182  C 0.0431034617456888 11.3636363565341  0.0431034617456888 11.6363636292614  0.215517248114224 11.8181818252841  C 0.387931034482759 12  0.646551724137931 12  0.818965510506465 11.8181818252841  L 5.73275861395474 6.63636364346591  C 6.07758620689655 6.27272727272727  6.07758620689655 5.72727272727273  5.73275861395474 5.40909091619318  L 0.862068972252156 0.227272734375  C 0.68965518588362 0.0454545596590908  0.431034496228449 0.0454545596590908  0.258620689655172 0.227272734375  C 0.0862069032866368 0.409090909090909  0.0862069032866368 0.681818181818181  0.258620689655172 0.863636356534091  Z " fill-rule="nonzero" fill="#3d3d3d" stroke="none" transform="matrix(1 0 0 1 1096 349 )" />
  </g>
</svg>