<?xml version="1.0" encoding="utf-8"?>
<svg version="1.1" xmlns:xlink="http://www.w3.org/1999/xlink" width="22px" height="21px" xmlns="http://www.w3.org/2000/svg">
  <g transform="matrix(1 0 0 1 -253 -51 )">
    <path d="M 10.70703125 1.20875459558824  C 10.70703125 0.569393382352941  10.1796875 0.0506663602941179  9.53515625 0.0506663602941179  L 2.0302734375 0.0506663602941179  C 1.38330078125 0.0506663602941179  0.8583984375 0.569393382352941  0.8583984375 1.20875459558824  L 0.8583984375 8.99448529411765  C 0.8583984375 9.63384650735294  1.38330078125 10.1525735294118  2.0302734375 10.1525735294118  L 9.53515625 10.1525735294118  C 10.18212890625 10.1525735294118  10.70703125 9.63384650735294  10.70703125 8.99448529411765  L 10.70703125 1.20875459558824  Z M 8.94921875 1.78779871323529  L 8.94921875 8.41544117647059  L 2.6162109375 8.41544117647059  L 2.6162109375 1.78779871323529  L 8.94921875 1.78779871323529  Z M 21.12451171875 11.9862132352941  C 21.12451171875 11.3468520220588  20.599609375 10.828125  19.95263671875 10.828125  L 12.44775390625 10.828125  C 11.80078125 10.828125  11.27587890625 11.3468520220588  11.27587890625 11.9862132352941  L 11.27587890625 19.7719439338235  C 11.27587890625 20.4113051470588  11.80078125 20.9300321691176  12.44775390625 20.9300321691176  L 19.95263671875 20.9300321691176  C 20.599609375 20.9300321691176  21.12451171875 20.4113051470588  21.12451171875 19.7719439338235  L 21.12451171875 11.9862132352941  Z M 19.36669921875 12.5652573529412  L 19.36669921875 19.1928998161765  L 13.03369140625 19.1928998161765  L 13.03369140625 12.5652573529412  L 19.36669921875 12.5652573529412  Z M 9.57666015625 20.0614659926471  C 9.57666015625 19.5813419117647  9.18359375 19.1928998161765  8.69775390625 19.1928998161765  C 8.68310546875 19.1928998161765  7.14990234375 19.1832490808824  5.61669921875 18.4111902573529  C 4.01513671875 17.6053538602941  3.04833984375 16.2807904411765  2.73095703125 14.4640395220588  L 3.29248046875 14.4640395220588  C 3.47802734375 14.4640395220588  3.59521484375 14.2661994485294  3.50732421875 14.1069623161765  L 2.01806640625 11.4409466911765  C 1.92529296875 11.2744715073529  1.68359375 11.2744715073529  1.5908203125 11.4409466911765  L 0.1015625 14.1069623161765  C 0.0112304687500004 14.2686121323529  0.12841796875 14.4640395220588  0.31640625 14.4640395220588  L 0.953613281250001 14.4640395220588  C 1.3857421875 17.5739889705882  3.236328125 19.1615349264706  4.818359375 19.9577205882353  C 6.72509765625 20.91796875  8.61962890625 20.9300321691176  8.69775390625 20.9300321691176  C 9.18359375 20.9300321691176  9.57666015625 20.5415900735294  9.57666015625 20.0614659926471  Z M 21.89599609375 6.87856158088235  C 21.98876953125 6.71932444852941  21.87158203125 6.521484375  21.68359375 6.521484375  L 21.04638671875 6.521484375  C 20.61181640625 3.40912224264706  18.763671875 1.82398897058824  17.17919921875 1.02780330882353  C 15.2724609375 0.0675551470588233  13.3779296875 0.0554917279411763  13.2998046875 0.0554917279411763  C 12.81396484375 0.0554917279411763  12.4208984375 0.443933823529411  12.4208984375 0.924057904411765  C 12.4208984375 1.40418198529412  12.81396484375 1.79262408088235  13.2998046875 1.79262408088235  C 13.314453125 1.79262408088235  14.84765625 1.80227481617647  16.380859375 2.57433363970588  C 17.982421875 3.38017003676471  18.94921875 4.70473345588235  19.2666015625 6.521484375  L 18.705078125 6.521484375  C 18.51953125 6.521484375  18.40234375 6.71932444852941  18.490234375 6.87856158088235  L 19.9794921875 9.54457720588235  C 20.072265625 9.71105238970588  20.31396484375 9.71105238970588  20.40673828125 9.54457720588235  L 21.89599609375 6.87856158088235  Z " fill-rule="nonzero" fill="#ffffff" stroke="none" transform="matrix(1 0 0 1 253 51 )" />
  </g>
</svg>