<?xml version="1.0" encoding="utf-8"?>
<svg version="1.1" xmlns:xlink="http://www.w3.org/1999/xlink" width="22px" height="21px" xmlns="http://www.w3.org/2000/svg">
  <g transform="matrix(1 0 0 1 -301 -51 )">
    <path d="M 9.5054347826087 18.9040697753906  C 9.5034420367697 18.9040697753906  9.5054347826087 19.9225290697674  9.5054347826087 19.9225290697674  C 9.5054347826087 19.9215116199582  12.4945652173913 19.9215116199582  12.4945652173913 19.9215116199582  C 12.4965579632303 19.9215116199582  12.4945652173913 18.9030523255814  12.4945652173913 18.9030523255814  C 12.4945652173913 18.9040697753906  9.5054347826087 18.9040697753906  9.5054347826087 18.9040697753906  Z M 13.4909420367697 19.0256540618187  C 15.3470940857336 18.4798878680715  16.9871687892601 17.3497396733615  18.1774003545346 15.7962935967024  C 17.9497282608696 15.8329215036791  17.7155797023607 15.8517441939953  17.4764492675781 15.8517441939953  C 17.201307412813 15.8517441939953  16.9782608695652 15.6239820790087  16.9782608695652 15.3430232717115  L 16.9782608695652 7.20348837209302  C 16.9782608695652 6.92252956479583  17.201307412813 6.69476744980923  17.4764492675781 6.69476744980923  C 17.6425120669158 6.69476744980923  17.3103864682405 6.69476744980923  17.4764492675781 6.69476744980923  C 18.2305851272019 6.69356431108213  18.9727263120341 6.88748510390486  19.633605080248 7.25843023255814  C 18.3841485585088 3.63888080600472  14.947644919752 1.09883720930233  10.9835597826087 1.09883720930233  C 7.01349638459579 1.09883720930233  3.56802535453465 3.64600290697674  2.32355073242187 7.2828488372093  C 2.99485624427736 6.89613565805653  3.75279241279871 6.69353195189983  4.52355073242187 6.69476744980923  C 4.79869258718704 6.69476744980923  5.02173913043478 6.92252956479583  5.02173913043478 7.20348837209302  L 5.02173913043478 15.3430232478652  C 5.02173913043478 15.6239820790087  4.79869258718704 15.8517441939953  4.52355073242188 15.8517441939953  C 2.04707684979122 15.8517441984213  0.0396579291955962 13.8018851315129  0.0396579291955962 11.2732558263283  C 0.0396579291955962 10.2202104262738  0.395137432968808 9.19935240531345  1.04619565217391 8.38270349632086  C 1.03258185943371 8.31435129116998  1.03292105432951 8.24386635095432  1.0471920367697 8.17565406976744  C 2.01766304347826 3.49033430232558  6.1536231806216 0.0813953408884448  10.9830616019871 0.0813953408884448  C 15.8802536387568 0.0813953408884448  20.0565670367697 3.58546510833031  20.9548007324219 8.35828489166969  L 20.9597826086957 8.39033431027435  C 21.6083349346596 9.20503949117202  21.9616791539126 10.2233342024332  21.960144919752 11.2732558219023  C 21.960144919752 12.9520348916697  21.0748641304348 14.4202034963209  19.7551630434783 15.2173691860465  C 18.4090579632303 17.6185319687954  16.1413043478261 19.3848110544604  13.4784873110564 20.0837936125999  C 13.4018450477073 20.577574748405  12.9841565739427 20.9406018880898  12.4945652173913 20.9389534883721  L 9.5054347826087 20.9389534883721  C 8.95493660198709 20.9389534883721  8.5090579632303 20.482122100972  8.5090579632303 19.9225290697674  L 8.5090579632303 18.9030523255814  C 8.5090579632303 18.3414244186047  8.95095108695652 17.8866279069767  9.5054347826087 17.8866279069767  L 12.4945652173913 17.8866279069767  C 13.0450633980129 17.8866279069767  13.4909420367697 18.3434592943768  13.4909420367697 18.9030523255814  L 13.4909420367697 19.0256540618187  Z M 4.02536231105639 7.73154069767442  C 4.02536231105639 7.73154069767442  1.02925723080842 8.08764534088844  1.03623187627378 11.2732558219023  C 1.04320652173913 14.4588662790698  4.02536231105639 14.8251453488372  4.02536231105639 14.8251453488372  L 4.02536231105639 7.73154069767442  Z M 17.9746376889436 14.8251453488372  C 17.9746376889436 14.8251453488372  20.9567934782609 14.4588662790698  20.9637681237262 11.2732558219023  C 20.9707427691916 8.08764536473474  17.9746376889436 7.73154069767442  17.9746376889436 7.73154069767442  L 17.9746376889436 14.8251453488372  Z " fill-rule="nonzero" fill="#ffffff" stroke="none" transform="matrix(1 0 0 1 301 51 )" />
  </g>
</svg>