<?xml version="1.0" encoding="utf-8"?>
<svg version="1.1" xmlns:xlink="http://www.w3.org/1999/xlink" width="19px" height="22px" xmlns="http://www.w3.org/2000/svg">
  <g transform="matrix(1 0 0 1 -20 -51 )">
    <path d="M 15.4566692708333 10.0443882988281  L 13.1107987196181 7.72111757226562  L 14.4192895616319 6.4257116171875  L 18.3458465711806 10.3130030566406  L 18.9999835503472 10.9608133808594  L 14.4192895616319 15.4957004082031  L 13.1107987196181 14.1992208789062  L 15.4566692708333 11.8768090332031  L 5.62813101128472 11.8768090332031  L 5.62813101128472 10.0446030136719  L 15.4566692708333 10.0446030136719  Z M 11.1804873480903 20.1675788359375  L 11.1804873480903 21.9999995703125  L 1.93212693142361 21.9999995703125  C 1.43985754563226 22.0003211971907  0.967649544718278 21.8069000598389  0.619515190972223 21.462340625  C 0.271265656145866 21.1178618078282  0.0756512659174557 20.6504401632377  0 20.1630697167969  L 0 1.84938361523438  C 0.0757746744791666 0.835260916015625  0.906025455729167 0.01245376171875  1.93212693142361 0.01245376171875  L 11.1804873480903 0.01245376171875  L 11.1804873480903 1.84465978125  L 2.85845950520833 1.84465978125  C 2.85595802638659 1.84463967775317  2.85345647544639 1.84462962588056  2.85095491420347 1.84462962588056  C 2.3428587423743 1.84462962588056  1.92998752608511 2.25056639412014  2 2.753569671875  L 2 19.2588836601563  C 1.92648782552083 19.7508072480469  2.34291453993055 20.1675788359375  2.85845950520833 20.1675788359375  L 11.1804873480903 20.1675788359375  Z " fill-rule="nonzero" fill="#ffffff" stroke="none" transform="matrix(1 0 0 1 20 51 )" />
  </g>
</svg>