<?xml version="1.0" encoding="utf-8"?>
<svg version="1.1" xmlns:xlink="http://www.w3.org/1999/xlink" width="19px" height="17px" xmlns="http://www.w3.org/2000/svg">
  <g transform="matrix(1 0 0 1 -221 -23 )">
    <path d="M 0.572232903207631 6.56349536499024  L 12.2168376179387 6.56349536499023  L 18.0284829032076 6.56349536499023  C 18.1984298755102 6.56302185872174  18.3359406070346 6.42934926484386  18.3359406070346 6.26461928220971  C 18.3359406070346 6.18960471432684  18.3068385840079 6.11733299933273  18.2544123820613 6.06215278584798  L 12.7496901737154 0.329768515828451  C 12.6914220872379 0.269774072854936  12.6101864528558 0.235757695481494  12.5251798284241 0.235757695481494  C 12.3552985036711 0.235757695481494  12.2174195973189 0.368946415405164  12.2168376179387 0.533611119181315  L 12.2168376179387 4.19726851582845  C 12.2168376179387 4.36254630167643  12.0790064269081 4.49476851582845  11.9084935980694 4.49476851582845  L 0.572232903207631 4.49476851582845  C 0.40172007436899 4.49476851582845  0.263888883338342 4.62836804748535  0.263888883338342 4.79364583333333  L 0.263888883338342 6.26461804748535  C 0.263888883338342 6.42989583333333  0.401720074368992 6.56349536499024  0.572232903207631 6.56349536499024  Z M 6.7831623820613 10.4351273175049  L 6.7831623820613 10.4365046350098  L 0.97151709679237 10.4365046350098  C 0.801570124489774 10.4369781412783  0.664059392965411 10.5706507351561  0.664059392965411 10.7353807177903  C 0.664059392965411 10.8103952856732  0.693161415992066 10.8826670006673  0.7455876179387 10.937847214152  L 6.25030982628456 16.6702314841715  C 6.30857791276207 16.7302259271451  6.38981354714423 16.7642423045185  6.47482017157593 16.7642423045185  C 6.64470149632889 16.7642423045185  6.78258040268105 16.6310535845948  6.7831623820613 16.4663888808187  L 6.7831623820613 12.8109953649902  C 6.7831623820613 12.645929980462  6.92121270205526 12.5121180474854  7.09150640193059 12.5121180474854  L 18.4277670967924 12.5121180474854  C 18.5975074237945 12.5121197945017  18.735328901662 12.3791453016513  18.7361111166617 12.2146180474854  L 18.7361111166617 10.7340046350098  C 18.7361111166617 10.5687268491618  18.598279925631 10.4351273175049  18.4277670967924 10.4351273175049  L 6.7831623820613 10.4351273175049  Z " fill-rule="nonzero" fill="#d9001b" stroke="none" transform="matrix(1 0 0 1 221 23 )" />
  </g>
</svg>