<?xml version="1.0" encoding="utf-8"?>
<svg version="1.1" xmlns:xlink="http://www.w3.org/1999/xlink" width="4px" height="8px" xmlns="http://www.w3.org/2000/svg">
  <g transform="matrix(1 0 0 1 -184 -288 )">
    <path d="M 1.98612255859375 7.52096044921875  C 1.6167099609375 7.52096044921875  1.2472685546875 7.30985107421875  1.0361591796875 6.94040966796875  C -0.12491357421875 4.77659619140625  0.4556083984375 2.08500927734375  2.3555927734375 0.501688964843749  C 2.77778271484375 0.079499023437501  3.2699775390625 -0.0200634765625001  3.69222509765625 0.349377929687501  C 4.1144150390625 0.718790527343749  3.80054541015625 1.1614921875  3.43110400390625 1.58368212890625  C 3.37832666015625 1.63645947265625  3.301263671875 1.7181318359375  3.248486328125 1.7709091796875  C 2.14019091796875 2.72087255859375  1.6694873046875 4.71442724609375  2.35556396484375 5.9810546875  C 2.61945068359375 6.508828125  2.74044677734375 7.1619189453125  2.4805068359375 7.30789208984375  C 2.3221748046875 7.46622412109375  2.14445458984375 7.52096044921875  1.9861513671875 7.52096044921875  Z " fill-rule="nonzero" fill="#d9001b" stroke="none" transform="matrix(1 0 0 1 184 288 )" />
  </g>
</svg>