<?xml version="1.0" encoding="utf-8"?>
<svg version="1.1" xmlns:xlink="http://www.w3.org/1999/xlink" width="25px" height="26px" xmlns="http://www.w3.org/2000/svg">
  <g transform="matrix(1 0 0 1 -254 -280 )">
    <path d="M 22 3  L 3 3  L 3 23  L 15.1921053967794 23  L 15.1921053967794 26  L 1.42666441014608 26  C 0.666510372484533 25.9022033879757  0.0502837697347006 25.2930542392773  0 24.5416306836324  L 0 1.40866306319616  C 0.0502837697347006 0.657277914952042  0.666549197387695 0.0480903588528776  1.42666441014608 0  L 23.4503891817729 0  C 24.2121390345256 0.0480903588528776  24.8284044621785 0.657277886544709  24.8284044909159 1.40866306319616  L 24.8284044909159 14.3357195777576  L 22 14.3357195777576  L 22 3  Z M 10.2619818893433 6.34356689953976  L 10.2619818893433 6.34195100522123  L 10.2619818893433 12.3691911059522  L 17.9579439125061 12.3691911059522  L 17.9579439125061 15.09195238055  L 8.88560124893189 15.09195238055  C 8.88396366332078 15.0919581792225  8.88232606851724 15.0919610785658  8.8806884723997 15.0919610785658  C 8.12324282670154 15.0919610785658  7.509211809446 14.4849822987362  7.509211809446 13.7362360287708  C 7.509211809446 13.7346172406881  7.50921474247554 13.7329984539036  7.50922060852051 13.7313796762067  L 7.50922060852051 6.34356689953976  L 10.2619818893433 6.34356689953976  Z " fill-rule="nonzero" fill="#000000" stroke="none" transform="matrix(1 0 0 1 254 280 )" />
  </g>
</svg>