<?xml version="1.0" encoding="utf-8"?>
<svg version="1.1" xmlns:xlink="http://www.w3.org/1999/xlink" width="19px" height="27px" xmlns="http://www.w3.org/2000/svg">
  <g transform="matrix(1 0 0 1 -182 -366 )">
    <path d="M 18.8941212958916 1.32541141113281  C 18.8941212958916 0.600667655273437  18.3159125983392 0.01317716015625  17.6026449792395 0  L 1.38058612461757 0  C 0.667318531468531 0.01317716015625  0.0891098079654728 0.600667655273437  0 1.32541141113281  L 0 25.6877657226563  C 0.0891098079654728 26.4124831376953  0.667318531468531 26.9999999736328  1.38058612461757 27  L 17.6026449792395 27  C 18.3159125723886 26.9999999736328  18.8941212958916 26.4124831376953  18.8941212958916 25.6877657226563  L 18.8941212958916 1.32541141113281  Z M 8.41897769613199 1.72620790136719  C 8.41897769613199 1.41570130957031  8.66673698508523 1.17276720117188  8.97231192772072 1.17276720117188  L 11.7390349090363 1.17276720117188  C 12.0449211292614 1.17276720117188  12.2923950652863 1.41572767675781  12.2923950652863 1.72620790136719  C 12.2923950652863 2.03668812597656  12.0449211033108 2.2796486015625  11.7390349090363 2.2796486015625  L 8.97231192772072 2.2796486015625  C 8.66673698508523 2.2796486015625  8.41897769613199 2.03671449316406  8.41897769613199 1.72620790136719  Z M 6.69086198918269 1.72346705859375  C 6.69086198918269 1.44400585253906  6.91377271088287 1.21725328710938  7.18881870492788 1.21725328710938  C 7.4638646989729 1.21725328710938  7.68674947006119 1.44400585253906  7.68674947006119 1.72346705859375  C 7.68674947006119 2.00237481738281  7.46383874836101 2.22968083007813  7.18881870492788 2.22968083007813  C 6.91377271088287 2.22968083007813  6.69086198918269 2.00237481738281  6.69086198918269 1.72346705859375  Z M 11.2262157588505 24.655546125  C 11.2262157588505 25.4846266347656  10.5637087043816 26.1582957509766  9.74775277534965 26.1582957509766  C 8.93151151934003 26.1582957509766  8.26928979184878 25.4846266347656  8.26928979184878 24.655546125  C 8.26928979184878 23.826518296875  8.93151151934004 23.1533762871094  9.74775277534965 23.1533762871094  C 10.5637087043816 23.1533762871094  11.2262157588505 23.826518296875  11.2262157588505 24.655546125  Z M 17.4945356383851 21.3458916621094  C 17.4945356383851 21.8290454033203  17.1092533653846 22.2210658916016  16.6337070531031 22  L 2.86177257293488 22  C 2.38625218531469 22.2210658916016  2.00094398765297 21.8290454033203  2 21.3458916621094  L 2 3.98058273632813  C 2.00094401360358 3.49742899511719  2.38622628660402 3.10540850683594  2.86177259888549 3.10540850683594  L 16.633733003715 3.10540850683594  C 17.1092793159965 3.10540850683594  17.4945615889969 3.49742899511719  17.4945615889969 3.98058273632813  L 17.4945615630463 21.3458916621094  Z " fill-rule="nonzero" fill="#000000" stroke="none" transform="matrix(1 0 0 1 182 366 )" />
  </g>
</svg>