<?xml version="1.0" encoding="utf-8"?>
<svg version="1.1" xmlns:xlink="http://www.w3.org/1999/xlink" width="32px" height="32px" xmlns="http://www.w3.org/2000/svg">
  <g transform="matrix(1 0 0 1 -326 -364 )">
    <path d="M 31.9055397727273 15.9893465909091  C 31.9055397727273 7.20738636363636  24.7855113636364 0.0873579545454545  16.0035511363636 0.0873579545454545  C 7.22159090909091 0.0873579545454545  0.1015625 7.20738636363636  0.1015625 15.9893465909091  C 0.1015625 24.7713068181818  7.22159090909091 31.8913352272727  16.0035511363636 31.8913352272727  C 24.7855113636364 31.8913352272727  31.9055397727273 24.7713068181818  31.9055397727273 15.9893465909091  Z M 28.6917613636364 21.3515625  C 27.9992897727273 22.9886363636364  27.0049715909091 24.4623579545455  25.7407670454545 25.7301136363636  C 24.4765625 26.9943181818182  23.0028409090909 27.9886363636364  21.3622159090909 28.6811079545455  C 19.6647727272727 29.3984375  17.8607954545455 29.7642045454545  16.0035511363636 29.7642045454545  C 14.1463068181818 29.7642045454545  12.3387784090909 29.4019886363636  10.6448863636364 28.6811079545455  C 9.00426136363637 27.9886363636364  7.53053977272728 26.9943181818182  6.26633522727273 25.7301136363636  C 5.00213068181818 24.4659090909091  4.0078125 22.9921875  3.31534090909091 21.3515625  C 2.59801136363637 19.6541193181818  2.23224431818182 17.8501420454545  2.23224431818182 15.9928977272727  C 2.23224431818182 14.1356534090909  2.59446022727273 12.328125  3.31534090909091 10.6342329545455  C 4.0078125 8.99360795454546  5.00213068181818 7.51988636363637  6.26633522727273 6.25568181818182  C 7.53053977272727 4.99147727272727  9.00426136363636 3.99715909090909  10.6448863636364 3.3046875  C 12.3423295454545 2.58735795454546  14.1463068181818 2.22159090909091  16.0035511363636 2.22159090909091  C 17.8607954545455 2.22159090909091  19.6683238636364 2.58380681818182  21.3622159090909 3.3046875  C 23.0028409090909 3.99715909090909  24.4765625 4.99147727272727  25.7407670454545 6.25568181818182  C 27.0049715909091 7.51988636363636  27.9992897727273 8.99360795454546  28.6917613636364 10.6342329545455  C 29.4090909090909 12.3316761363636  29.7748579545455 14.1356534090909  29.7748579545455 15.9928977272727  C 29.7748579545455 17.8501420454545  29.4126420454545 19.6576704545455  28.6917613636364 21.3515625  Z " fill-rule="nonzero" fill="#000000" stroke="none" transform="matrix(1 0 0 1 326 364 )" />
  </g>
</svg>