<?xml version="1.0" encoding="utf-8"?>
<svg version="1.1" xmlns:xlink="http://www.w3.org/1999/xlink" width="2px" height="7px" xmlns="http://www.w3.org/2000/svg">
  <g transform="matrix(1 0 0 1 -264 -750 )">
    <path d="M 0.488369897460936 3.60285604637633  C 0.917803735351562 4.30666820146277  0.594697802734375 5.5038395071476  0.434606347656249 5.90370031166888  C 0.292752514648436 6.25218319896941  0.414919702148437 6.67174980053192  0.707546289062499 6.84094571143617  C 0.790340161132812 6.88872181682181  0.877855810546876 6.91131502659575  0.964097338867187 6.91131502659575  C 1.18254921875 6.91131502659575  1.39240693359375 6.76575415142952  1.49416296386719 6.51574067486702  C 1.53038840332031 6.42635020362367  2.374616015625 4.30803748337766  1.4403994140625 2.77777287649601  C 0.974165527343748 2.01400986951463  1.39785327148437 1.20931713763298  1.45016779785156 1.11617603474069  C 1.63269404296875 0.798680655751332  1.5662890625 0.364409138131651  1.300694140625 0.1441924950133  C 1.0330755859375 -0.0773934300199454  0.666873876953124 0.00119157662899073  0.481174780273436 0.319371596575799  C 0.441226855468749 0.387538139960107  -0.48422067871094 2.00990202376995  0.488369897460936 3.60285604637633  Z " fill-rule="nonzero" fill="#000000" stroke="none" transform="matrix(1 0 0 1 264 750 )" />
  </g>
</svg>