<?xml version="1.0" encoding="utf-8"?>
<svg version="1.1" xmlns:xlink="http://www.w3.org/1999/xlink" width="24px" height="24px" xmlns="http://www.w3.org/2000/svg">
  <g transform="matrix(1 0 0 1 -330 -750 )">
    <path d="M 12.6267857142857 23.8125  C 15.5678571428571 23.6678571428571  18.3642857142857 22.4142857142857  20.4375 20.2446428571429  C 22.5589285714286 18.075  23.8125 15.1821428571429  23.8125 12  C 23.8125 5.49107142857143  18.5089285714286 0.1875  12 0.1875  C 5.49107142857143 0.1875  0.1875 5.49107142857143  0.1875 12  C 0.1875 15.1821428571429  1.44107142857143 18.075  3.51428571428571 20.2446428571429  C 3.51428571428571 20.2446428571429  3.51428571428571 20.2928571428571  3.5625 20.2928571428571  C 5.63571428571429 22.4142857142857  8.43214285714286 23.6678571428571  11.3732142857143 23.8125  L 12.6267857142857 23.8125  Z M 1.63392857142857 12  C 1.63392857142857 6.2625  6.2625 1.63392857142857  12 1.63392857142857  C 17.7375 1.63392857142857  22.3660714285714 6.2625  22.3660714285714 12  C 22.3660714285714 14.3142857142857  21.5946428571429 16.4839285714286  20.2928571428571 18.2196428571429  C 19.8107142857143 16.6767857142857  19.1357142857143 15.3267857142857  18.2196428571429 14.1696428571429  C 17.9785714285714 13.8321428571429  17.4964285714286 13.7839285714286  17.2071428571429 14.025  C 16.8696428571429 14.2660714285714  16.8214285714286 14.7  17.0625 15.0375  C 18.0267857142857 16.2910714285714  18.75 17.8339285714286  19.1357142857143 19.5214285714286  C 18.9910714285714 19.6178571428571  18.8946428571429 19.7625  18.75 19.8589285714286  C 18.6535714285714 19.9071428571429  18.6053571428571 20.0035714285714  18.5089285714286 20.0517857142857  C 18.3160714285714 20.1964285714286  18.1232142857143 20.3410714285714  17.8821428571429 20.5339285714286  C 17.8339285714286 20.5821428571429  17.7857142857143 20.6303571428572  17.7375 20.6303571428572  L 17.0142857142857 21.0642857142857  C 16.9660714285714 21.0642857142857  16.9178571428571 21.1125  16.9178571428571 21.1125  C 16.6767857142857 21.2571428571429  16.3875 21.4017857142857  16.1464285714286 21.4982142857143  C 16.0982142857143 21.4982142857143  16.0982142857143 21.5464285714286  16.05 21.5464285714286  C 15.7607142857143 21.6428571428572  15.5196428571429 21.7392857142857  15.2303571428571 21.8357142857143  C 15.1821428571429 21.8357142857143  15.1339285714286 21.8839285714286  15.0857142857143 21.8839285714286  C 14.8446428571429 21.9803571428572  14.5553571428571 22.0285714285714  14.2660714285714 22.0767857142857  C 14.2178571428571 22.0767857142857  14.1214285714286 22.125  14.0732142857143 22.125  C 13.8321428571429 22.1732142857143  13.5428571428571 22.2214285714286  13.2535714285714 22.2696428571429  C 13.1571428571429 22.2696428571429  13.1089285714286 22.3178571428572  13.0125 22.3178571428572  C 12.675 22.3660714285714  12.3375 22.3660714285714  12 22.3660714285714  C 11.6625 22.3660714285714  11.325 22.3660714285714  10.9875 22.3178571428572  C 10.8910714285714 22.3178571428572  10.8428571428571 22.3178571428572  10.7464285714286 22.2696428571429  C 10.4571428571429 22.2214285714286  10.2160714285714 22.2214285714286  9.92678571428571 22.125  C 9.87857142857143 22.125  9.78214285714285 22.0767857142857  9.73392857142857 22.0767857142857  C 9.44464285714286 22.0285714285714  9.20357142857143 21.9321428571429  8.91428571428571 21.8839285714286  C 8.86607142857143 21.8839285714286  8.81785714285714 21.8357142857143  8.76964285714286 21.8357142857143  C 8.48035714285714 21.7392857142857  8.23928571428571 21.6428571428572  7.95 21.5464285714286  C 7.90178571428572 21.5464285714286  7.90178571428572 21.4982142857143  7.85357142857143 21.4982142857143  C 7.56428571428571 21.4017857142857  7.32321428571429 21.2571428571429  7.08214285714286 21.1125  C 7.03392857142857 21.1125  6.98571428571429 21.0642857142857  6.98571428571429 21.0642857142857  L 6.2625 20.6303571428572  C 6.21428571428572 20.5821428571429  6.16607142857143 20.5339285714286  6.11785714285714 20.5339285714286  C 5.925 20.3892857142857  5.68392857142857 20.2446428571429  5.49107142857143 20.0517857142857  C 5.39464285714286 20.0035714285714  5.34642857142857 19.9071428571429  5.25 19.8589285714286  C 5.10535714285714 19.7625  5.00892857142857 19.6178571428571  4.86428571428571 19.5214285714286  C 5.25 17.8339285714286  5.97321428571429 16.2910714285714  6.9375 15.0375  C 7.17857142857143 14.7  7.13035714285714 14.2660714285714  6.79285714285714 14.025  C 6.45535714285714 13.7839285714286  6.02142857142857 13.8321428571429  5.78035714285714 14.1696428571429  C 4.86428571428571 15.3267857142857  4.18928571428571 16.725  3.70714285714286 18.2196428571429  C 2.40535714285714 16.4839285714286  1.63392857142857 14.3625  1.63392857142857 12  Z " fill-rule="nonzero" fill="#000000" stroke="none" transform="matrix(1 0 0 1 330 750 )" />
  </g>
</svg>