<?xml version="1.0" encoding="utf-8"?>
<svg version="1.1" xmlns:xlink="http://www.w3.org/1999/xlink" width="26px" height="22px" xmlns="http://www.w3.org/2000/svg">
  <g transform="matrix(1 0 0 1 -29 -737 )">
    <path d="M 11.9615853658537 1.72857142857143  L 8.86219513247904 7.07142858186384  L 17.2170731707317 7.07142858186384  L 14.1176829373571 1.72857142857143  L 11.9615853658537 1.72857142857143  Z M 17.0823170626429 8.40714284670759  L 8.99695120898437 8.40714284670759  L 13.0396341358136 18.5585714285714  L 17.0823170626429 8.40714284670759  Z M 18.6993902333746 7.07142858186384  L 23.2810975609756 7.07142858186384  L 19.3731707422351 1.72857142857143  L 15.6 1.72857142857143  L 18.6993902333746 7.07142858186384  Z M 14.6567073065453 18.1578571428571  L 23.9548780382527 8.40714284670759  L 18.5646341568693 8.40714284670759  L 14.6567073065453 18.1578571428571  Z M 6.70609756097561 1.72857142857143  L 2.79817074223514 7.07142858186384  L 7.24512196174733 7.07142858186384  L 10.344512195122 1.72857142857143  L 6.70609756097561 1.72857142857143  Z M 7.64939025443026 8.40714284670759  L 2.12439023337462 8.40714284670759  L 11.4225609650819 18.1578571428571  L 7.64939025443026 8.40714284670759  Z M 25.7067073170732 8.2735714390067  L 13.0396341358136 21.7642857142857  L 0.23780487804878 8.2735714390067  L 5.89756097560976 0.392857132421875  L 20.0469512195122 0.392857132421875  L 25.7067073170732 8.2735714390067  Z " fill-rule="nonzero" fill="#000000" stroke="none" transform="matrix(1 0 0 1 29 737 )" />
  </g>
</svg>