<?xml version="1.0" encoding="utf-8"?>
<svg version="1.1" xmlns:xlink="http://www.w3.org/1999/xlink" width="27px" height="21px" xmlns="http://www.w3.org/2000/svg">
  <g transform="matrix(1 0 0 1 -104 -737 )">
    <path d="M 27 17.9668234672215  C 26.9493876143022 19.6283897673234  25.5835751220703 20.9832054093071  23.9085220525568 21  L 3.09147794744318 21  C 1.41642487792969 20.9832054093071  0.0506123856977981 19.6283897970448  0 17.9668234672215  L 0 3.0331765625  C 0.0506123856977984 1.37161023267663  1.41642487792969 0.0167946204144021  3.09147794744318 0  L 23.9085220525568 0  C 25.5835751220703 0.0167946204144021  26.9493876143022 1.37161023267663  27 3.0331765625  L 27 17.9668234672215  Z M 3.09147794744318 2  L 3.09147794744318 1.9237615064538  C 2.47299682284268 1.9237615064538  1.96790389293324 2.41967515709919  2 3.0331765625  L 2 17.9668234672215  C 1.96790389293324 18.5803248726223  2.46784281671697 19.0762385232677  3.09147794744318 19  L 23.9085220525568 19  C 24.5270031771573 19.0762385232677  25.0320961070668 18.5803248726223  25 17.9668234672215  L 25 3.0331765625  C 25.0320961070668 2.41967515709919  24.532157183283 1.9237615064538  23.9085220525568 2  L 3.09147794744318 2  Z " fill-rule="nonzero" fill="#d9001b" stroke="none" transform="matrix(1 0 0 1 104 737 )" />
  </g>
</svg>