<?xml version="1.0" encoding="utf-8"?>
<svg version="1.1" xmlns:xlink="http://www.w3.org/1999/xlink" width="19px" height="15px" xmlns="http://www.w3.org/2000/svg">
  <g transform="matrix(1 0 0 1 -317 -283 )">
    <path d="M 17.5421316964286 13.53515625  C 17.6092819940476 13.4676846590909  17.6428571428571 13.3877840909091  17.6428571428571 13.2954545454545  L 17.6428571428571 5.11363636363636  C 17.4166666666667 5.36931818181818  17.1728050595238 5.60369318181818  16.9112723214286 5.81676136363636  C 15.0169270833333 7.27982954545454  13.5113467261905 8.48011363636364  12.39453125 9.41761363636364  C 12.0340401785714 9.72301136363636  11.7406994047619 9.9609375  11.5145089285714 10.1313920454545  C 11.288318452381 10.3018465909091  10.9826078869048 10.4740767045455  10.5973772321429 10.6480823863636  C 10.212146577381 10.8220880681818  9.84988839285714 10.9090909090909  9.51060267857143 10.9090909090909  L 9.5 10.9090909090909  L 9.48939732142857 10.9090909090909  C 9.15011160714286 10.9090909090909  8.78785342261905 10.8220880681818  8.40262276785714 10.6480823863636  C 8.01739211309524 10.4740767045455  7.71168154761905 10.3018465909091  7.48549107142857 10.1313920454545  C 7.2593005952381 9.9609375  6.96595982142857 9.72301136363636  6.60546875 9.41761363636364  C 5.48865327380952 8.48011363636364  3.98307291666667 7.27982954545454  2.08872767857143 5.81676136363636  C 1.82719494047619 5.60369318181818  1.58333333333333 5.36931818181818  1.35714285714286 5.11363636363636  L 1.35714285714286 13.2954545454545  C 1.35714285714286 13.3877840909091  1.39071800595238 13.4676846590909  1.45786830357143 13.53515625  C 1.52501860119048 13.6026278409091  1.60453869047619 13.6363636363636  1.69642857142857 13.6363636363636  L 17.3035714285714 13.6363636363636  C 17.3954613095238 13.6363636363636  17.4749813988095 13.6026278409091  17.5421316964286 13.53515625  Z M 17.1498325892857 3.49964488636364  C 17.478515625 2.98473011363636  17.6428571428571 2.51775568181818  17.6428571428571 2.09872159090909  L 17.6428571428571 1.98153409090909  L 17.6428571428571 1.83771306818182  C 17.6428571428571 1.83771306818182  17.6410900297619 1.79154829545454  17.6375558035714 1.69921875  C 17.634021577381 1.60688920454545  17.6234188988095 1.5625  17.6057477678571 1.56605113636364  C 17.5880766369048 1.56960227272727  17.5686383928571 1.53764204545454  17.5474330357143 1.47017045454545  C 17.5262276785714 1.40269886363636  17.4944196428571 1.37606534090909  17.4520089285714 1.39026988636364  C 17.4095982142857 1.40447443181818  17.3601190476191 1.39559659090909  17.3035714285714 1.36363636363636  L 1.69642857142857 1.36363636363636  C 1.60453869047619 1.36363636363636  1.52501860119048 1.39737215909091  1.45786830357143 1.46484375  C 1.39071800595238 1.53231534090909  1.35714285714286 1.61221590909091  1.35714285714286 1.70454545454545  C 1.35714285714286 2.89772727272727  1.87667410714286 3.90625  2.91573660714286 4.73011363636364  C 4.27994791666667 5.80965909090909  5.69717261904762 6.93536931818182  7.16741071428571 8.10724431818182  C 7.20982142857143 8.14275568181818  7.3335193452381 8.24751420454545  7.53850446428571 8.42151988636364  C 7.74348958333333 8.59552556818182  7.90606398809524 8.72869318181818  8.02622767857143 8.82102272727273  C 8.14639136904762 8.91335227272727  8.30366443452381 9.02521306818182  8.498046875 9.15660511363636  C 8.69242931547619 9.28799715909091  8.87090773809524 9.38565340909091  9.03348214285714 9.44957386363636  C 9.19605654761905 9.51349431818182  9.34802827380953 9.54545454545455  9.48939732142857 9.54545454545455  L 9.5 9.54545454545455  L 9.51060267857143 9.54545454545455  C 9.65197172619048 9.54545454545455  9.80394345238095 9.51349431818182  9.96651785714286 9.44957386363636  C 10.1290922619048 9.38565340909091  10.3075706845238 9.28799715909091  10.501953125 9.15660511363636  C 10.6963355654762 9.02521306818182  10.8536086309524 8.91335227272727  10.9737723214286 8.82102272727273  C 11.0939360119048 8.72869318181818  11.2565104166667 8.59552556818182  11.4614955357143 8.42151988636364  C 11.6664806547619 8.24751420454545  11.7901785714286 8.14275568181818  11.8325892857143 8.10724431818182  C 13.3028273809524 6.93536931818182  14.7200520833333 5.80965909090909  16.0842633928571 4.73011363636364  C 16.4659598214286 4.42471590909091  16.8211495535714 4.01455965909091  17.1498325892857 3.49964488636364  Z M 18.5016741071429 0.500710227272727  C 18.8338913690476 0.834517045454544  19 1.23579545454545  19 1.70454545454545  L 19 13.2954545454545  C 19 13.7642045454545  18.8338913690476 14.1654829545455  18.5016741071429 14.4992897727273  C 18.1694568452381 14.8330965909091  17.7700892857143 15  17.3035714285714 15  L 1.69642857142857 15  C 1.22991071428571 15  0.830543154761905 14.8330965909091  0.498325892857143 14.4992897727273  C 0.166108630952381 14.1654829545455  0 13.7642045454545  0 13.2954545454545  L 0 1.70454545454545  C 0 1.23579545454545  0.166108630952381 0.834517045454544  0.498325892857143 0.500710227272727  C 0.830543154761905 0.166903409090907  1.22991071428571 0  1.69642857142857 0  L 17.3035714285714 0  C 17.7700892857143 0  18.1694568452381 0.166903409090907  18.5016741071429 0.500710227272727  Z " fill-rule="nonzero" fill="#000000" stroke="none" transform="matrix(1 0 0 1 317 283 )" />
  </g>
</svg>