<?xml version="1.0" encoding="utf-8"?>
<svg version="1.1" xmlns:xlink="http://www.w3.org/1999/xlink" width="21px" height="17px" xmlns="http://www.w3.org/2000/svg">
  <g>
    <path d="M 1.5 8.5  C 2.8046875 10.6755952380952  4.47265625 12.2566964285714  6.50390625 13.2433035714286  L 7.41796875 11.4598214285714  C 6.73828125 10.9285714285714  6.20703125 10.2581845238095  5.82421875 9.44866071428571  C 5.44140625 8.63913690476191  5.25 7.78323412698413  5.25 6.88095238095238  C 5.25 5.86061507936508  5.48828125 4.91195436507936  5.96484375 4.03497023809524  C 4.17578125 5.02157738095238  2.6875 6.50992063492063  1.5 8.5  Z M 10.8984375 4.07291666666667  C 11.0078125 3.95486111111111  11.0625 3.81150793650794  11.0625 3.64285714285714  C 11.0625 3.47420634920635  11.0078125 3.33085317460317  10.8984375 3.21279761904762  C 10.7890625 3.09474206349206  10.65625 3.03571428571429  10.5 3.03571428571429  C 9.5234375 3.03571428571429  8.685546875 3.41307043650794  7.986328125 4.16778273809524  C 7.287109375 4.92249503968254  6.9375 5.82688492063492  6.9375 6.88095238095238  C 6.9375 7.04960317460317  6.9921875 7.19295634920635  7.1015625 7.31101190476191  C 7.2109375 7.42906746031746  7.34375 7.48809523809524  7.5 7.48809523809524  C 7.65625 7.48809523809524  7.7890625 7.42906746031746  7.8984375 7.31101190476191  C 8.0078125 7.19295634920635  8.0625 7.04960317460317  8.0625 6.88095238095238  C 8.0625 6.15575396825397  8.30078125 5.5359623015873  8.77734375 5.02157738095238  C 9.25390625 4.50719246031746  9.828125 4.25  10.5 4.25  C 10.65625 4.25  10.7890625 4.19097222222222  10.8984375 4.07291666666667  Z M 15.12890625 0.885416666666667  C 15.25390625 0.969742063492062  15.31640625 1.08358134920635  15.31640625 1.22693452380952  C 15.31640625 1.2859623015873  15.3125 1.32390873015873  15.3046875 1.34077380952381  C 14.4765625 2.93452380952381  13.2421875 5.32514880952381  11.6015625 8.51264880952381  C 9.9609375 11.7001488095238  8.73046875 14.0865575396825  7.91015625 15.671875  L 7.3359375 16.797619047619  C 7.2578125 16.9325396825397  7.1484375 17  7.0078125 17  C 6.9140625 17  6.390625 16.7048611111111  5.4375 16.1145833333333  C 5.3125 16.0302579365079  5.25 15.9122023809524  5.25 15.7604166666667  C 5.25 15.6592261904762  5.421875 15.2924107142857  5.765625 14.6599702380952  C 4.6484375 14.1118551587302  3.619140625 13.3824404761905  2.677734375 12.4717261904762  C 1.736328125 11.5610119047619  0.921875 10.5280257936508  0.234375 9.37276785714286  C 0.078125 9.11135912698413  0 8.82043650793651  0 8.5  C 0 8.17956349206349  0.078125 7.88864087301587  0.234375 7.62723214285714  C 1.4296875 5.64558531746032  2.9140625 4.0813492063492  4.6875 2.93452380952381  C 6.4609375 1.78769841269841  8.3984375 1.21428571428571  10.5 1.21428571428571  C 11.1953125 1.21428571428571  11.8984375 1.2859623015873  12.609375 1.42931547619048  L 13.2421875 0.202380952380952  C 13.3203125 0.0674603174603172  13.4296875 0  13.5703125 0  C 13.609375 0  13.6796875 0.025297619047619  13.78125 0.0758928571428569  C 13.8828125 0.126488095238095  14.00390625 0.191840277777776  14.14453125 0.271949404761905  C 14.28515625 0.352058531746031  14.4140625 0.430059523809524  14.53125 0.505952380952381  C 14.6484375 0.581845238095238  14.771484375 0.659846230158727  14.900390625 0.739955357142857  C 15.029296875 0.820064484126983  15.10546875 0.868551587301586  15.12890625 0.885416666666667  Z M 15.65625 5.81845238095238  C 15.71875 6.19791666666667  15.75 6.55208333333333  15.75 6.88095238095238  C 15.75 8.0530753968254  15.44140625 9.1218998015873  14.82421875 10.0874255952381  C 14.20703125 11.0529513888889  13.390625 11.7465277777778  12.375 12.1681547619048  L 15.65625 5.81845238095238  Z M 20.765625 7.62723214285714  C 20.921875 7.91393849206349  21 8.20486111111111  21 8.5  C 21 8.79513888888889  20.921875 9.08606150793651  20.765625 9.37276785714286  C 20.4609375 9.9124503968254  20.03515625 10.5238095238095  19.48828125 11.2068452380952  C 18.31640625 12.6572420634921  16.958984375 13.7829861111111  15.416015625 14.5840773809524  C 13.873046875 15.3851686507937  12.234375 15.7857142857143  10.5 15.7857142857143  L 11.3671875 14.1160714285714  C 13.0234375 13.9642857142857  14.556640625 13.3866567460317  15.966796875 12.3831845238095  C 17.376953125 11.3797123015873  18.5546875 10.0853174603175  19.5 8.5  C 18.6015625 6.9905753968254  17.5 5.75099206349206  16.1953125 4.78125  L 16.93359375 3.36458333333333  C 17.67578125 3.90426587301587  18.388671875 4.54935515873016  19.072265625 5.29985119047619  C 19.755859375 6.05034722222222  20.3203125 6.82614087301587  20.765625 7.62723214285714  Z " fill-rule="nonzero" fill="#000000" stroke="none" />
  </g>
</svg>