<?xml version="1.0" encoding="utf-8"?>
<svg version="1.1" xmlns:xlink="http://www.w3.org/1999/xlink" width="21px" height="14px" xmlns="http://www.w3.org/2000/svg">
  <g transform="matrix(1 0 0 1 0 -2 )">
    <path d="M 10.296029296875 0.0942307692307692  C 11.7234755859375 0.0970282451923083  13.0102177734375 0.398840144230769  14.245423828125 0.944495192307693  C 15.659068359375 1.56896334134615  16.907173828125 2.4546484375  18.0578671875 3.49341646634615  C 19.0308603515625 4.37173978365385  19.910173828125 5.34118088942308  20.7224267578125 6.37557391826923  C 21.000861328125 6.73018028846154  20.9831630859375 7.02372596153846  20.766662109375 7.35262920673077  C 20.1700693359375 8.25886418269231  19.4880205078125 9.09204927884616  18.7490419921875 9.87750901442308  C 17.74573828125 10.9439362980769  16.6338662109375 11.8696484375  15.3685341796875 12.5927013221154  C 14.2900283203125 13.2089873798077  13.1473125 13.6399248798077  11.9205556640625 13.8161027644231  C 10.4009677734375 14.0343269230769  8.9240771484375 13.8502614182692  7.4859873046875 13.3092337740385  C 5.96539453125 12.7372025240385  4.6353603515625 11.8434615384615  3.4130537109375 10.7698617788462  C 2.2412578125 9.74062199519231  1.2071103515625 8.57783954326923  0.26586328125 7.326484375  C 0.00929003906249999 6.98538161057692  0.00516796874999998 6.7875390625  0.2493544921875 6.4337109375  C 1.3451689453125 4.84575420673077  2.650552734375 3.46819711538462  4.1863212890625 2.32390324519231  C 5.20135546875 1.56757512019231  6.295365234375 0.965171274038463  7.49166796875 0.566983173076924  C 8.4283828125 0.255201322115386  9.389583984375 0.0975330528846171  10.2960908203125 0.0942938701923091  Z M 14.9671962890625 2.80069411057692  C 16.24833984375 5.20982572115385  15.51629296875 7.91896033653846  13.8351650390625 9.37873798076923  C 12.078978515625 10.9037199519231  9.5972255859375 11.0699278846154  7.705482421875 9.77667367788461  C 6.5685908203125 8.99945913461538  5.836400390625 7.92207331730769  5.537232421875 6.55076322115385  C 5.2386591796875 5.18220853365385  5.4655166015625 3.89412860576923  6.1442431640625 2.67998197115384  C 4.3175302734375 3.72100060096154  2.8588505859375 5.17671875  1.5868330078125 6.85122896634615  C 2.166650390625 7.59481069711538  2.7698466796875 8.29948016826923  3.419841796875 8.96067307692307  C 4.00378125 9.5547265625  4.6214765625 10.1089633413461  5.290810546875 10.6016556490385  C 6.502330078125 11.4934825721154  7.81339453125 12.1515625  9.2941611328125 12.4191105769231  C 10.2385869140625 12.5898197115385  11.18176171875 12.5894200721154  12.1218193359375 12.3938070913462  C 13.5132744140625 12.1042578125  14.7555146484375 11.4695042067308  15.89478515625 10.6207752403846  C 17.2477470703125 9.61280048076923  18.390873046875 8.386328125  19.3792265625 7.00542668269231  C 19.4278095703125 6.93753004807692  19.4280556640625 6.89478966346154  19.3730537109375 6.83227764423077  C 19.0009189453125 6.40958533653846  18.6411708984375 5.97507211538462  18.2602587890625 5.56094050480769  C 17.4096357421875 4.63604867788462  16.4835234375 3.79989783653846  15.4413984375 3.10530348557693  C 15.285046875 3.00108173076923  15.12533203125 2.90209735576923  14.967216796875 2.80075721153846  Z M 6.9511845703125 5.61781550480769  C 6.974583984375 5.69860576923077  6.990826171875 5.82606971153846  7.0465048828125 5.93170072115385  C 7.1481005859375 6.12447415865385  7.4014130859375 6.20356069711538  7.643138671875 6.14218449519231  C 7.8722314453125 6.083984375  8.00108203125 5.90341045673077  8.034837890625 5.64957632211538  C 8.0740693359375 5.35439002403846  8.1086455078125 5.05335637019231  8.19516796875 4.7709375  C 8.5289326171875 3.68109975961538  9.272115234375 3.08450120192308  10.368955078125 2.94210336538461  C 10.687974609375 2.90068810096154  10.906013671875 2.65490985576923  10.90096875 2.32402944711538  C 10.896333984375 2.02116586538462  10.709056640625 1.83352463942308  10.4146875 1.8465234375  C 10.300623046875 1.85155048076923  10.186681640625 1.87134314903846  10.0737861328125 1.89096754807692  C 9.414357421875 2.00562199519231  8.8067109375 2.24818209134615  8.28950390625 2.69138221153846  C 7.4152763671875 3.44049579326923  7.0658232421875 4.44758713942308  6.951205078125 5.61783653846154  Z " fill-rule="nonzero" fill="#272636" stroke="none" transform="matrix(1 0 0 1 0 2 )" />
  </g>
</svg>