<?xml version="1.0" encoding="utf-8"?>
<svg version="1.1" xmlns:xlink="http://www.w3.org/1999/xlink" width="7px" height="7px" xmlns="http://www.w3.org/2000/svg">
  <g transform="matrix(1 0 0 1 -761 -280 )">
    <path d="M 6.88237526403356 3.45280218975361  C 6.88237526403356 1.5504150766226  5.36500034360532 0.00241847581129771  3.49884708116319 0.00241847581129771  C 1.6326419921875 0.00241847581129771  0.114567552806712 1.55044199969952  0.114567552806712 3.45280218975361  C 0.114567552806712 5.35475882286659  1.6326419921875 6.90119493689904  3.49884708116319 6.90119493689904  C 5.36500034360532 6.90119493689904  6.88237526403356 5.35475879657452  6.88237526403356 3.45280218975361  Z M 5.3794572120949 3.45199504957933  C 5.37945721209491 4.51153436373197  4.53551829427084 5.37337697190505  3.49884708116319 5.37337697190505  C 2.4613986219618 5.37337697190505  1.61740787760416 4.51153439002404  1.61740787760416 3.45199504957933  C 1.61740787760416 2.39283239558293  2.46137269603588 1.53064002403846  3.49884708116319 1.53064002403846  C 4.53551829427083 1.53064002403846  5.3794572120949 2.39283236929086  5.3794572120949 3.45199504957933  Z " fill-rule="nonzero" fill="#ffffff" stroke="none" transform="matrix(1 0 0 1 761 280 )" />
  </g>
</svg>