<?xml version="1.0" encoding="utf-8"?>
<svg version="1.1" xmlns:xlink="http://www.w3.org/1999/xlink" width="11px" height="21px" xmlns="http://www.w3.org/2000/svg">
  <g transform="matrix(1 0 0 1 -1033 -475 )">
    <path d="M 11 0.528917910447761  C 10.9189365671642 0.258442636510105  10.6892319145587 0.0391791044776119  10.4058768656716 0.0391791044776119  L 0.632089552238807 0.0391791044776119  C 0.348734503351739 0.0391791044776119  0.11902985074627 0.258442636510105  0.11902985074627 0.528917910447761  C 0.11902985074627 0.799393184385417  0.348734503351739 1.01865671641791  0.632089552238807 1.01865671641791  L 9.89281716417911 1.01865671641791  L 9.89281716417911 3.91546175373134  L 3.0660447761194 3.91546175373134  C 2.78268972723234 3.91546175373134  2.55298507462687 4.13472528576384  2.55298507462687 4.40520055970149  C 2.55298507462687 4.67567583363915  2.78268972723234 4.89493936567164  3.0660447761194 4.89493936567164  L 9.8928171641791 4.89493936567164  L 9.8928171641791 7.83337220149254  L 1.01380597014925 7.83337220149254  C 0.730450921262185 7.83337220149254  0.500746268656716 8.05263573352503  0.500746268656716 8.32311100746269  C 0.500746268656716 8.59358628140034  0.730450921262185 8.81284981343284  1.01380597014925 8.81284981343284  L 9.89281716417911 8.81284981343284  L 9.89281716417911 11.7512826492537  L 1.01380597014925 11.7512826492537  C 0.730450921262185 11.7512826492537  0.500746268656716 11.9705461812862  0.500746268656716 12.2410214552239  C 0.500746268656716 12.5114967291615  0.730450921262185 12.730760261194  1.01380597014925 12.730760261194  L 9.89281716417911 12.730760261194  L 9.89281716417911 20.4103544776119  C 9.89281716417911 20.6808297515496  10.1225218167846 20.9000932835821  10.4058768656716 20.9000932835821  C 10.6892319145587 20.9000932835821  10.9189365671642 20.6808297515496  10.9189365671642 20.4103544776119  C 10.9189365671642 20.4103544776119  10.9189365671642 20.4103544776119  11 20.4103544776119  L 11 0.528917910447761  Z " fill-rule="nonzero" fill="#49a3fe" stroke="none" transform="matrix(1 0 0 1 1033 475 )" />
  </g>
</svg>