<?xml version="1.0" encoding="utf-8"?>
<svg version="1.1" xmlns:xlink="http://www.w3.org/1999/xlink" width="30px" height="29px" xmlns="http://www.w3.org/2000/svg">
  <g transform="matrix(1 0 0 1 -1026 -467 )">
    <path d="M 29.3956117021277 27.8771462912088  L 28.3055186170213 27.8771462912088  C 28.3288064196093 27.8200287231881  28.3411543704905 27.759055038654  28 27.6973901098901  L 28 14.7444883241758  C 28.3419215425532 14.4694838986076  28.1186592834928 14.2465487637363  27.8432513297872 14.2465487637363  L 20.3631981382979 14.2465487637363  C 20.0877901845924 14.2465487637363  19.8645279255319 14.4694838986076  19.8645279255319 14.7444883241758  L 19.8645279255319 27.8776442307692  L 6 27.8776442307692  L 6 10.5777300824176  C 5.45295877659575 10.5777300824176  5.45295877659575 10.5777300824176  5.45295877659575 10.5777300824176  C 5.45295877659575 10.3027256568494  5.2296965175353 10.079790521978  4.95428856382979 10.079790521978  C 4.67888061012427 10.079790521978  4.45561835106383 10.3027256568494  4.45561835106383 10.5777300824176  C 4.45561835106383 10.5777300824176  4.45561835106383 10.5777300824176  5 10.5777300824176  L 5 27.8771462912088  L 3 27.8771462912088  L 3 9.41603708791209  L 9.58045212765957 4.50834478021978  L 9.58045212765957 7.52884615384615  L 10.5777925531915 7.52884615384615  L 10.5777925531915 0.601013049450549  C 10.5777925531915 0.326008623882331  10.354530294131 0.103073489010989  10.0791223404255 0.103073489010989  C 9.80371438672002 0.103073489010989  9.58045212765957 0.326008623882331  9.58045212765957 0.601013049450549  L 9.58045212765957 3.26598557692308  L 2.19464760638298 8.76722184065934  C 2.06842243085615 8.86126101648255  1.99410283826447 9.00931320785421  2 9.16656936813187  L 2 27.8776442307692  L 0.60438829787234 27.8776442307692  C 0.328980344166825 27.8776442307692  0.105718085106383 28.1005793656406  0.105718085106383 28.3755837912088  C 0.105718085106383 28.650588216777  0.328980344166825 28.8735233516484  0.60438829787234 28.8735233516484  L 29.3956117021277 28.8735233516484  C 29.67115735981 28.8735233516484  29.89453125 28.6504767492096  29.89453125 28.3753348214286  C 29.89453125 28.1001928936476  29.67115735981 27.8771462912088  29.3956117021277 27.8771462912088  Z M 27.3809840425532 27.8776442307692  L 20.8618683510638 27.8776442307692  L 20.8618683510638 15.2424278846154  L 27 15.2424278846154  L 27 27.6978880494506  C 27.345348289084 27.7595529782145  27.3576962399651 27.8205266627486  27.3809840425532 27.8776442307692  Z " fill-rule="nonzero" fill="#0f13ae" stroke="none" transform="matrix(1 0 0 1 1026 467 )" />
  </g>
</svg>