<?xml version="1.0" encoding="utf-8"?>
<svg version="1.1" xmlns:xlink="http://www.w3.org/1999/xlink" width="18px" height="17px" xmlns="http://www.w3.org/2000/svg">
  <g transform="matrix(1 0 0 1 -847 -563 )">
    <path d="M 1.84056786684783 12.4327988368443  L 1.84056786684783 14.6030247837612  C 1.84056786684783 14.9022594691685  2.16127773097826 15.2306122576032  2.49732030570652 15.2727405308315  L 2.56951198369565 15.2776967790876  L 5.45526174252717 15.2776967790876  L 5.45526174252717 16.931851297433  L 2.54587399116848 16.931851297433  C 0.977462272418479 16.931851297433  0.176326508152175 16.0806122279576  0.129689449728262 14.5156705636161  L 0.12713398777174 14.3669824933733  L 0.12713398777174 12.4327988368443  L 1.8399290013587 12.4327988368443  Z M 16.1262111888587 12.4327988368443  L 17.8390062024457 12.4327988368443  L 17.8390062024457 14.3669824933733  C 17.840922798913 15.9244897705078  16.9081809884511 16.8717565464565  15.3301863485054 16.9287536533901  L 15.1800532336957 16.931231792341  L 12.5121561786685 16.931231792341  L 12.5121561786685 15.2770772739955  L 15.407488919837 15.2770772739955  C 15.7416149286685 15.2770772739955  16.0782963688859 14.9735058454241  16.1217391304348 14.6594023263114  L 16.1262111888587 14.5918731881278  L 16.1262111888587 12.4327988368443  Z M 1.76709848845109 5.67492711007255  L 8.66427682744565 5.67492711007254  L 7.57820763586957 10.9409620936802  L 5.29618457201087 10.9409620936802  L 6.15098491508152 6.79256558314732  L 3.81913043478261 6.79256558314732  C 3.38598048913044 6.79256558314732  2.96369122622283 7.13640668073382  2.87616680706522 7.56078717564174  L 2.56759538722826 9.05696063232422  C 2.48070986413044 9.4813410975865  2.76117126358696 9.82518219517299  3.19432120923913 9.82518222481864  L 5.06811002038044 9.82518222481864  L 4.83811890285326 10.9409620936802  L 0.682306997282612 10.9409620936802  C 0.248518186141306 10.9409620936802  -0.031943213315215 10.5971209960938  0.0555811752717414 10.1733600655692  L 0.824134860733698 6.44252916782924  C 0.911659249320654 6.01876823730469  1.33394851222826 5.67492713971819  1.76709848845109 5.67492711007255  Z M 10.0857497894022 5.67492711007254  L 12.3792724014946 5.67492711007254  L 11.52 9.82518222481864  L 14.7411534986413 9.82518222481864  C 15.0139485427989 9.82518222481864  15.279077201087 9.61020408586775  15.3340195108696 9.34504372209821  C 15.3889618206522 9.07988335832868  15.2126353125 8.86552478376116  14.939840298913 8.86552478376116  L 12.968305220788 8.86552478376116  C 12.5325998131794 8.86552478376116  12.2502218172554 8.52168368617467  12.3383851019022 8.09730322091239  L 12.6808163315217 6.44314870256696  C 12.7689795855978 6.01876823730469  13.1931854449728 5.67492713971819  13.6288908525815 5.67492711007254  L 17.9278083525815 5.67492711007254  L 17.6965394735054 6.79256558314732  L 14.934729375 6.79256558314732  C 14.6625731963315 6.79256558314732  14.3980834035326 7.00568511788504  14.34314109375 7.26960641217913  C 14.2881987839674 7.53476677594866  14.4645252921196 7.7497448852539  14.7360426052989 7.7497448852539  L 16.70949421875 7.7497448852539  C 17.1445607608696 7.7497448852539  17.4262998913044 8.0935859828404  17.3387755027174 8.51796647774833  L 16.9957054076087 10.1733600655692  C 16.9081810190217 10.5971209960938  16.4839751596467 10.941581628418  16.048269752038 10.941581628418  L 8.99520850883153 10.941581628418  L 9.42452529211957 8.86614431849888  L 8.34484472486413 8.86614431849888  L 8.5767524388587 7.74912535051618  L 9.65643300611413 7.74912535051618  L 10.0857497894022 5.67492711007254  Z M 14.939840298913 0.0898323590959814  C 16.6296362160326 0.0910714285714288  17.7783141338315 1.02284986572266  17.8370896059783 2.51654518345424  L 17.8390062024456 2.65408162841797  L 17.8390062024456 4.58826531459263  L 16.1268500543478 4.58826531459263  L 16.1268500543478 2.42981049804687  C 16.1268500543478 2.11508747384208  15.8125288451087 1.7904518938337  15.4841526256793 1.74832362060547  L 15.4138775441576 1.74336734270368  L 12.5121561786685 1.74336734270368  L 12.5121561786685 0.0892128243582567  L 14.939840298913 0.0892128243582567  Z M 5.4546229076087 0.0904518938337051  L 5.45526174252717 0.0898323590959814  L 5.45526174252717 1.74398687744141  L 2.54587399116848 1.74398687744141  C 2.22644185801631 1.74398687744141  1.88784382133152 2.05127551443917  1.84440105978261 2.3573250819615  L 1.8399290013587 2.4223760811942  L 1.8399290013587 4.58826531459263  L 0.127772853260871 4.58826531459263  L 0.127772853260871 2.65470116315569  C 0.127772853260871 1.09905246058873  1.06370896059783 0.149307575334822  2.63659273777174 0.0929300327845987  L 2.78608695652174 0.0904518938337051  L 5.4546229076087 0.0904518938337051  Z " fill-rule="nonzero" fill="#ffffff" stroke="none" transform="matrix(1 0 0 1 847 563 )" />
  </g>
</svg>