<?xml version="1.0" encoding="utf-8"?>
<svg version="1.1" xmlns:xlink="http://www.w3.org/1999/xlink" width="17px" height="17px" xmlns="http://www.w3.org/2000/svg">
  <g transform="matrix(1 0 0 1 -847 -645 )">
    <path d="M 6.95203253382241 0.832067496538769  C 7.75365853658537 -0.200843895866295  9.24634146341464 -0.200843895866295  10.0479674661776 0.832067496538767  L 11.92764228992 3.29957807308149  C 12.1487804878049 3.58649791831487  12.4528455554497 3.81603376928402  12.7845528320313 3.93080167375396  L 15.6040650271532 5.02109706042326  C 16.7926829268293 5.48016880439082  17.2626016125191 6.97215189873418  16.5439024390244 8.06244724337421  L 14.8853658536585 10.673417721519  C 14.691869905202 10.9890295218552  14.5813008265053 11.3333333193236  14.5536585365854 11.7063291139241  L 14.4154471679688 14.8337552882714  C 14.3601626286204 16.1535865259098  13.1439024390244 17.0717299718157  11.92764228992 16.7274261743473  L 9.02520326552973 15.8953586357793  C 8.66585365853659 15.8092826864122  8.30650409203506 15.8092826864122  7.97479673447028 15.8953586357793  L 5.07235771008003 16.7274261743473  C 3.85609756097561 17.0717299718157  2.63983737137958 16.1535865259098  2.58455283203125 14.8337552882714  L 2.44634146341464 11.7063291139241  C 2.41869917349467 11.3333333193236  2.30813009479802 10.9603375667524  2.11463414634146 10.673417721519  L 0.456097560975612 8.06244724337421  C -0.234959363090698 6.97215189873418  0.207317073170733 5.48016876236155  1.3959349728468 5.02109706042326  L 4.21544716796875 3.93080167375396  C 4.54715448504192 3.7873417721519  4.85121951219512 3.5864978762856  5.07235771008003 3.29957807308149  L 6.95203253382241 0.832067496538769  Z " fill-rule="nonzero" fill="#ffe55c" stroke="none" transform="matrix(1 0 0 1 847 645 )" />
  </g>
</svg>