<?xml version="1.0" encoding="utf-8"?>
<svg version="1.1" xmlns:xlink="http://www.w3.org/1999/xlink" width="30px" height="27px" xmlns="http://www.w3.org/2000/svg">
  <g transform="matrix(1 0 0 1 -992 -640 )">
    <path d="M 12.6853160491612 8.66337345418913  C 12.6889456227813 9.25568625183734  12.6780569019211 9.91222575068244  11.8940691537762 10.4688570854623  C 11.6145920234784 10.6651053013229  11.4948161324636 10.9862387317141  11.5964441553781 11.2895314495695  L 11.6073328762383 11.328781100301  C 11.7779227979341 11.8461627465528  12.4602825231645 12.0495472625464  12.9284974432583 11.7212775320221  C 14.3984744902536 10.6936505018548  14.3984744902536 9.36629890389865  14.3984744902536 8.65266904178624  L 14.3984744902536 3.15415077203052  C 14.3984744902536 2.41911200951914  14.9755765805021 1.92313922586967  15.628899716772 1.59843764541191  C 15.8974881262095 1.47355243088122  16.0717076215253 1.20950936375726  16.0753371951454 0.916921096101352  C 16.0753371951454 0.321040148386645  15.3820887490548 -0.0500473829355345  14.8122458060465 0.231836396724296  C 13.7306330595035 0.770626943375097  12.6853160491612 1.6698006089452  12.6853160491612 3.16128707216351  L 12.6853160491612 8.66337345418913  Z M 8.8887827346243 8.66337345418913  C 8.88152358738418 9.25568625183734  8.88152358738418 9.91222575068244  8.09753583923925 10.4688570854623  C 7.81805870894155 10.6651053013229  7.70191239154673 10.9862387317141  7.79991084084122 11.2895314495695  L 7.81079956170142 11.328781100301  C 7.9813894833972 11.8461627465528  8.66737878224762 12.0495472625464  9.13196412872137 11.7212775320221  C 10.6019411757167 10.6936505018548  10.6019411757167 9.36629890389865  10.6019411757167 8.65266904178624  L 10.6019411757167 3.15415077203052  C 10.6019411757167 2.41911200951914  11.1790432659652 1.92313922586967  11.8323664022351 1.59843764541191  C 12.1009548116726 1.47355243088122  12.2751743069884 1.20950936375726  12.2788038806085 0.916921096101352  C 12.2788038806085 0.321040148386645  11.5819258608979 -0.0500473829355345  11.0157124915096 0.231836396724296  C 9.93409974496661 0.770626943375097  8.8887827346243 1.6698006089452  8.8887827346243 3.16128707216351  L 8.8887827346243 8.66337345418913  Z M 4.07233942508554 11.300235899769  L 4.08322814594574 11.335917400434  C 4.25018849402145 11.8532990466858  4.93617779287188 12.0602517127459  5.40439271296569 11.7284138321551  C 6.87436975996104 10.7007868019878  6.87436975996104 9.37343520403164  6.87436975996104 8.66337345418912  L 6.87436975996104 3.15415077203052  C 6.87436975996104 2.41911200951914  7.45147185020954 1.92313922586967  8.10842456009945 1.59843764541191  C 8.37701296953697 1.47355243088122  8.55123246485281 1.20950936375726  8.55486203847287 0.916921096101352  C 8.55486203847287 0.321040148386645  7.85798401876225 -0.0500473829355345  7.29177064937395 0.231836396724296  C 6.20652832921093 0.770626943375097  5.16484089248869 1.6698006089452  5.16484089248869 3.16128707216351  L 5.16484089248869 8.66337345418913  C 5.16484089248869 9.25925440190383  5.16484089248869 9.92293020088192  4.36996442348358 10.4795615356618  C 4.09048729318587 10.6758097515224  3.97434097579105 10.9969431819136  4.07233942508554 11.300235899769  Z M 0.188696382114348 13.6623507902289  L 0.188696382114342 14.1690280240778  C 0.188696382114342 18.9360756435921  3.51701477655743 23.0001978133968  8.17738645888067 24.5309338895499  L 8.17738645888067 26.1829870679639  C 8.17738645888067 26.561210899419  8.48952975175896 26.8680717673409  8.87426444014405 26.8680717673409  L 21.1349618987812 26.8680717673409  C 21.5196966256136 26.8680717673409  21.8318399184918 26.561210899419  21.8318398800446 26.1829870679639  L 21.8318398800446 24.5416383397494  C 26.4922115623678 23.0073340757332  29.8205299568109 18.9432119059285  29.8205299568109 14.1797324742773  L 29.8205299568109 13.6623507902289  C 29.8205299568109 13.2841269587737  29.5083866639326 12.9772660908518  29.1236519755476 13  L 0.885574401824968 13  C 0.500839674992637 12.9772661286484  0.188696382114348 13.2841269965703  0.188696382114348 13.6623507902289  Z M 29.8277891040511 3.33969453769161  C 29.8277890656038 3.93200729754322  29.3414263158569 4.41013936865682  28.7389172487152 4.41013936865682  L 17.744940752797 4.41013936865682  C 17.1424316472081 4.41013936865682  16.656068859014 3.93200733533982  16.656068859014 3.33969453769161  C 16.656068859014 2.7473817400434  17.1424316472081 2.2692497067264  17.744940752797 2.26924974452299  L 28.7389172487152 2.26924974452299  C 29.3414263543042 2.26924974452299  29.8277891424983 2.74738177784  29.8277891040511 3.33969453769161  Z M 29.8277891040511 7.61433756141947  C 29.8277890656038 8.20665035906769  29.3414263158569 8.68478239238469  28.7389172487152 9  L 17.744940752797 9  C 17.1424316472081 8.68478235458809  16.656068859014 8.20665032127109  16.656068859014 7.61433756141947  C 16.656068859014 7.02202480156786  17.1424316472081 6.54389273045426  17.744940752797 7  L 28.7389172487152 7  C 29.3414263543042 6.54389273045426  29.8277891424983 7.02202476377126  29.8277891040511 7.61433756141947  Z M 3.48797818759692 3.33969453769161  C 3.48797818759692 3.93200729754322  3.00161539940278 4.41013936865682  2.39910629381384 4.41013936865682  L 1.26667955503723 4.41013936865682  C 0.66417044944828 4.41013936865682  0.177807661254149 3.93200733533982  0.177807661254149 3.33969453769161  C 0.177807661254149 2.7473817400434  0.664170449448282 2.2692497067264  1.26667955503723 2.26924974452299  L 2.39910629381384 2.26924974452299  C 3.00161539940279 2.26924974452299  3.48797818759692 2.74738177784  3.48797818759692 3.33969453769161  Z M 3.48797818759692 7.61433756141947  C 3.48797818759692 8.20665035906769  3.00161539940278 8.68478239238469  2.39910629381384 8.68478235458809  L 1.26667955503723 8.68478235458809  C 0.66417044944828 8.68478235458809  0.177807661254149 8.20665032127109  0.177807661254149 7.61433756141947  C 0.177807661254149 7.02202480156786  0.664170449448282 6.54389273045426  1.26667955503723 6.54389273045426  L 2.39910629381384 6.54389273045426  C 3.00161539940279 6.54389273045426  3.48797818759692 7.02202476377126  3.48797818759692 7.61433756141947  Z " fill-rule="nonzero" fill="#000000" stroke="none" transform="matrix(1 0 0 1 992 640 )" />
  </g>
</svg>