<?xml version="1.0" encoding="utf-8"?>
<svg version="1.1" xmlns:xlink="http://www.w3.org/1999/xlink" width="28px" height="22px" xmlns="http://www.w3.org/2000/svg">
  <g transform="matrix(1 0 0 1 -996 -977 )">
    <path d="M 22.6637532448509 17.4580644146127  C 25.6008391779119 17.0839152646347  27.8779543723366 14.6367265762544  27.8779543723366 11.6760775748239  C 27.8779543723366 8.71598592649648  25.6016658913352 6.26916879676496  22.6654066716974 5.89430748514525  L 22.6654066716974 5.22329765074824  C 22.6896992942116 5.03527865591989  22.7063925292969 4.84499920224472  22.7063925292969 4.65066334727112  C 22.7063925292969 4.53627893100792  22.6833399769176 4.42814943331866  22.6499217196378 4.32447888149207  C 22.4909386008523 1.95200855248679  20.4635540616122 0.0677002008142573  17.9877417791193 0.0677002008142573  L 16.2236333052202 0.0677002008142573  C 15.6028042125355 0.0677002008142573  15.0997498401989 0.557751048085383  15.0997498401989 1.16218631161972  C 15.0997498401989 1.76662157515405  15.6027724254261 2.25667242242517  16.2236333052202 2.25667242242517  L 17.9877417791193 2.25667242242517  C 19.3274607111151 2.25667242242517  20.4176715598366 3.31802605633802  20.4176715598366 4.62270206866197  L 20.4176715598366 5.0737990509463  C 20.2116930175781 6.1844488556338  19.2133108398437 7.03022470015405  18.0140693980824 7  L 4.81455954367898 7  C 3.6155724609375 7.03022463963468  2.61741285511364 6.18503710387324  2.41095738192472 5.07497563820422  L 2.41095738192472 4.6227020081426  C 2.41095738192472 3.31802602607834  3.50097744584517 2.25667236190581  4.84072816495028 2.25667236190581  L 6.2283646262429 2.25667236190581  C 6.8490347212358 2.25667236190581  7.3522480912642 1.76662151463468  7.3522480912642 1.16218625110035  C 7.3522480912642 0.557750987566019  6.8490347212358 0.0677001402948915  6.2283646262429 0.0677001402948915  L 4.84072816495028 0.0677001402948915  C 2.36510663618608 0.0677001402948915  0.338040092329545 1.95169884463028  0.178770796342329 4.32389051221391  C 0.145193572443182 4.42771590283891  0.122077414772727 4.5360621506382  0.122077414772727 4.65066331701144  C 0.122077414772727 4.84540171654929  0.138802436967329 5.03605272887324  0.163222238991477 5.22444331261003  L 0.163222238991477 17.4265111603213  C 0.163222238991477 19.9378901380942  2.26151322354403 21.9809556448063  4.84072816495028 22  L 17.9877099609375 22  C 20.5559868430398 21.9809556448063  22.646074329723 19.9548279654489  22.6637532448509 17.4580644146127  Z M 20.417607923473 17.4265731018926  C 20.4176397416548 18.7308774950484  19.3274289240057 19.7920453647667  17.9877099609375 19.7920453647667  L 4.84069637784091 19.7920453647667  C 3.50097744584517 19.7920453647667  2.41092559481534 18.7308775253081  2.41092559481534 17.4265421462368  L 2.4109255637429 8.56710656084947  C 3.11502998490767 8.97828975022007  3.93541469726562 9.21922781690141  4.81452772549716 9.21922781690141  L 18.0140057617187 9.21922781690141  C 18.8930870028409 9.21922781690141  19.7135035023082 8.97828975022007  20.417607923473 8.56704464953785  L 20.417607923473 17.4265731018926  Z M 25.6301874733665 11.6760775748239  C 25.6301874733665 13.4266794014085  24.3569552423651 14.8920633197623  22.6653748845881 15.2432365041813  L 22.6653748845881 8.10894960112236  C 24.3569234552557 8.46009179962588  25.6301874733665 9.92547574823944  25.6301874733665 11.6760775748239  Z " fill-rule="nonzero" fill="#d9001b" stroke="none" transform="matrix(1 0 0 1 996 977 )" />
  </g>
</svg>