<?xml version="1.0" encoding="utf-8"?>
<svg version="1.1" xmlns:xlink="http://www.w3.org/1999/xlink" width="17px" height="22px" xmlns="http://www.w3.org/2000/svg">
  <g transform="matrix(1 0 0 1 -756 -276 )">
    <path d="M 9.49844321919103 21.4610439905678  C 11.7162895192792 18.6068157417111  16.8760750661542 11.5922033560404  16.8760750661542 8.10968402724848  C 16.8760750661542 3.67025005954649  13.1180310956401 0.0588766196646352  8.4987806687878 0.0588766196646352  C 3.88035228704637 0.0588766196646352  0.123870148689516 3.67025005954649  0.123870148689516 8.10968402724848  C 0.123870148689516 11.5913454220655  5.28124442571825 18.6067889386433  7.49983053962954 21.4610439905678  C 7.73344957472278 21.7621593487995  8.10722355248236 21.9410697479992  8.49875327620968 21.9410697479992  C 8.88943356224798 21.9410697479992  9.26405697769657 21.7621593487995  9.49844321919103 21.4610439905678  Z M 15.421970608619 8.10968402724848  C 15.4227926269531 10.1484797661014  12.8207052513861 14.7972011004192  8.63087981035786 20.2424531226181  L 8.4987806687878 20.4142585866044  L 8.36665413463962 20.2424531226181  C 4.17841794512349 14.7972011004192  1.57474129126764 10.14770224133  1.57474129126764 8.10968402724848  C 1.57474129126764 4.43996966225229  4.68029056987147 1.45444748951982  8.4987806687878 1.45444748951982  C 12.3164761419481 1.45444748951982  15.421970608619 4.43996963605183  15.421970608619 8.10968402724848  Z " fill-rule="nonzero" fill="#ffffff" stroke="none" transform="matrix(1 0 0 1 756 276 )" />
  </g>
</svg>