<?xml version="1.0" encoding="utf-8"?>
<svg version="1.1" xmlns:xlink="http://www.w3.org/1999/xlink" width="17px" height="17px" xmlns="http://www.w3.org/2000/svg">
  <g transform="matrix(1 0 0 1 -1042 -278 )">
    <path d="M 1.06249999316406 5.875  L 1.06249999316406 1.50393750683594  C 1.06274115656139 1.26023826308176  1.26023826308176 1.06274115656139  1.50393750683594 1.06249999316406  L 5.875 1.06249999316406  L 5.875 0.187500006835938  L 1.50393750683594 0.187500006835938  C 0.776989193963781 0.187741474040759  0.187741474040759 0.776989193963781  0.187500006835938 1.50393750683594  L 0.187500006835938 5.875  L 1.06249999316406 5.875  Z M 5.875 15.9375000068359  L 1.50393750683594 15.9375000068359  C 1.26023826308176 15.9372588434386  1.06274115656139 15.7397617369182  1.06249999316406 15.4960624931641  L 1.06249999316406 11.125  L 0.187500006835938 11.125  L 0.187500006835938 15.4960624931641  C 0.187741474040758 16.2230108060362  0.776989193963781 16.8122585259592  1.50393750683594 16.8124999931641  L 5.875 16.8124999931641  L 5.875 15.9375000068359  Z M 15.495625 1.06249999316406  C 15.7394950779439 1.06249987363534  15.9372585550897 1.26006754842076  15.9375000068359 1.50393750683594  L 15.9375000068359 5.875  L 16.8124999931641 5.875  L 16.8124999931641 1.50393750683594  C 16.8122585259592 0.776989193963782  16.2230108060362 0.187741474040759  15.4960624931641 0.187500006835938  L 11.125 0.187500006835938  L 11.125 1.06249999316406  L 15.4960624931641 1.06249999316406  Z M 15.9375000068359 11.125  L 15.9375000068359 15.4960624931641  C 15.9372588434386 15.7397617369182  15.7397617369182 15.9372588434386  15.4960624931641 15.9375000068359  L 11.125 15.9375000068359  L 11.125 16.8124999931641  L 15.4960624931641 16.8124999931641  C 16.2230108060362 16.8122585259592  16.8122585259592 16.2230108060362  16.8124999931641 15.4960624931641  L 16.8124999931641 11.125  L 15.9375000068359 11.125  Z M 0.187500006835938 9  L 0.187500006835938 8  L 16.8124999931641 8  L 16.8124999931641 9  L 0.187500006835938 9  Z " fill-rule="nonzero" fill="#ffffff" stroke="none" transform="matrix(1 0 0 1 1042 278 )" />
  </g>
</svg>