<?xml version="1.0" encoding="utf-8"?>
<svg version="1.1" xmlns:xlink="http://www.w3.org/1999/xlink" width="346px" height="91px" xmlns="http://www.w3.org/2000/svg">
  <defs>
    <filter x="756px" y="449px" width="346px" height="91px" filterUnits="userSpaceOnUse" id="filter15">
      <feOffset dx="5" dy="5" in="SourceAlpha" result="shadowOffsetInner" />
      <feGaussianBlur stdDeviation="1" in="shadowOffsetInner" result="shadowGaussian" />
      <feComposite in2="shadowGaussian" operator="atop" in="SourceAlpha" result="shadowComposite" />
      <feColorMatrix type="matrix" values="0 0 0 0 0  0 0 0 0 0  0 0 0 0 0  0 0 0 0.349019607843137 0  " in="shadowComposite" />
    </filter>
    <g id="widget16">
      <path d="M 757 459  A 9 9 0 0 1 766 450 L 1085 450  A 9 9 0 0 1 1094 459 L 1094 523  A 9 9 0 0 1 1085 532 L 766 532  A 9 9 0 0 1 757 523 L 757 459  Z " fill-rule="nonzero" fill="#ffffff" stroke="none" />
      <path d="M 756.5 459  A 9.5 9.5 0 0 1 766 449.5 L 1085 449.5  A 9.5 9.5 0 0 1 1094.5 459 L 1094.5 523  A 9.5 9.5 0 0 1 1085 532.5 L 766 532.5  A 9.5 9.5 0 0 1 756.5 523 L 756.5 459  Z " stroke-width="1" stroke="#d7d7d7" fill="none" stroke-opacity="0.447058823529412" />
    </g>
  </defs>
  <g transform="matrix(1 0 0 1 -756 -449 )">
    <use xlink:href="#widget16" filter="url(#filter15)" />
    <use xlink:href="#widget16" />
  </g>
</svg>