<?xml version="1.0" encoding="utf-8"?>
<svg version="1.1" xmlns:xlink="http://www.w3.org/1999/xlink" width="18px" height="26px" xmlns="http://www.w3.org/2000/svg">
  <g transform="matrix(1 0 0 1 -919 -470 )">
    <path d="M 17.8345714285714 2.9744  C 17.8345714285714 1.7498  16.8522857142857 0.7566  15.6411428571429 1  L 2.75571428571429 1  C 1.54457142857143 0.7566  0.562285714285715 1.7498  0.562285714285715 2.9744  L 0.562285714285715 23.0724  C 0.562285714285715 24.297  1.54457142857143 25.2902  2.75571428571429 25.2902  L 8.17114285714286 25.2902  L 11.1822857142857 25.2902  L 15.6411428571429 25.2902  C 16.8522857142857 25.2902  17.8345714285714 24.297  17.8345714285714 23.0724  L 17.8345714285714 2.9744  Z M 6.69257142857143 2.7248  C 6.69257142857143 2.5116  6.86485714285714 2.3374  7.07571428571428 2.3374  L 11.3211428571429 2.3374  C 11.532 2.3374  11.7042857142857 2.5116  11.7042857142857 2.7248  C 11.7042857142857 2.938  11.532 3.1122  11.3211428571429 3.1122  L 7.07571428571428 3.1122  C 6.86485714285714 3.1122  6.69257142857143 2.938  6.69257142857143 2.7248  Z M 10.7451428571429 21.1536  C 10.7425714285714 22.0168  10.0508571428571 22.7162  9.19971428571428 22.7162  C 8.346 22.7162  7.65428571428571 22.0168  7.65428571428571 21.1536  C 7.65428571428571 20.2904  8.346 19.591  9.19971428571428 19.591  C 10.0534285714286 19.591  10.7451428571429 20.2904  10.7451428571429 21.1536  Z M 16 16.9364  L 16.23 16.9364  C 16.23 17.2432  15.9857142857143 17.4902  15.6822857142857 17  L 2.71457142857143 17  C 2.41114285714286 17.4902  2.16685714285714 17.2432  2.16685714285714 16.9364  L 2.16685714285714 5.1324  C 2.16685714285714 4.8256  2.41114285714286 4.5786  2.71457142857143 5  L 15.6797142857143 5  C 15.9831428571429 4.5786  16.2274285714286 4.8256  16 5.1324  L 16 16.9364  Z " fill-rule="nonzero" fill="#1296db" stroke="none" transform="matrix(1 0 0 1 919 470 )" />
  </g>
</svg>