<?xml version="1.0" encoding="utf-8"?>
<svg version="1.1" xmlns:xlink="http://www.w3.org/1999/xlink" width="9px" height="10px" xmlns="http://www.w3.org/2000/svg">
  <g transform="matrix(1 0 0 1 -1043 -471 )">
    <path d="M 7.948125 5.34576612903226  L 0.586022727272725 5.34576612903226  C 0.303604389291067 5.34576612903226  0.0746590909090881 5.57142905754496  0.0746590909090881 5.84979838709677  C 0.0746590909090881 6.12816771664858  0.303604389291067 6.35383064516129  0.586022727272725 6.35383064516129  L 7.94761363636364 6.35383064516129  L 7.94761363636364 9.44909274193549  C 7.94761363636364 9.7274620714873  8.17655893474561 9.953125  8.45897727272727 9.953125  C 8.74139561070893 9.953125  8.97034090909091 9.7274620714873  8.97034090909091 9.44909274193549  L 8.97034090909091 3.59425403225806  C 8.97034090909091 3.31588470270625  8.74139561070893 3.09022177419355  8.45897727272727 3.09022177419355  L 7.07625 3.09022177419355  C 6.66536077442924 2.31188598375563  5.91050566319039 1.76624949970597  5.03386363636363 1.61391129032258  L 5.03386363636363 0.544354838709677  C 5.03386363636363 0.265985509157866  4.80491833798165 0.0403225806451613  4.5225 0.0403225806451613  C 4.24008166201834 0.0403225806451613  4.01113636363636 0.265985509157866  4.01113636363636 0.544354838709677  L 4.01113636363636 1.61441532258064  C 3.13497500023845 1.76693316686787  2.38057132252516 2.31233027047899  1.96977272727273 3.09022177419355  L 0.585511363636364 3.09022177419355  C 0.303093025654706 3.09022177419355  0.0741477272727273 3.31588470270626  0.0741477272727273 3.59425403225806  C 0.0741477272727273 3.87262336180988  0.303093025654706 4.09828629032258  0.585511363636364 4.09828629032258  L 2.30113636363637 4.09828629032258  C 2.53122604795275 4.09648004993184  2.73088710108353 3.94136382259198  2.78642045454545 3.72127016129032  C 2.79051136363637 3.71219758064516  2.79869318181818 3.70665322580645  2.80227272727273 3.69758064516129  C 3.07994318181818 3.02520161290323  3.75647727272727 2.57358870967742  4.5225 2.57358870967742  C 5.30386363636364 2.57358870967742  5.99164772727273 3.04435483870968  6.25806818181818 3.73689516129032  C 6.2848655390207 3.80499197777395  6.32680177773938 3.86630556455052  6.38079545454545 3.91633064516129  C 6.47534801649687 4.03069872339951  6.61669056715526 4.09758524934973  6.76636363636364 4.09879032258065  L 7.948125 4.09879032258065  L 7.948125 5.34576612903226  Z " fill-rule="nonzero" fill="#0f13ae" stroke="none" transform="matrix(1 0 0 1 1043 471 )" />
  </g>
</svg>