<?xml version="1.0" encoding="utf-8"?>
<svg version="1.1" xmlns:xlink="http://www.w3.org/1999/xlink" width="17px" height="21px" xmlns="http://www.w3.org/2000/svg">
  <g transform="matrix(1 0 0 1 -1033 -475 )">
    <path d="M 1 20.4444417938931  L 1 0.64572996183206  C 1.09741071428571 0.64572996183206  1.09741071428571 0.64572996183206  1.09741071428571 0.64572996183206  C 1.09741071428571 0.369060597651559  0.870888117473913 0.144775763358778  0.591458333333334 0.144775763358778  C 0.312028549192753 0.144775763358778  0.0855059523809528 0.369060597651559  0.0855059523809528 0.64572996183206  C 0.0855059523809528 0.64572996183206  0.0855059523809528 0.64572996183206  0 0.64572996183206  L 0 20.4444417938931  C 0.0855059523809528 20.7211111580736  0.312028549192753 20.9453959923664  0.591458333333334 20.9453959923664  C 0.870888117473913 20.9453959923664  1.09741071428571 20.7211111580736  1.09741071428571 20.4444417938931  C 1.09741071428571 20.4444417938931  1.09741071428571 20.4444417938931  1 20.4444417938931  Z M 16.8583333333333 11.5525047709924  L 16.8583333333333 9.84725667938931  C 16.8583333333333 9.57058731520881  16.6318107365215 9.34630248091603  16.352380952381 9.34630248091603  C 16.0729511682404 9.34630248091603  15.8464285714286 9.57058731520881  15.8464285714286 9.84725667938931  L 15.8464285714286 11.5525047709924  C 15.8464285714286 11.8291741351729  16.0729511682404 12.0534589694656  16.352380952381 12.0534589694656  C 16.6318107365215 12.0534589694656  16.8583333333333 11.8291741351729  16.8583333333333 11.5525047709924  Z M 16.8583333333333 16.5620467557252  L 16.8583333333333 14.8567986641221  C 16.8583333333333 14.5801292999416  16.6318107365215 14.3558444656489  16.352380952381 14.3558444656489  C 16.0729511682404 14.3558444656489  15.8464285714286 14.5801292999416  15.8464285714286 14.8567986641221  L 15.8464285714286 16.5620467557252  C 15.8464285714286 16.8387161199057  16.0729511682404 17.0630009541985  16.352380952381 17.0630009541985  C 16.6318107365215 17.0630009541985  16.8583333333333 16.8387161199057  16.8583333333333 16.5620467557252  Z " fill-rule="nonzero" fill="#49a3fe" stroke="none" transform="matrix(1 0 0 1 1033 475 )" />
  </g>
</svg>