<?xml version="1.0" encoding="utf-8"?>
<svg version="1.1" xmlns:xlink="http://www.w3.org/1999/xlink" width="27px" height="28px" xmlns="http://www.w3.org/2000/svg">
  <g transform="matrix(1 0 0 1 -765 -556 )">
    <path d="M 25.5636505032022 28  L 0.758618481244282 28  C 0.438032936870998 27.9389861188994  0.140832570905764 27.6220720321892  0.140832570905764 27.3005302560773  C 0.140832570905764 26.9788232053439  0.479945105215005 26.6386604885439  0.800475754803294 26.6386604885439  L 3.14129917657823 26.6386604885439  L 3.14129917657823 13.1226121260416  L 1.70580054894785 13.1226121260416  C 1.01365965233303 13.1226121260416  0.442836230558098 12.7178545780086  0.138307410795975 12.0118289407668  C -0.052397072278133 11.3290794793849  0.165699908508692 10.6030556129426  0.69565416285453 10.1597890781021  L 12.4924885635865 0.406961209652824  C 12.7583714547118 0.184694389516866  13.1215004574565 0.0626941730858139  13.5158371454712 0.0626941730858139  C 13.914098810613 0.0626941730858139  14.3068709972553 0.187090871528494  14.621967063129 0.412883550256273  L 26.3108783165599 10.2599179529558  C 26.8203019213175 10.6859683813909  27.1626258005489 11.416840303397  26.7792680695334 12.0895355586381  L 26.7707044830741 12.1043551830318  L 26.7660384263495 12.1207173705595  C 26.5815370539799 12.769750809157  25.9376212259835 13.223044004368  25.2008234217749 13.223044004368  L 23 13.223044004368  L 23 26.6383850308414  L 25.6056999085087 26.6383850308414  C 25.926230558097 26.6383850308414  26.2652058554437 26.9786854764926  26.2652058554437 27.300392527226  C 26.2652058554437 27.6217965744867  25.8842360475755 27.9387106611969  25.5636505032022 28  Z M 17.8637236962489 13.223044004368  L 17.8637236962489 26.7387893633976  L 22 26.7387893633976  L 22 13.223044004368  L 17.8637236962489 13.223044004368  Z M 10 13.2230164585977  L 10 26.6383574850712  L 16.5444098810613 26.6383574850712  L 16.5444098810613 13.2230164585977  L 10 13.2230164585977  Z M 5 13.2230164585977  L 5 26.6383574850712  L 9 26.6383574850712  L 9 13.2230164585977  L 5 13.2230164585977  Z M 13.134428179323 1.30525632322994  L 13.0921591948765 1.33698905055633  L 1.63973467520586 10.9875394740725  C 1.49006404391583 11.1370303692117  1.49006404391583 11.2869619966748  1.49006404391583 11.3962636130213  C 1.49006404391583 11.489753957245  1.82931381518756 11.9197709765959  2.16993595608418 12  L 25.1080786825252 12  C 25.2862671546203 11.9524953516513  25.5156175663312 11.7720981022932  25.5156175663312 11.5932985076095  L 25.5156175663312 11.2263062105874  L 14.0799359560842 1.500831291995  C 13.9691857273559 1.38899546478568  13.6847483989021 1.11524560005509  13.5381793229643 1.11524560005509  C 13.4299817017383 1.11524560005509  13.2159469350412 1.2626154708851  13.1839158279963 1.29465120168423  L 13.1750503202196 1.30379639740676  L 13.134428179323 1.30522877745969  Z " fill-rule="nonzero" fill="#000000" stroke="none" transform="matrix(1 0 0 1 765 556 )" />
  </g>
</svg>