<?xml version="1.0" encoding="utf-8"?>
<svg version="1.1" xmlns:xlink="http://www.w3.org/1999/xlink" width="28px" height="33px" xmlns="http://www.w3.org/2000/svg">
  <g transform="matrix(1 0 0 1 -993 -556 )">
    <path d="M 19.4309210526316 21.617493872549  C 19.2047697368421 21.7017463235294  18.9703947368421 21.7480851715686  18.7360197368421 21.7480851715686  C 18.5633223684211 21.7480851715686  18.3947368421053 21.7270220588235  18.2302631578947 21.6806832107843  L 18.2302631578947 28.4040287990196  C 18.3453947368421 28.4461550245098  18.4605263157895 28.48828125  18.5879934210526 28.48828125  C 19.2746710526316 28.48828125  19.8297697368421 27.835324754902  19.8297697368421 27.0349264705882  L 19.8297697368421 21.3857996323529  C 19.702302631579 21.4700520833333  19.5748355263158 21.5627297794118  19.4309210526316 21.617493872549  Z M 27.765625 16.0989583333333  L 25.4629934210526 8.80690870098039  C 25.1546052631579 7.83379289215686  24.2828947368421 7.18083639705882  23.2878289473684 7.18083639705882  L 19.7351973684211 7.18083639705882  C 19.0855263157895 7.18083639705882  18.5098684210526 7.47993259803922  18.0863486842105 7.94332107843137  C 18.0082236842105 8.05284926470589  17.921875 8.15816482843137  17.8314144736842 8.25926776960784  C 17.7779605263158 8.34352022058823  17.7368421052632 8.44041053921569  17.6957236842105 8.53308823529412  C 18.6825657894737 8.88694852941176  19.4761513157895 9.69155943627451  19.8133223684211 10.7615655637255  L 22.1159539473684 18.0536151960784  C 22.21875 18.382199754902  22.2557565789474 18.7234221813725  22.2269736842105 19.0604319852941  C 22.2064144736842 19.3216145833333  22.1447368421053 19.5701593137255  22.0501644736842 19.8060661764706  L 22.0501644736842 26.5336243872549  C 22.0501644736842 27.3129595588235  22.6628289473684 27.9490655637255  23.4235197368421 27.9490655637255  C 24.1800986842105 27.9490655637255  24.796875 27.3171721813726  24.796875 26.5336243872549  L 24.796875 15.7282475490196  L 25.1875 16.9625459558824  C 25.3725328947368 17.5523131127451  25.9070723684211 17.9272365196078  26.4745065789474 17.9272365196078  C 26.6143092105263 17.9272365196078  26.7541118421053 17.9061734068627  26.8939144736842 17.8598345588235  C 27.4284539473684 17.6786917892157  27.7820723684211 17.1942401960784  27.827302631579 16.6508118872549  C 27.84375 16.465456495098  27.8231907894737 16.2758884803922  27.765625 16.0989583333333  Z M 18.234375 3.08195465686275  C 18.2302631578947 4.40050551470589  19.0649671052632 5.50842524509804  20.2162828947368 5.91283700980392  C 20.5123355263158 6.01815257352941  20.8289473684211 6.08555453431373  21.1620065789474 6.08555453431373  C 21.4950657894737 6.08555453431373  21.8075657894737 6.01815257352941  22.1077302631579 5.91283700980392  C 23.2631578947368 5.50842524509804  24.0978618421053 4.40050551470589  24.0978618421053 3.08195465686275  C 24.0978618421053 1.42218137254902  22.7861842105263 0.0741421568627466  21.1661184210526 0.0741421568627466  C 19.546052631579 0.0741421568627466  18.234375 1.41796875  18.234375 3.08195465686275  Z M 20.2985197368421 18.2853094362745  L 17.9958881578947 10.9932598039216  C 17.6875 10.020143995098  16.8157894736842 9.36297487745098  15.8207236842105 9.36297487745098  L 12.2680921052632 9.36297487745098  C 11.6184210526316 9.36297487745098  11.0427631578947 9.66207107843137  10.6192434210526 10.1254595588235  C 10.5411184210526 10.234987745098  10.4547697368421 10.3403033088235  10.3643092105263 10.44140625  C 10.3108552631579 10.5256587009804  10.2697368421053 10.6225490196078  10.2286184210526 10.7152267156863  C 11.2154605263158 11.0690870098039  12.0090460526316 11.8736979166667  12.3462171052632 12.9437040441177  L 14.6488486842105 20.2357536764706  C 14.7516447368421 20.5643382352941  14.7927631578947 20.9055606617647  14.7639802631579 21.2425704656863  C 14.7434210526316 21.5037530637255  14.6817434210526 21.7522977941176  14.5871710526316 21.9882046568627  L 14.5871710526316 28.7157628676471  C 14.5871710526316 29.4950980392157  15.1998355263158 30.1312040441176  15.9605263157895 30.1312040441176  C 16.7171052631579 30.1312040441176  17.3338815789474 29.4993106617647  17 28.7157628676471  L 17 17.9145986519608  L 17.7245065789474 19.1488970588235  C 17.9095394736842 19.7386642156863  18.4440789473684 20.113587622549  19.0115131578947 20.113587622549  C 19.1513157894737 20.113587622549  19.2911184210526 20.0925245098039  19.4309210526316 20.0461856617647  C 19.9654605263158 19.8650428921569  20.3190789473684 19.3805912990196  20.3601973684211 18.8371629901961  C 20.3766447368421 18.6560202205882  20.3560855263158 18.4706648284314  20.2985197368421 18.2853094362745  Z M 13.0287828947368 23.8038449754902  C 12.8067434210526 23.8880974264706  12.5723684210526 23.9344362745098  12.3338815789474 23.9344362745098  C 12.1611842105263 23.9344362745098  11.9925986842105 23.9133731617647  11.828125 23.8670343137255  L 11.828125 30.5903799019608  C 11.9432565789474 30.632506127451  12.0583881578947 30.6746323529412  12.1858552631579 30.6746323529412  C 12.8725328947368 30.6746323529412  13.4276315789474 30.0216758578431  13.4276315789474 29.2212775735294  L 13.4276315789474 23.5721507352941  C 13.3001644736842 23.6564031862745  13.1726973684211 23.7490808823529  13.0287828947368 23.8038449754902  Z M 10.7672697368421 5.2640931372549  C 10.7631578947368 6.58264399509804  11.5978618421053 7.69477634803922  12.7491776315789 8.09497549019608  C 13.0452302631579 8.20029105392157  13.3618421052632 8.26769301470588  13.6949013157895 8.26769301470588  C 14.0279605263158 8.26769301470588  14.3404605263158 8.20029105392157  14.640625 8.09497549019608  C 15.796052631579 7.6905637254902  16.6307565789474 6.58264399509804  16.6307565789474 5.2640931372549  C 16.6307565789474 3.60431985294118  15.3190789473684 2.26049325980392  13.6990131578947 2.26049325980392  C 12.0789473684211 2.26049325980392  10.7672697368421 3.60431985294118  10.7672697368421 5.2640931372549  Z M 12.8190789473684 21.0108762254902  L 10.4958881578947 13.7230392156863  C 10.1833881578947 12.7499234068627  9.29934210526316 12.0927542892157  8.29194078947369 12.0927542892157  L 4.69407894736842 12.0927542892157  C 3.68667763157895 12.0927542892157  2.80263157894737 12.7457107843137  2.49013157894737 13.7230392156863  L 0.158717105263158 21.0193014705882  C 0.101151315789474 21.2004442401961  0.0805921052631579 21.390012254902  0.0970394736842105 21.5711550245098  C 0.142269736842105 22.1145833333333  0.5 22.6032475490196  1.03865131578947 22.7801776960784  C 1.17434210526316 22.8265165441176  1.31825657894737 22.8475796568627  1.46217105263158 22.8517922794118  C 2.04194078947368 22.8517922794118  2.57648026315789 22.476868872549  2.765625 21.8871017156863  L 3.16036184210526 20.6528033088235  L 3.16036184210526 31.4539675245098  C 3.16036184210526 32.2333026960784  3.78125 32.8694087009804  4.55016447368421 32.8694087009804  C 5.31907894736842 32.8694087009804  5.93996710526316 32.2375153186275  5.93996710526316 31.4539675245098  L 5.93996710526316 22.9950214460784  L 7.03782894736842 22.9950214460784  L 7.03782894736842 31.4455422794118  C 7.03782894736842 32.2248774509804  7.65871710526316 32.8609834558824  8.42763157894737 32.8609834558824  C 9.19654605263158 32.8609834558824  9.81743421052632 32.2290900735294  10 31.4455422794118  L 10 20.6443780637255  L 10.2121710526316 21.8786764705882  C 10.4013157894737 22.468443627451  10.9399671052632 22.8433670343137  11.515625 22.8433670343137  C 11.6554276315789 22.8433670343137  11.7993421052632 22.8223039215686  11.9391447368421 22.7717524509804  C 12.4819078947368 22.5906096813725  12.8355263157895 22.1061580882353  12.8807565789474 21.5627297794118  C 12.8972039473684 21.3815870098039  12.8766447368421 21.196231617647  12.8190789473684 21.0108762254902  Z M 3.30016447368421 7.99808517156863  C 3.29605263157895 9.31663602941177  4.13075657894737 10.4245557598039  5.28207236842105 10.8289675245098  C 5.578125 10.9342830882353  5.89473684210526 11.0016850490196  6.22779605263158 11.0016850490196  C 6.5608552631579 11.0016850490196  6.87335526315789 10.9342830882353  7.17351973684211 10.8289675245098  C 8.32894736842105 10.4245557598039  9.16365131578947 9.31663602941177  9.16365131578947 7.99808517156863  C 9.16365131578947 6.3383118872549  7.84786184210526 4.99027267156863  6.23190789473684 4.99027267156863  C 4.61184210526316 4.99027267156863  3.30016447368421 6.33409926470588  3.30016447368421 7.99808517156863  Z " fill-rule="nonzero" fill="#000000" stroke="none" transform="matrix(1 0 0 1 993 556 )" />
  </g>
</svg>