<?xml version="1.0" encoding="utf-8"?>
<svg version="1.1" xmlns:xlink="http://www.w3.org/1999/xlink" width="32px" height="24px" xmlns="http://www.w3.org/2000/svg">
  <g transform="matrix(1 0 0 1 -1066 -561 )">
    <path d="M 31.9767172054598 9.58122147836539  C 32.1785481681034 6.21183822115385  29.8762195043103 5.82909465144231  28.8211187859195 5.82909465144231  C 28.5110026221264 5.82909465144231  28.3082159482759 5.86233980769231  28.3082159482759 5.86233980769231  C 27.0405145474138 6.358655625  25.8186854525862 6.76095515625  24.6358184626437 7.09281631009616  C 23.8030589439655 2.99713164663462  20.2759974137931 0.00761390625000156  16.0048702586207 0.00761390625000156  C 11.7864154454023 0.00761390625000156  8.21348157327586 3.04805094951923  7.37292959770115 7.09580502403846  C 6.1881512571839 6.76294763221154  4.96238922413793 6.36064806490385  3.69178405172413 5.86337293269231  C 3.69178405172413 5.86337293269231  3.4889606321839 5.83012777644231  3.17888121408046 5.83012777644231  C 2.12378049568965 5.83012777644231  -0.178548204022992 6.21287134615385  0.0233195402298813 9.58221771634616  C 0.0233195402298813 9.58221771634616  0.220298635057468 19.1126914543269  8.10431418821839 22.8158176442308  C 11.052163829023 23.6987882091346  13.7874127873563 23.9924598677885  16.1267922054598 23.9924598677885  C 20.8045586206897 23.9924598677885  23.8918263649425 22.8158176442308  23.8918263649425 22.8158176442308  C 31.7787824712644 19.11461015625  31.9767172054598 9.58122147836539  31.9767172054598 9.58122147836539  Z M 9.30662543103448 7.57736167067308  C 9.92777672413793 4.40479262019231  12.711801795977 2.01235932692308  16.0048702586207 2.01235932692308  C 19.3388856681034 2.01235932692308  22.0858232399425 4.36464753605769  22.702159375 7.57440980769231  C 20.250635308908 8.11769682692308  18.0019713721264 8.34480439903846  15.9921891882184 8.35753424278846  C 13.9882512931034 8.34384504807693  11.7483722341954 8.11673751201923  9.30662543103448 7.57736167067308  Z M 29.9795793103448 9.53908384615384  C 29.9786604166667 9.62228902644231  29.7319494971264 17.7960210576923  23.1272872485632 20.9607676802885  C 22.692382112069 21.1115331490385  19.9912433548851 21.9876407091346  16.1267554597701 21.9876407091346  C 13.6547579022988 21.9876407091346  11.1974262931034 21.6342680048077  8.82000369971264 20.9372636177885  C 2.3158341954023 17.7803393870192  2.02913200431034 9.87090814903846  2.01645096982759 9.46174554086539  C 1.97745211925287 8.808834375  2.06912331178161 8.31251855769231  2.26900617816092 8.10009641826923  C 2.49913979885057 7.85442912259615  3.02376799568965 7.83483627403846  3.17880772270115 7.83483627403846  C 3.19928121408046 7.83483627403846  3.21780657327586 7.835795625  3.23633193247126 7.835795625  C 7.53182877155172 9.48429025240385  11.8175483477011 10.3339418870192  16.004833512931 10.3623534014423  C 20.172600862069 10.334938125  24.4642015086207 9.48524960336538  28.7635577945402 7.83483627403846  C 28.7821199353448 7.83483627403846  28.8006452945402 7.83387692307692  28.8210820043103 7.83387692307692  C 28.9761584770115 7.83387692307692  29.5007499281609 7.85343288461539  29.7308835488506 8.09913706730769  C 29.9307664152299 8.31155920673077  30.0224743534483 8.80787498798077  29.9795793103448 9.53908384615384  Z " fill-rule="nonzero" fill="#030000" stroke="none" transform="matrix(1 0 0 1 1066 561 )" />
  </g>
</svg>