<?xml version="1.0" encoding="utf-8"?>
<svg version="1.1" xmlns:xlink="http://www.w3.org/1999/xlink" width="3px" height="6px" xmlns="http://www.w3.org/2000/svg">
  <g transform="matrix(1 0 0 1 -774 -656 )">
    <path d="M 2.93597861842105 1.43797433035714  C 2.94899259868421 2.1216796875  2.93597861842105 2.80708705357143  2.93782894736842 3.49246651785714  C 2.93782894736842 4.159375  2.91926398026316 4.82798549107143  2.94711143092105 5.49321986607143  C 2.96012541118421 5.82580915178571  2.83013980263158 5.91487165178571  2.48107524671053 5.90477120535714  C 1.80339226973684 5.88295200892857  1.12197779605263 5.88630022321428  0.444263980263155 5.90309709821429  C 0.124928042763155 5.91149553571429  -0.00135690789473953 5.82580915178571  0.00237458881578633 5.52008928571429  C 0.017238898026314 4.1509765625  -0.00132606907895051 2.78021763392857  0.017238898026314 1.41110491071429  C 0.0283717105263135 0.626590401785718  0.667074424342103 0.0671875000000028  1.48960731907895 0.0755859375000024  C 2.30282689144737 0.0823102678571449  2.91741365131579 0.650111607142857  2.93597861842105 1.43797433035714  Z " fill-rule="nonzero" fill="#ffffff" stroke="none" transform="matrix(1 0 0 1 774 656 )" />
  </g>
</svg>