<?xml version="1.0" encoding="utf-8"?>
<svg version="1.1" xmlns:xlink="http://www.w3.org/1999/xlink" width="16px" height="15px" xmlns="http://www.w3.org/2000/svg">
  <g transform="matrix(1 0 0 1 -771 -642 )">
    <path d="M 0.0417668269230769 8.80271484375  C 0.0327223557692312 4.920439453125  2.78978365384615 1.713720703125  6.719140625 1.0451953125  C 6.96881009615385 1.002861328125  7.10811298076923 0.937617187499999  7.18951322115385 0.658916015625  C 7.29987980769231 0.286728515624999  7.60381610576923 0.0821191406249998  8.04702524038462 0.0909374999999994  C 8.47761418269231 0.0997558593749989  8.72545072115385 0.344941406249999  8.82496995192308 0.687128906249999  C 8.90093149038462 0.946406249999999  9.03662860576923 1.004619140625  9.26277043269231 1.0434375  C 12.8918269230769 1.648447265625  15.4390024038462 4.36482421875  15.8822415865385 7.70560546875  C 16.2512920673077 10.474892578125  15.2562800480769 12.831416015625  13.0835637019231 14.6834765625  C 12.6529747596154 15.050390625  12.1301382211538 15.046845703125  11.7936598557692 14.708173828125  C 11.4083233173077 14.31837890625  11.4119290865385 13.868583984375  11.8931490384615 13.434638671875  C 12.9225360576923 12.5015625  13.6859675480769 11.42384765625  14.0061899038462 10.070947265625  C 14.7244591346154 7.0353515625  12.9569411057692 3.985576171875  9.9140625 3.018984375  C 5.94308894230769 1.7578125  1.80928485576923 4.63294921875  1.80204326923077 8.71453125  C 1.7984375 10.388466796875  2.44065504807692 11.86482421875  3.67989783653846 13.06072265625  C 3.83185096153846 13.207119140625  3.99287860576923 13.346484375  4.13939302884615 13.498154296875  C 4.53560697115385 13.90916015625  4.55549879807692 14.332470703125  4.20814302884616 14.694052734375  C 3.84089543269231 15.07505859375  3.35606971153846 15.094482421875  2.93272235576923 14.72759765625  C 1.56325120192308 13.54400390625  0.624308894230768 12.10470703125  0.193749999999999 10.356708984375  C 0.0652944711538448 9.841669921875  0.096063701923076 9.319541015625  0.0417968749999996 8.80271484375  Z " fill-rule="nonzero" fill="#ffffff" stroke="none" transform="matrix(1 0 0 1 771 642 )" />
  </g>
</svg>