<?xml version="1.0" encoding="utf-8"?>
<svg version="1.1" xmlns:xlink="http://www.w3.org/1999/xlink" width="11px" height="11px" xmlns="http://www.w3.org/2000/svg">
  <g transform="matrix(1 0 0 1 -773 -650 )">
    <path d="M 9.84515830592105 10.907136615954  C 8.40358501233552 10.9088327508224  6.95861944901315 10.9088327508224  5.51362561677632 10.9088327508224  C 4.01927425986842 10.9088327508224  2.5232267680921 10.9037443462171  1.02887541118421 10.9122250205592  C 0.579569284539473 10.9156455592105  0.308950966282895 10.694384765625  0.140439967105264 10.3046412417763  C -0.0127210115131579 9.94893349095395  0.167691200657895 9.68170744243421  0.388923725328948 9.44512489720395  C 0.601675575657895 9.21877569901316  0.902937397203949 9.22558850740132  1.18887746710526 9.22558850740132  C 2.21345600328947 9.2238923725329  3.23806280838816 9.21535516036185  4.26266961348684 9.23067691200658  C 4.53498406661184 9.23406918174342  4.63709138569079 9.17623098273026  4.63539525082237 8.87666529605263  C 4.62346576891447 6.60963969983553  4.62519017269737 4.34088969983553  4.63369911595395 2.07213969983553  C 4.63539525082237 1.82535207648026  4.58603772615132 1.730029296875  4.30860659950658 1.72152035361842  C 3.7878083881579 1.70619860197368  3.37762643914474 1.2739103618421  3.40824167351974 0.83820158305921  C 3.43888517680921 0.405885074013157  3.85248766447368 0.0382478412828935  4.34264237253289 0.0331594366776303  C 5.11534488075658 0.0246504934210518  5.88804738898026 0.0229543585526308  6.66074989720394 0.0331594366776303  C 7.18327251233552 0.0399439761513146  7.60196340460526 0.429715768914473  7.60196340460526 0.880746299342105  C 7.60196340460526 1.31303453947368  7.2121916118421 1.71982421875  6.710107421875 1.71812808388158  C 6.36290861430921 1.71643194901316  6.34419459292763 1.86620065789474  6.34589072779605 2.13848684210526  C 6.35437140213815 4.35618318256579  6.35951634457236 6.57387952302631  6.34249845805921 8.79157586348684  C 6.33907791940789 9.15240028782895  6.44969418174342 9.23748972039474  6.79350071957236 9.23067691200658  C 7.85214329769736 9.20857062088816  8.91078587582236 9.21535516036184  9.96770405016447 9.22558850740132  C 10.4017166940789 9.22898077713816  10.752336040296 9.38044562088816  10.8799701891447 9.85361071134869  C 10.9888903166118 10.2535875822368  10.8170153166118 10.5378032483553  10.5225663034539 10.7709935238487  C 10.3234400699013 10.9275750411184  10.0800447162829 10.907136615954  9.84515830592105 10.907136615954  Z " fill-rule="nonzero" fill="#ffffff" stroke="none" transform="matrix(1 0 0 1 773 650 )" />
  </g>
</svg>