<?xml version="1.0" encoding="utf-8"?>
<svg version="1.1" xmlns:xlink="http://www.w3.org/1999/xlink" width="30px" height="29px" xmlns="http://www.w3.org/2000/svg">
  <g transform="matrix(1 0 0 1 -841 -638 )">
    <path d="M 24.1267605633803 28.2379562043796  C 23.5915492820202 28.6330900105497  22.943661971831 28.85888079237  22.2957746616417 28.85888079237  C 22.0140845070423 28.85888079237  21.732394393706 28.8306569343066  21.4507042391065 28.7459854014599  L 15.3943661834287 27.0525547445255  C 15.1408450566681 26.9678832116788  14.8591549020687 26.9678832116788  14.6056338165713 27.0525547445255  L 8.54929576089348 28.7459854014599  C 7.61971829610475 29  6.63380281690141 28.8306569343066  5.87323943661971 28.266180062443  C 5.08450702849912 27.7017031905794  4.63380283065581 26.8267640040488  4.57746477497799 25.8671532846715  L 4.32394364821743 19.5450121792313  C 4.32394364821743 19.2909975806912  4.23943660596391 19.036982982151  4.07042252145687 18.8111922003308  L 0.6056337890625 13.5615571638344  C 0.070422507702465 12.7712895101505  -0.0704225489656697 11.7834549740534  0.239436633472711 10.8520681127395  C 0.549295774647888 9.92068125142564  1.22535211267606 9.2150851305885  2.12676054962588 8.87639904054516  L 8.01408452079665 6.67493918653057  C 8.26760564755722 6.59026765368385  8.46478875990317 6.42092458799042  8.63380280314701 6.22335766423358  L 12.5492957746479 1.28418490106068  C 13.1408450704225 0.522141105440239  14.0422535073724 0.0987834412066623  15 0.0987834412066623  C 15.9577464926276 0.0987834412066623  16.8591549295775 0.522141105440239  17.4507042253521 1.28418490106068  L 21.366197196853 6.22335766423358  C 21.53521128136 6.42092458799042  21.7605633802817 6.59026765368385  21.9859154792034 6.67493918653057  L 27.8732394503741 8.87639904054516  C 28.7746478873239 9.21508517193203  29.4507042253521 9.92068129276916  29.7605633665273 10.8520681127395  C 30.0704225077025 11.7834549740534  29.9295774510343 12.7712895101505  29.3943662109375 13.5615571638344  L 25.9295774785431 18.8111922003308  C 25.788732421875 19.0369829408075  25.7042253796215 19.2909975393476  25.6760563517826 19.5450121792313  L 25.422535225022 25.8389294266081  C 25.3943661971831 26.7985401459854  24.9154929715009 27.6734792911724  24.1267605633803 28.2379562043796  Z M 14.1549295774648 25.3873479456547  C 14.4366197320643 25.3309002708713  14.7183098454005 25.3026764128079  15 25.3026764128079  C 15.2816901545995 25.3026764128079  15.5633802679357 25.3309002708714  15.8450704225352 25.4155717623745  L 21.9014084369498 27.1090024193089  C 22.3239436482174 27.221897810219  22.7746478873239 27.1372262773723  23.1408450841769 26.8832116788321  C 23.5070422810299 26.629197080292  23.7042253521127 26.2058394160584  23.7323943799516 25.7824817518248  L 23.9859155067121 19.4885644631045  C 24.0140845345511 18.9240875912409  24.1830986190581 18.3596106780338  24.4929577602333 17.8798053390169  L 27.9577464926276 12.6301703025205  C 28.2112676193882 12.2632603130703  28.2676056338028 11.8116788321168  28.1267605771347 11.3883211678832  C 27.9859155204665 10.9649635036496  27.6760563380282 10.6262773722628  27.2535211267606 10.4851581646328  L 21.3943661834287 8.25547445255474  C 20.8591549020687 8.0579075287979  20.3802816763864 7.71922139741104  20.0422535073724 7.26763991645757  L 16.1267605771347 2.32846715328467  C 15.8450704225352 1.98978102189781  15.4507042391065 1.79221409814097  15 1.79221409814097  C 14.5492957608935 1.79221409814097  14.1549295774648 1.98978102189781  13.8732394228653 2.32846715328467  L 9.95774649262764 7.26763991645757  C 9.59154929577465 7.71922143875456  9.14084509793134 8.05790757014142  8.60563381657131 8.25547445255474  L 2.71830984540053 10.4569343065693  C 2.29577463413292 10.6262773722628  1.98591549295775 10.9367396455862  1.84507043628961 11.3600973098198  C 1.70422537962148 11.7834549740534  1.76056339403609 12.2350364963504  2.01408452079666 12.6019464858006  L 5.47887325319102 17.851581522297  C 5.7887323943662 18.3313868613139  5.98591550671215 18.895863774521  5.98591550671215 19.4603406463846  L 6.26760562004841 25.7542578937614  C 6.29577464788732 26.2058394160584  6.49295771897007 26.6009732222286  6.85915491582306 26.8549878207687  C 7.22535211267606 27.1090024193089  7.67605631051936 27.1936739521556  8.09859156305018 27.080778602589  L 14.1549295774648 25.3873479456547  Z " fill-rule="nonzero" fill="#4d4d4d" stroke="none" transform="matrix(1 0 0 1 841 638 )" />
  </g>
</svg>