<?xml version="1.0" encoding="utf-8"?>
<svg version="1.1" xmlns:xlink="http://www.w3.org/1999/xlink" width="30px" height="28px" xmlns="http://www.w3.org/2000/svg">
  <g transform="matrix(1 0 0 1 -917 -639 )">
    <path d="M 24.4999999886446 1.18766673323416  C 24.0877857019797 0.453855262584108  23.3133774989681 -7.60834015580909E-05  22.4738372093023 0  L 7.51220930232558 0  C 6.673241412613 -0.000221766600647476  5.89919034675721 0.45296172201314  5.48662789562137 1.18591673323925  L 0.438953477016715 10.155833396611  C -0.0465707673823598 11.0186132322522  0.0639236534842668 12.0949640925072  0.714534872365552 12.8403333888055  L 13.2360465002725 27.1903333470808  C 13.6776383701948 27.6964069026708  14.3154131682681 27.9866658212564  14.9857973275384 27.9866658212564  C 15.6542924973427 27.9866658212564  16.2904593192943 27.6980341790425  16.731976744186 27.1944166576158  L 29.280813942133 12.8852500439483  C 29.9342805472152 12.1403692653123  30.0466981627764 11.0622898692257  29.5610465229833 10.1978333964889  L 24.4999999886446 1.18766673323416  Z M 2.46395347701672 11.3032500485482  L 7.51220930232558 2.3333334193561  L 22.4738372093023 2.3333334193561  L 27.5348837095749 11.3435000484312  L 14.9860465116279 25.6532500068235  L 2.46395347701672 11.3032500485482  Z " fill-rule="nonzero" fill="#444444" stroke="none" transform="matrix(1 0 0 1 917 639 )" />
  </g>
</svg>