<?xml version="1.0" encoding="utf-8"?>
<svg version="1.1" xmlns:xlink="http://www.w3.org/1999/xlink" width="32px" height="30px" xmlns="http://www.w3.org/2000/svg">
  <g transform="matrix(1 0 0 1 -1062 -638 )">
    <path d="M 1.12428977272727 15  C 0.54190340909091 15.5823647103658  0.0660511363636373 16.0575457317073  0.0660511363636364 16.6470560213415  C 0.0660511363636364 17.2329935213415  0.538352272727272 17.7081745426829  1.12073863636364 17.7081745426829  L 30.9183238636364 17.7081745426829  L 30.9183238636364 16.6470560213415  L 30.9183238636364 15  L 1.12428977272727 15  Z M 0.0696022727272724 4.51743521341464  C 0.0696022727272724 5.10337271341463  0.541903409090909 5.5785537347561  1.12428977272727 6  L 21.0639204545455 6  L 21.0639204545455 4.51743521341464  L 21.0639204545455 4  L 1.12428977272727 4  C 0.541903409090909 3.45631669207317  0.0696022727272724 3.93149771341464  0.0696022727272724 4.51743521341464  Z M 1.12428977272727 27.7155583079268  C 0.54190340909091 27.7119855182927  0.0660511363636373 28.1907393292683  0.0660511363636364 28.7766768292683  C 0.0660511363636364 29.3626143292683  0.538352272727272 29.8377953506098  1.12073863636364 29.8377953506098  L 30.9183238636364 29.8377953506098  L 30.9183238636364 28.7766768292683  L 30.9183238636364 27.7155583079268  L 1.12428977272727 27.7155583079268  Z M 23.1732954545455 4.51386242378049  C 23.1732954545455 6.92906821646342  25.1264204545455 8.89767530487805  27.5269886363636 8.89767530487805  C 29.9311079545455 8.89767530487805  31.8842329545455 6.93264100609756  31.8842329545455 4.51386242378049  C 31.8842329545455 2.09508384146342  29.9311079545455 0.130049542682927  27.5269886363636 0.130049542682927  C 25.1228693181818 0.130049542682927  23.1732954545455 2.09865663109756  23.1732954545455 4.51386242378049  Z M 24.8387784090909 4.51386242378049  C 24.8387784090909 3.02400914634146  26.0461647727273 1.80926067073171  27.5269886363636 1.80926067073171  C 29.0078125 1.80926067073171  30.2151988636364 3.02400914634146  30.2151988636364 4.51386242378049  C 30.2151988636364 6.00371570121951  29.0078125 7.21846417682927  27.5269886363636 7.21846417682927  C 26.0461647727273 7.21846417682927  24.8387784090909 6.00371570121951  24.8387784090909 4.51386242378049  Z " fill-rule="nonzero" fill="#4d4d4d" stroke="none" transform="matrix(1 0 0 1 1062 638 )" />
  </g>
</svg>