<?xml version="1.0" encoding="utf-8"?>
<svg version="1.1" xmlns:xlink="http://www.w3.org/1999/xlink" width="22px" height="26px" xmlns="http://www.w3.org/2000/svg">
  <g transform="matrix(1 0 0 1 -23 -48 )">
    <path d="M 17.897195997807 12  L 17.897195997807 11.8706407167969  L 15.180924833242 9.12495713085938  L 16.6960194924159 7.5940228203125  L 21.2425591876827 12.1880945214844  L 21.9999809530336 12.9536885410156  L 16.6960194924159 18.3131004824219  L 15.180924833242 16.7808974023438  L 17.897195997807 14  L 6.51678327622442 14  L 6.51678327622442 12  L 17.897195997807 12  Z M 12.9458274556835 23.8344113515625  L 12.9458274556835 26  L 2.23719960480629 26  C 1.66720347388999 26.0003795966799  1.12043631493695 25.7717909798096  0.717333379020468 25.364584375  C 0.314097075537318 24.9574730456152  0.0875962026412645 24.4050656474628  0 23.8290823925781  L 0 2.18563518164062  C 0.0877390967653507 0.987126537109375  1.04908210663377 0.01471808203125  2.23719960480629 0  L 12.9458274556835 0  L 12.9458274556835 2.18005246875  L 3.30979521655702 2.18005246875  C 3.306898767395 2.18002871007193  3.3040022347274 2.18001683058612  3.30110569013033 2.18001683058612  C 2.71278380695972 2.18001683058612  2.23472239862487 2.65976028396016  2.23067011376096 3.254218703125  L 2.23067011376096 22.7604988710938  C 2.23067011376096 23.3418631113281  2.71284841465643 23.8344113515625  3.30979521655702 23.8344113515625  L 12.9458274556835 23.8344113515625  Z " fill-rule="nonzero" fill="#ffffff" stroke="none" transform="matrix(1 0 0 1 23 48 )" />
  </g>
</svg>