<?xml version="1.0" encoding="utf-8"?>
<svg version="1.1" xmlns:xlink="http://www.w3.org/1999/xlink" width="20px" height="20px" xmlns="http://www.w3.org/2000/svg">
  <g transform="matrix(1 0 0 1 -1033 -190 )">
    <path d="M 11.8510570117188 18.50603290625  C 11.8509910332031 19.1472721484375  11.3419041796875 19.6795532539062  10.7258378789063 19.6795532539062  L 9.3090744453125 19.6795532539062  C 8.67869583398438 19.6795532539062  8.13551011914062 19.1363895175781  8.13551011914062 18.5061648203125  L 8.13551011914062 17.6583756132813  C 8.13551011914062 17.4516277988281  7.96736811523438 17.20911021875  7.77693323632812 17.1496185449219  L 7.74327405273437 17.1364714609375  L 6.54605377539062 16.6400920136719  L 6.5271466015625 16.6294732109375  C 6.3519693671875 16.5347174492188  6.0541153203125 16.5784238222656  5.91371849609375 16.7194362167969  L 5.308402890625 17.3236525527344  C 5.09505954492187 17.5380072109375  4.8091213984375 17.6565508378906  4.50418814257812 17.6565508378906  C 4.19921090820312 17.6565508378906  3.91320682617187 17.5380072109375  3.6987862109375 17.32264121875  L 2.69584821289062 16.3208244472656  C 2.25317834960937 15.8781765625  2.25258473632812 15.1556584277344  2.69435322265625 14.7100425625  L 3.299141171875 14.10619996875  C 3.4417364921875 13.9649457460938  3.48555277929687 13.6636400195313  3.3905332109375 13.4850990839844  L 3.372659328125 13.44710884375  L 2.87498276171875 12.2412264316406  L 2.869200671875 12.2265623789063  C 2.80896151367187 12.0324559921875  2.56242066210937 11.8528597441406  2.36191661523437 11.8528597441406  L 1.51045590039062 11.8528597441406  C 0.879000019531248 11.8528597441406  0.374749900390623 11.3358362832031  0.374749900390623 10.710030578125  L 0.374749900390623 9.29326714453126  C 0.374749900390623 8.67515621875001  0.868864894531248 8.18134903125001  1.5116870625 8.18134903125001  L 2.36193859375 8.18134903125001  C 2.55705631445312 8.18134903125001  2.80889555664062 7.99163965820313  2.87038785546875 7.79340006445313  L 2.88258958398437 7.76167557031251  L 3.380244171875 6.53517114453126  L 3.39110480273437 6.51553846484376  C 3.48572865039062 6.33893219726563  3.4409450078125 6.03806619140626  3.29894327929687 5.89613041992188  L 2.69648574023437 5.29268354687501  C 2.48239488867187 5.07951607226563  2.36376332617187 4.79388573242188  2.36343354101562 4.48923828320313  C 2.36310375585937 4.18412915625001  2.48142753320312 3.89761939648438  2.69659565429687 3.68245127539063  L 3.69896206054687 2.68096428906251  C 3.91254725585937 2.46643373828126  4.19844142382812 2.34789011132813  4.50317680859375 2.34789011132813  C 4.807934171875 2.34789011132813  5.09380636132812 2.46645571679688  5.30820499804687 2.68177773046876  L 5.91061855859375 3.28443314062501  C 6.0514990390625 3.42463209375001  6.35106792578125 3.46912990820313  6.52626713867187 3.37534150195313  L 6.54546011914062 3.36505248437501  L 7.77814235546875 2.85695496484376  C 7.96798364257812 2.79827675390626  8.1355320546875 2.55536345312501  8.1355320546875 2.34736247656251  L 8.1355320546875 1.49587978320313  C 8.1355320546875 0.873525736328132  8.66785713867187 0.376640632812507  9.30909638085937 0.376640632812507  L 10.7258378789063 0.3766406328125  C 11.3523471113281 0.3766406328125  11.8509910332031 0.862972890625  11.8509910332031 1.49587978320312  L 11.8509910332031 2.3473624765625  C 11.8509910332031 2.54346950976563  12.0381061679687 2.7954186875  12.2327182324219 2.85598763085938  L 12.2653001464844 2.86838723046875  L 13.4821751035156 3.36496454882812  L 13.5020056542969 3.37591311523437  C 13.6782381582031 3.47097666210938  13.9786205078125 3.42647882617188  14.1205123007812 3.28449909765625  L 14.7255860566406 2.68481168945312  C 14.9381819179687 2.47122649414063  15.2235924082031 2.35525512695313  15.5280859648437 2.35525512695313  C 15.5285036855469 2.35525512695313  15.5289653632812 2.35525512695313  15.5293830839844 2.35525512695313  C 15.8342064042969 2.35525512695313  16.1203863789062 2.47074281640625  16.3354006074219 2.6857790234375  L 17.33893221875 3.685968890625  C 17.5538804902344 3.89997180664063  17.6724680742187 4.18558014648437  17.6724680742187 4.491107015625  C 17.6724680742187 4.7959303359375  17.5543421679687 5.08206635351563  17.3398995527344 5.29747630273438  L 16.7347158613281 5.90230823046875  C 16.5933297246094 6.0443319375  16.5490737167969 6.34856166601563  16.6443791132813 6.52767423632812  L 16.6546681308594 6.54693317382812  L 17.1628755644531 7.7921029453125  C 17.2252252832031 7.99095813085937  17.477306375 8.18128307421875  17.671764546875 8.18128307421875  L 18.5124965234375 8.18128307421875  L 18.5124965234375 8.16897143164062  C 19.1060940566406 8.16897143164062  19.6337363203125 8.662778640625  19.6337363203125 9.29320120898437  L 19.6337363203125 10.7111298476563  C 19.6337363203125 11.3468728066406  19.1399071328125 11.8527718085938  18.521994078125 11.8527718085938  L 17.6705553632813 11.8527718085938  C 17.4699413808594 11.8527718085938  17.2226310664063 12.0326538417969  17.1616663808594 12.2271120136719  L 17.1492008242188 12.2596939277344  L 16.6531951191406 13.4679947070313  L 16.6431259511719 13.4864841816406  C 16.5481723398438 13.6648932246094  16.5917028203125 13.9660230585937  16.7327152148438 14.1064198613281  L 17.3371953789063 14.7084157011719  C 17.5527152636719 14.9238916074219  17.6710610195313 15.2100935605469  17.6710170410156 15.514960859375  C 17.6709291054688 15.8197402226563  17.5525393710938 16.1058981972656  17.3376130996094 16.3207365332031  L 16.333268046875 17.32367453125  C 16.1201225507813 17.5377653828125  15.8344042753906 17.6568146660156  15.5296029335938 17.6568146660156  C 15.5291852128906 17.6568146660156  15.5287235351563 17.6568146660156  15.5283058144531 17.6568146660156  C 15.2233945371094 17.6568146660156  14.9371706054688 17.5383369960938  14.7222443339844 17.323432703125  L 14.1198307734375 16.7198099589844  C 13.9803793261719 16.5803585117188  13.672785875 16.5355748691406  13.4991915664063 16.6294292324219  L 13.4787454238281 16.640487734375  L 12.2339933730469 17.1492448027344  C 12.0387437597656 17.2106711660156  11.8510570117188 17.4627962148437  11.8510570117188 17.6582436992187  L 11.8510570117188 18.50603290625  Z M 6.91729415039063 15.8617317558594  L 8.06355291015625 16.3355764785156  C 8.60480393554687 16.5154145546875  9.01493586328125 17.0800137460938  9.01493586328125 17.6583756132813  L 9.01493586328125 18.5061648203125  C 9.01493586328125 18.6590052011719  9.156080171875 18.8001494882813  9.30909642382812 18.8001494882813  L 10.7258378789063 18.8001494882812  C 10.8654212402344 18.8001494882812  10.9935723574219 18.67030553125  10.9935723574219 18.5061648203125  L 10.9935723574219 17.6583756132813  C 10.9935723574219 17.0939083144531  11.4128720761719 16.5168875449219  11.9582563085938 16.3353566289063  L 13.1153977636719 15.8613579921875  C 13.6230335839844 15.6010324863281  14.3258750605469 15.7088473964844  14.7292795429688 16.112185921875  L 15.3310555332031 16.717039828125  C 15.3833141054688 16.769254421875  15.4530508183594 16.7994839257812  15.5282618359375 16.7994839257812  C 15.6034068964844 16.7994839257812  15.6730996523438 16.7694302929688  15.724852546875 16.7174135703125  L 16.7299011269531 15.7132663886719  C 16.7822476347656 15.6609198808594  16.8111800195313 15.5902817695312  16.8112239980469 15.5150927519531  C 16.8112239980469 15.4399916699219  16.7823355917969 15.3695514296875  16.7298571699219 15.3170730078125  L 16.1260145761719 14.7155388457031  C 15.7243908691406 14.3157179140625  15.6154987109375 13.6123268242187  15.8730760644531 13.1034158632812  L 16.3475363789063 11.9517706699219  C 16.527462390625 11.4110692578125  17.1043072890625 10.9954190683594  17.67051140625 10.9954190683594  L 18.5219501210938 10.9954190683594  C 18.6883553066406 10.9954190683594  18.7542885976562 10.8431723007812  18.7542885976562 10.7111957617188  L 18.7542885976562 9.29326712304688  C 18.7542885976562 9.14583508984375  18.6443631269531 9.03386499414063  18.5124525664063 9.02896232421875  L 18.5124525664063 9.06075277539063  L 17.6717205898438 9.06075277539063  C 17.1080447539063 9.06075277539063  16.5309140488281 8.62784429492188  16.3485916699219 8.078150984375  L 15.8741313554688 6.91236939453125  C 15.6171695722656 6.4041619609375  15.7256000527344 5.69844043945312  16.1261025117188 5.29613520507812  L 16.731286203125 4.69044585742187  C 16.783500796875 4.6379894140625  16.81267503125 4.56660381835937  16.81267503125 4.49073325195312  C 16.81267503125 4.41556621289062  16.7840064746094 4.3454557578125  16.7319017949219 4.29363688476562  L 15.72768865625 3.29294136132812  C 15.6747925136719 3.24004521875  15.6044402089844 3.21271775976562  15.5292951699219 3.21271775976562  C 15.4545458515625 3.21271775976562  15.3850509667969 3.2396934765625  15.3333859863281 3.29160028515625  L 14.7275647246094 3.89396988867187  C 14.3257211679688 4.295945359375  13.6229016914063 4.40389216210937  13.1162332050781 4.14512760351562  L 11.9589598359375 3.6709091171875  C 11.4131798828125 3.49069729882812  10.9935723789063 2.9134566796875  10.9935723789063 2.3473624765625  L 10.9935723789063 1.49587978320312  C 10.9935723789063 1.34004944335937  10.8750287519531 1.23405928710937  10.7258379003906 1.23405928710937  L 9.30907446679688 1.23405928710937  C 9.14757197265625 1.23405928710937  9.01491390625 1.35262489257812  9.01491390625 1.49587978320312  L 9.01491390625 2.3473624765625  C 9.01491390625 2.92803277539062  8.60440823632813 3.49326955859375  8.06260757617188 3.67174453710937  L 6.91316090039063 4.14433611914062  C 6.40108408789063 4.40576087304687  5.71310453515625 4.29977073828125  5.30444561914063 3.89304649023437  L 4.700075390625 3.28900602539062  C 4.64761894726563 3.23632973242187  4.57781627734375 3.20763919726562  4.50344070117188 3.20763919726562  C 4.42904314648438 3.20761721875  4.35939436914063 3.23630775390625  4.30755351757813 3.28839045507812  L 3.30443962695313 4.29055899023437  C 3.252049140625 4.3429494765625  3.22313875585938 4.41323582421875  3.22320471289063 4.48838086328125  C 3.2232926484375 4.56302026757812  3.25198320507813 4.6326910234375  3.30404390625 4.68450989648437  L 3.90707305859375 5.28868227539062  C 4.3088066796875 5.69024002539062  4.41802862304688 6.39275171679687  4.1607810546875 6.89944218164062  L 3.68544134179688 8.0770737578125  C 3.50467988867188 8.6274266171875  2.92743926953125 9.06070886132812  2.3619386796875 9.06070886132812  L 1.5116871484375 9.06070886132812  C 1.36924572070313 9.06070886132812  1.23216866210938 9.13400716796875  1.23216866210938 9.29322320898437  L 1.23216866210938 10.7099866425781  C 1.23216866210938 10.859133515625  1.3557688515625 10.9953971328125  1.51045598632813 10.9953971328125  L 2.36191670117188 10.9953971328125  C 2.92869243164063 10.9953971328125  3.50478982421875 11.4111352578125  3.6837265234375 11.952254390625  L 4.1602973984375 13.1044491972656  C 4.41871019335938 13.6143055136719  4.30893861523438 14.3172349257812  3.90542419726563 14.7169899003906  L 3.30338437890625 15.3174687714844  C 3.19550351171875 15.4263169726562  3.19490991992188 15.6042423378906  3.30360422851563 15.712980625  L 4.30722377539063 16.7153030527344  C 4.359922046875 16.7682431523438  4.42959280273438 16.7968237734375  4.50421022851563 16.7968237734375  C 4.57880565429688 16.7968237734375  4.648410453125 16.7681112382812  4.7002513046875 16.7160505371094  L 5.30572080273438 16.1118561796875  C 5.70622326171875 15.7094410097656  6.4108894921875 15.6015381855469  6.91729415039063 15.8617317558594  Z " fill-rule="nonzero" fill="#ffffff" stroke="none" transform="matrix(1 0 0 1 1033 190 )" />
  </g>
</svg>