<?xml version="1.0" encoding="utf-8"?>
<svg version="1.1" xmlns:xlink="http://www.w3.org/1999/xlink" width="10px" height="10px" xmlns="http://www.w3.org/2000/svg">
  <g transform="matrix(1 0 0 1 -1038 -195 )">
    <path d="M 9.73776578515625 5.02350208007812  C 9.73776578515625 7.61536878710938  7.62915344140625 9.72400313085937  5.037264734375 9.72400313085937  C 2.44539802734375 9.72400313085937  0.33676368359375 7.61536878710938  0.33676368359375 5.02350208007812  C 0.33676368359375 2.43163537304687  2.44539802734375 0.323001029296873  5.037264734375 0.323001029296873  C 7.62913144140625 0.323001029296873  9.73776578515625 2.43163537304687  9.73776578515625 5.02350208007812  Z M 8.87801669921875 5.02350205859375  C 8.87801669921875 2.90569992382813  7.15506686914063 1.18275009375  5.037264734375 1.18275009375  C 2.91948459960938 1.18275009375  1.19651276953125 2.90569992382813  1.19651276953125 5.02350205859375  C 1.19651276953125 7.14130419335938  2.91946259960937 8.8642540234375  5.037264734375 8.8642540234375  C 7.15506686914063 8.8642540234375  8.87801669921875 7.14130419335938  8.87801669921875 5.02350205859375  Z " fill-rule="nonzero" fill="#ffffff" stroke="none" transform="matrix(1 0 0 1 1038 195 )" />
  </g>
</svg>