<?xml version="1.0" encoding="utf-8"?>
<svg version="1.1" xmlns:xlink="http://www.w3.org/1999/xlink" width="48px" height="50px" xmlns="http://www.w3.org/2000/svg">
  <g transform="matrix(1 0 0 1 -808 -248 )">
    <path d="M 30.0213396363636 49.2388352941176  L 28.7925629090909 49.2388352941176  L 26.8554312727273 49  L 0.672024727272727 49  L 0.672024727272727 47.9792029411765  C 0.672024727272727 47.9792029411765  0.103597090909091 40.8585529411765  10.47576 39.0358676470588  C 10.47576 39.0358676470588  18.3713716363636 37.9582426470588  18.924192 35.7628911764706  C 18.924192 35.7628911764706  19.2254661818182 35.5186367647059  19.0031432727273 32.9690647058824  C 18.5292203636364 27.5405661764706  15.0157541818182 24.9861514705882  13.5945236363636 22.9106691176471  C 12.1732930909091 20.8349691176471  12.0549469090909 18.4401985294118  12.0549469090909 18.4401985294118  C 12.0549469090909 17.8416691176471  12.3028334545455 17.6223352941177  12.7150807272727 17.2379161764706  C 13.2246850909091 16.7623029411765  13.0717338181818 16.2571441176471  12.9744305454545 15.7220044117647  C 12.6041614545455 13.6902691176471  12.5714938181818 10.4262705882353  12.9234109090909 8.38180294117648  C 13.0023621818182 5.94703970588236  15.2131054545455 3.99137205882354  15.2131054545455 3.99137205882354  C 15.627936 3.63557352941177  16.0436814545455 3.24413529411765  16.3348378181818 2.77461617647059  C 16.4161570909091 2.64386470588236  16.4909643636364 2.5036455882353  16.5353105454545 2.35499264705883  C 16.7018778181818 1.79449705882354  16.1379709090909 1.38298088235295  16.2510967272727 0.7868455882353  C 16.3531898181818 0.249311764705889  17.2644392727273 0.22286764705883  17.8155374545455 0.193594117647065  C 19.0566385454545 0.127538235294124  20.3039825454545 0.0781323529411829  21.5431461818182 0.174114705882359  C 30.8171490909091 0.892894117647059  33.866272 4.34455882352941  33.866272 4.34455882352941  C 34.5882429090909 5.21862941176471  35.063888 6.28754852941176  35.3500392727273 7.38312941176471  C 35.4357178181818 7.71068823529412  35.5092334545455 8.04504852941177  35.5490050909091 8.38185735294118  C 35.8381701818182 10.0611132352941  35.8370938181818 11.8123014705882  35.7471636363636 13.5092411764706  C 35.7043243636364 14.3183441176471  35.6113265454545 15.1147691176471  35.4938414545454 15.9153838235294  C 35.4322196363636 16.3343544117647  35.4638109090909 16.7242691176471  35.7408669090909 17.0590647058824  C 35.9722850909091 17.3391764705882  36.2370705454545 17.5348955882353  36.3506269090909 17.9029367647059  C 36.4037992727273 18.0750411764706  36.4176843636364 18.2609117647059  36.4176843636364 18.4402529411765  C 36.4176843636364 18.4402529411765  36.2991229090909 20.8350235294118  34.8778923636363 22.9107235294118  C 33.4566618181818 24.9862058823529  29.9431418181818 27.5406205882353  29.469488 32.9691191176471  C 29.2469498181818 35.5186911764706  29.5484392727273 35.7629455882353  29.5484392727273 35.7629455882353  C 30.1010443636364 37.9582426470588  37.9968712727273 39.0359220588235  37.9968712727273 39.0359220588235  C 48.4849585454545 41.0025264705882  47.8003912727273 47.9792573529412  47.8003912727273 47.9792573529412  L 47.8003912727273 49.2539617647059  L 40.8955185454545 49.2539617647059  L 41.9834530909091 49.2388897058824  L 41.0544436363636 49.2388897058824  L 39.12856 49.2388897058824  L 30.0213396363636 49.2388897058824  Z " fill-rule="nonzero" fill="#ff9000" stroke="none" transform="matrix(1 0 0 1 808 248 )" />
  </g>
</svg>