<?xml version="1.0" encoding="utf-8"?>
<svg version="1.1" xmlns:xlink="http://www.w3.org/1999/xlink" width="63px" height="28px" xmlns="http://www.w3.org/2000/svg">
  <defs>
    <mask fill="white" id="clip17">
      <path d="M 63 0  L 0 0  C 0 15.68  13.86 28  31.5 28  C 49.14 28  63 15.68  63 0  Z " fill-rule="evenodd" />
    </mask>
  </defs>
  <g transform="matrix(1 0 0 1 -800 -280 )">
    <path d="M 63 0  L 0 0  C 0 15.68  13.86 28  31.5 28  C 49.14 28  63 15.68  63 0  Z " fill-rule="nonzero" fill="#333333" stroke="none" transform="matrix(1 0 0 1 800 280 )" />
    <path d="M 63 0  L 0 0  C 0 15.68  13.86 28  31.5 28  C 49.14 28  63 15.68  63 0  Z " stroke-width="2" stroke="#ffffff" fill="none" transform="matrix(1 0 0 1 800 280 )" mask="url(#clip17)" />
  </g>
</svg>