<?xml version="1.0" encoding="utf-8"?>
<svg version="1.1" xmlns:xlink="http://www.w3.org/1999/xlink" width="25px" height="11px" xmlns="http://www.w3.org/2000/svg">
  <g transform="matrix(1 0 0 1 -1070 -451 )">
    <path d="M 0.0898719942926645 5.50043737345951  C 0.0898719942926645 8.63396354533451  5.42068885666168 10.9967728350572  12.4898181371632 10.9967728350572  C 19.5589474176647 10.9967728350572  24.8894351433851 8.6339325896787  24.8894351433851 5.5004064178037  C 24.8894351433851 2.36722084892165  19.5589474176647 0.00438060354313303  12.4898181371632 0.00438060354313303  C 5.42068885666168 0.00438060354313303  0.0898719942926645 2.36725183483715  0.0898719942926645 5.50043737345951  Z M 1.43001128602171 5.50043737345951  C 1.43001128602171 3.55683117847711  5.97199171968563 1.39136135013204  12.4898181371632 1.39136135013204  C 19.0073154472305 1.39136135013204  23.5492958516561 3.5568002228213  23.5492958516561 5.50043737345951  C 23.5492958516561 7.44407452409771  19.0073453581119 9.60982304412412  12.4898181371632 9.60982304412412  C 5.97199171968563 9.60982304412412  1.43001128602171 7.4440435684419  1.43001128602171 5.50043737345951  Z " fill-rule="nonzero" fill="#000000" stroke="none" transform="matrix(1 0 0 1 1070 451 )" />
  </g>
</svg>