<?xml version="1.0" encoding="utf-8"?>
<svg version="1.1" xmlns:xlink="http://www.w3.org/1999/xlink" width="25px" height="8px" xmlns="http://www.w3.org/2000/svg">
  <g transform="matrix(1 0 0 1 -1070 -459 )">
    <path d="M 0.1239207814839 2.508983203125  C 0.123920781483907 5.60042569110577  5.44007689698728 7.93213707932692  12.4895787623971 7.93213707932692  C 19.5394097644555 7.93213707932692  24.8555957908402 5.60045643028846  24.8555957908402 2.508983203125  C 24.8555957908402 1.69258287259615  24.4717542454154 0.932851832932692  23.7959549553237 0.251436899038459  C 23.7916165910367 0.246824639423074  23.7881757870977 0.241812650240383  23.7837177500468 0.237354146634612  C 23.778721141701 0.232342157451919  23.7753701288829 0.22696120793269  23.7703734912987 0.222010697115383  L 23.7670224784805 0.22579275841346  C 23.6583237333926 0.123400631009614  23.5162643560535 0.0572608774038442  23.357180599738 0.0572608774038442  C 23.0196848685442 0.0572608774038442  22.7461278419723 0.338393359374998  22.7461278419723 0.685235096153843  C 22.7461278419723 0.868833683894228  22.8257145864521 1.03023197115384  22.9479072031718 1.14504642427884  L 22.9454836908215 1.14778302283654  C 23.3533209557448 1.56918960336538  23.5831651150823 2.08391754807692  23.5831651150823 2.508983203125  C 23.5831651150823 4.45566334134615  19.027421582616 6.62456207932692  12.4895488515157 6.62456207932692  C 5.95197534618263 6.62456207932692  1.39620187359655 4.45566337139423  1.39620187359655 2.508983203125  C 1.39620187359655 2.02401971153846  1.52886642730164 1.60897803485577  2.04890306301459 1.13668284254807  C 2.05515630847679 1.13053317307692  2.06146940494011 1.12521370192307  2.06748327563622 1.11881802884615  C 2.07149253251309 1.11525120192308  2.07451443792103 1.11180739182692  2.07855360567926 1.10817908653846  L 2.07607027156624 1.10574996995192  C 2.17597258607784 0.993979597355766  2.24047977287612 0.847678786057689  2.24047977287612 0.683943659855767  C 2.24047977287612 0.337101893028843  1.96692271706586 0.0559694411057679  1.6294270151104 0.0559694411057679  C 1.46070906039483 0.0559694411057679  1.30799825154378 0.126290985576921  1.19747435792477 0.239844771634613  L 1.19388397034056 0.236277944711536  C 0.509467773437493 0.921290414663459  0.1239207814839 1.68692518028846  0.1239207814839 2.508983203125  Z " fill-rule="nonzero" fill="#d9001b" stroke="none" transform="matrix(1 0 0 1 1070 459 )" />
  </g>
</svg>