<?xml version="1.0" encoding="utf-8"?>
<svg version="1.1" xmlns:xlink="http://www.w3.org/1999/xlink" width="25px" height="8px" xmlns="http://www.w3.org/2000/svg">
  <g transform="matrix(1 0 0 1 -1070 -465 )">
    <path d="M 23.8024774864334 0.315042067307692  C 23.7980493602638 0.310306850961537  23.7945188236808 0.305325600961538  23.7900308465101 0.300774849759617  C 23.785094059927 0.295824368990386  23.7817729579903 0.290474128605771  23.7767763496445 0.28552364783654  L 23.7734253368264 0.289274939903849  C 23.6647265917384 0.186882812500003  23.5226372742796 0.120743058894233  23.3635535179641 0.120743058894233  C 23.0261176377713 0.120743058894233  22.7525306710797 0.401875540865387  22.7525306710797 0.748717277644234  C 22.7525306710797 0.932315865384617  22.8320875046781 1.09374489182693  22.9543100322792 1.20852860576923  L 22.9518566090475 1.21126520432693  C 23.3597237848522 1.63267178485577  23.5895679441897 2.14739972956731  23.5895679441897 2.57246538461539  C 23.5895679441897 4.51920703125001  19.0338244117234 6.68804426081731  12.4959516806231 6.68804426081731  C 5.95837817529005 6.68804426081731  1.40260470270397 4.51917629206731  1.40260470270397 2.57246538461539  C 1.40260470270397 2.08750189302885  1.53526925640906 1.67246021634616  2.05524604112089 1.20016502403847  C 2.06149928658309 1.19407683293269  2.06781238304641 1.18869588341346  2.07382625374252 1.18230021033654  C 2.07783551061939 1.17873338341347  2.08085741602732 1.17528957331731  2.08489658378556 1.17166126802885  L 2.08241324967253 1.16923215144231  C 2.18231556418414 1.05746177884616  2.24682275098241 0.911160967548081  2.24682275098241 0.747425841346156  C 2.24682275098241 0.400584074519232  1.97326569517216 0.119451622596155  1.63579990409806 0.119451622596155  C 1.46708194938249 0.119451622596155  1.31437114053144 0.189773167067308  1.20384724691243 0.303326953125002  L 1.20025685932822 0.299760126201925  C 0.51578081142403 0.98477259615385  0.130293670471559 1.75043810096154  0.130293670471559 2.57246538461538  C 0.130293670471559 5.66393858173077  5.44644978597493 7.99561926081731  12.4959815915045 7.99561926081731  C 19.5457826534431 7.99561926081731  24.8619387981849 5.66393861177885  24.8619387981849 2.57246538461538  C 24.8619387981849 1.75615730168269  24.4781570745228 0.996364753605771  23.8024774864334 0.315042067307692  Z " fill-rule="nonzero" fill="#000000" stroke="none" transform="matrix(1 0 0 1 1070 465 )" />
  </g>
</svg>