<?xml version="1.0" encoding="utf-8"?>
<svg version="1.1" xmlns:xlink="http://www.w3.org/1999/xlink" width="41px" height="41px" xmlns="http://www.w3.org/2000/svg">
  <g transform="matrix(1 0 0 1 -824 -335 )">
    <path d="M 844.5 335  C 855.98 335  865 344.02  865 355.5  C 865 366.98  855.98 376  844.5 376  C 833.02 376  824 366.98  824 355.5  C 824 344.02  833.02 335  844.5 335  Z " fill-rule="nonzero" fill="#ffff80" stroke="none" fill-opacity="0.580392156862745" />
    <path d="M 844.5 335.5  C 855.7 335.5  864.5 344.3  864.5 355.5  C 864.5 366.7  855.7 375.5  844.5 375.5  C 833.3 375.5  824.5 366.7  824.5 355.5  C 824.5 344.3  833.3 335.5  844.5 335.5  Z " stroke-width="1" stroke="#c39f61" fill="none" />
  </g>
</svg>