<?xml version="1.0" encoding="utf-8"?>
<svg version="1.1" xmlns:xlink="http://www.w3.org/1999/xlink" width="23px" height="22px" xmlns="http://www.w3.org/2000/svg">
  <defs>
    <linearGradient gradientUnits="userSpaceOnUse" x1="11.5" y1="0" x2="11.5" y2="22" id="LinearGradient24">
      <stop id="Stop25" stop-color="#fbebc4" offset="0" />
      <stop id="Stop26" stop-color="#fbe7ba" offset="0.35" />
      <stop id="Stop27" stop-color="#fce1a8" offset="1" />
    </linearGradient>
  </defs>
  <g transform="matrix(1 0 0 1 -833 -344 )">
    <path d="M 22.2382971562954 13.7567053040527  C 21.2482785391988 12.3778305035645  18.2703654001408 12.7198560854492  15.881749048442 12.7387078999512  L 15.881749048442 21.9276156666016  L 17.7596415160565 21.9276156666016  L 17.7596415160565 18.5908463946777  C 20.7611265184184 18.636629338916  22.2828217955124 18.4992804798828  22.7044963755678 15.8654142125488  C 22.8380703188136 15.095183370459  22.570922432322 14.2306935084961  22.2382971562954 13.7567053040527  Z M 20.8711285727653 15.302553224707  C 21.2718504025027 17.2389027765625  19.3258614323674 17.074622787793  17.7596415160565 17.0288398172363  L 17.7596415160565 14.3491905793457  C 19.1530010502816 14.3034076351074  20.6275525751726 14.1445138564941  20.8711285727653 15.302553224707  Z M 14.1426687244504 12.7387078999512  C 13.5245618734102 12.7656390560059  12.9038359093841 12.7656390560059  12.264776282431 12.7844908441895  C 12.2857290583439 15.8250174784668  12.2857290583439 18.8870890323242  12.3093009216479 21.9276156666016  L 14.1426687244504 21.9276156666016  L 14.1426687244504 12.7387078999512  Z M 22.7044963755678 0.487728579443361  L 15.8188907207031 0.487728579443359  C 12.9247886852971 3.45823421850586  10.038543937659 6.40719496430664  7.12348912633993 9.38308683984375  L 7.12348912633993 0.487728579443359  L 0.127881417128452 0.487728579443359  C 0.148834193041425 1.07752072333984  0.148834193041425 1.68885778681641  0.172406056345385 2.28134306210937  L 2 2.28134306210937  L 2 21.9141500885742  C 8.82328298589662 14.761237130127  15.7534133055732 7.63525532773438  22.7044963755678 0.487728579443361  Z " fill-rule="nonzero" fill="url(#LinearGradient24)" stroke="none" transform="matrix(1 0 0 1 833 344 )" />
  </g>
</svg>