<?xml version="1.0" encoding="utf-8"?>
<svg version="1.1" xmlns:xlink="http://www.w3.org/1999/xlink" width="20px" height="12px" xmlns="http://www.w3.org/2000/svg">
  <g transform="matrix(1 0 0 1 -884 -535 )">
    <path d="M 8.74999999283854 10.6861764630055  L 8.74999999283854 7.73558824287684  C 7.97541666666667 7.68026471346507  7.21916666666667 7.54147060340074  6.49499999283854 7.32794118405331  L 4.99533334049479 10.7327646982996  C 4.8453752121278 11.0710336041827  4.5242612579952 11.2870360019168  4.17134133006437 11.2870360019168  C 4.03622193731444 11.2870360019168  3.90279731288052 11.2551849028152  3.78074999283854 11.1937941176471  C 3.32503576391917 10.968898637721  3.12545862734505 10.3973035508218  3.33341666666667 9.91261764705882  L 4.77258334049479 6.64464705124081  C 3.54921376740149 6.03546738915411  2.45954443104366 5.16237282503223  1.57341666666667 4.08132353699448  C 0.918459271734296 3.27993104081278  0.404902500724581 2.36039447550415  0.057249992838542 1.36658823529411  C 0.020243723568349 1.25963201845037  0.00130720031241024 1.14661350922847  0.00130720031241024 1.03270587856158  C 0.00130720031241024 0.496649520170064  0.411724543246556 0.0620899805927317  0.917999992838542 0.0620899805927317  C 1.30267171151363 0.0620899805927317  1.64642669144984 0.316380222465986  1.77874999283854 0.698823521829042  C 2.05107330747133 1.47432867246453  2.45285260293742 2.19167950299245  2.96491666666667 2.81664705882353  C 4.48108334049479 4.68794116888787  6.89558334049479 5.82352940418199  9.53191666666667 5.82352940418199  C 12.1691666666667 5.82352940418199  14.5836666666667 4.68697057306985  16.0998333404948 2.81664705882353  C 16.611897396577 2.19167950121402  17.0136766847046 1.47432867079539  17.2859999928385 0.698823521829046  C 17.4183232942272 0.316380222465991  17.7620782741635 0.0620899805927392  18.1467499928385 0.0620899805927392  C 18.6530254424305 0.0620899805927392  19.0634427853647 0.496649520170069  19.0634427853647 1.03270587856158  C 19.0634427853647 1.14661350922847  19.0445062621087 1.25963201845037  19.0074999928385 1.36658823529412  C 18.6598474914523 2.36039447383648  18.1462907277807 3.27993103903599  17.4913333404948 4.08132353699448  C 17.3617351178792 4.24124449967971  17.2272183660813 4.39662213260246  17.0879999928385 4.54720588993566  L 19.3301666666667 6.92126469829963  C 19.6819903452483 7.30134831489405  19.6791279903125 7.91052411488526  19.3237499928385 8.28688234535846  C 19.1526980030019 8.47051371971759  18.9192700886763 8.57389103521338  18.6756789963648 8.57389103521338  C 18.4352270100311 8.57389103521338  18.2045427034981 8.47315359146693  18.0339999928385 8.29367647058824  L 15.6781666666667 5.79926471346508  C 15.2381666666667 6.11955883111214  14.7706666666667 6.40394117647059  14.2811666666667 6.65047058065258  L 15.7184999928385 9.91164705124082  C 15.9270684673896 10.3965878310916  15.727396563343 10.968887570545  15.2711666666667 11.1937941176471  C 15.1491193513142 11.2551848970721  15.0156947331946 11.2870359930804  14.8805753470079 11.2870359930804  C 14.52765542241 11.2870359930804  14.2065414706813 11.07103359938  14.0565833404948 10.7327646982996  L 12.5587499928385 7.3308529487592  C 11.912440982027 7.52078996808897  11.2513040056125 7.64877640960074  10.5833333404948 7.71326469829964  L 10.5833333404948 10.6852058899357  C 10.5788058196272 11.2178324965754  10.1697232801658 11.6470803887429  9.66666666666667 11.6470588159467  C 9.15699999283854 11.6470588159467  8.74999999283854 11.2161176394761  8.74999999283854 10.6861764630055  Z " fill-rule="nonzero" fill="#3d3d3d" stroke="none" transform="matrix(1 0 0 1 884 535 )" />
  </g>
</svg>